<svg xmlns="http://www.w3.org/2000/svg" viewBox="0 0 69.5 69.5"><defs><style>.cls-1{fill:#595ebd;}.cls-2{fill:#fff;}</style></defs><title>Asset 11</title><g id="Layer_2" data-name="Layer 2"><g id="Layer_1-2" data-name="Layer 1"><circle class="cls-1" cx="34.75" cy="34.75" r="34.75"/><path class="cls-2" d="M27.27,28.27a.82.82,0,0,0,.45-1.07,7.61,7.61,0,1,1,14.11,0,.82.82,0,1,0,1.52.62,9.25,9.25,0,1,0-17.15,0A.82.82,0,0,0,27.27,28.27Z"/><path class="cls-2" d="M46.13,21a.82.82,0,0,0,.82.82h2.51a.82.82,0,1,0,0-1.63H46.95A.82.82,0,0,0,46.13,21Z"/><path class="cls-2" d="M46,18.61a.82.82,0,0,0,.46-.14l2.07-1.41a.82.82,0,0,0-.92-1.36l-2.07,1.41a.82.82,0,0,0,.46,1.5Z"/><path class="cls-2" d="M46.45,23.43a.82.82,0,1,0-.92,1.36l2.08,1.4a.82.82,0,0,0,.92-1.36Z"/><path class="cls-2" d="M22.55,21.78a.82.82,0,0,0,0-1.64H20a.82.82,0,1,0,0,1.63h2.51Z"/><path class="cls-2" d="M21,17.06l2.07,1.41A.82.82,0,1,0,24,17.12l-2.07-1.41A.82.82,0,0,0,21,17.06Z"/><path class="cls-2" d="M23.05,23.43,21,24.83a.82.82,0,1,0,.92,1.36L24,24.79a.82.82,0,0,0-.92-1.36Z"/><path class="cls-2" d="M48.59,38.7C48,35.46,45.79,35,44.67,35h-.13a.84.84,0,0,1-.75-.41A3,3,0,0,0,40.94,33l-.14,0h0a.68.68,0,0,1-.73-.63V23.4a2.25,2.25,0,0,0-4.51-.1v9a.82.82,0,0,1-.77.84h0a.8.8,0,0,1-.79-.8V25a2.22,2.22,0,0,0-4.44,0s0,13.86,0,14.43a.81.81,0,0,1-.82.82.79.79,0,0,1-.68-.38l-2-3.15a2,2,0,0,0-1.78-1.07,2.16,2.16,0,0,0-1.93,3.27l0,.06,8.18,14.94a.89.89,0,0,0,.82.51H42.63a.9.9,0,0,0,.89-.72l1.13-3.37a.9.9,0,0,1,.13-.32C47.93,45.21,49.11,41.84,48.59,38.7Z"/></g></g></svg>