<svg xmlns="http://www.w3.org/2000/svg" viewBox="0 0 69.5 69.5"><defs><style>.cls-1{fill:#26c8be;}.cls-2{fill:#fff;}</style></defs><title>Asset 13</title><g id="Layer_2" data-name="Layer 2"><g id="Layer_1-2" data-name="Layer 1"><circle class="cls-1" cx="34.75" cy="34.75" r="34.75"/><path class="cls-2" d="M17.25,35.16a3.19,3.19,0,0,1,1-1.9,2.92,2.92,0,0,1,1.92-.69c1.92,0,3.85,0,5.77,0a2.87,2.87,0,0,1,2.84,2.21,3.55,3.55,0,0,1,.1.91q0,5.62,0,11.24a2.91,2.91,0,0,1-2.17,3,3.6,3.6,0,0,1-.94.12c-1.81,0-3.62,0-5.43,0a3,3,0,0,1-3.08-2.48.64.64,0,0,0,0-.13ZM26,35.5H20.2v7.24H26Z"/><path class="cls-2" d="M39.12,44.23v2.89h4.35V50H31.85V47.15h4.34V36.94H49.31V22.36H21.65a15.92,15.92,0,0,1,0-1.7,1.41,1.41,0,0,1,1.46-1.22H50.56a1.5,1.5,0,0,1,1.65,1.17,2.45,2.45,0,0,1,0,.51q0,10.73,0,21.46a1.49,1.49,0,0,1-1.64,1.66H39.12Z"/><path class="cls-2" d="M30.38,44.23V38.4H31.8V29.67H21.63v1.42h-2.9c0-.1,0-.2,0-.3,0-1.31,0-2.62,0-3.93a2.94,2.94,0,0,1,3.09-3.05h9.88a2.83,2.83,0,0,1,2.76,1.65,3.25,3.25,0,0,1,.3,1.35q0,7.21,0,14.42a2.92,2.92,0,0,1-3,3C31.32,44.25,30.87,44.23,30.38,44.23Z"/></g></g></svg>