<svg xmlns="http://www.w3.org/2000/svg" viewBox="0 0 69.5 69.5"><defs><style>.cls-1{fill:#6a7686;}.cls-2{fill:#fff;}</style></defs><title>Asset 10</title><g id="Layer_2" data-name="Layer 2"><g id="Layer_1-2" data-name="Layer 1"><circle class="cls-1" cx="34.75" cy="34.75" r="34.75"/><path class="cls-2" d="M55,45.36l-1.83-2.24a2,2,0,0,1-.45-1.28V34.48h0V23.66a3.59,3.59,0,0,0-3.59-3.59H20.36a3.59,3.59,0,0,0-3.59,3.59V41.81a2,2,0,0,1-.45,1.27l-1.85,2.27a.94.94,0,0,0-.22.6v1a2.43,2.43,0,0,0,2.43,2.43H52.82A2.43,2.43,0,0,0,55.25,47V46A.88.88,0,0,0,55,45.36Zm-16.39.53a1.24,1.24,0,0,1-1.24,1.24h-5.3a1.24,1.24,0,0,1-1.24-1.24v-.27h7.77v.27Zm10.53-6.15V42H20.34V23.65H49.17V39.57h0v.17Z"/><path class="cls-2" d="M39.86,28.39h-9a1.43,1.43,0,0,0-.72.2L29.64,27a.62.62,0,0,0-.59-.44H27a.46.46,0,0,0-.46.46V27a.46.46,0,0,0,.46.46h1.76l.9,3.17L30.9,35a1.61,1.61,0,0,0,.28,3.18,1.67,1.67,0,0,0-.08.65,1.58,1.58,0,0,0,3.16-.13,1.5,1.5,0,0,0-.09-.52H36a1.51,1.51,0,0,0-.08.7,1.58,1.58,0,0,0,3.15-.18,1.6,1.6,0,0,0-1.61-1.58H31.3a.57.57,0,0,1-.57-.54.56.56,0,0,1,.55-.58h7.37A1.36,1.36,0,0,0,40,35l1.22-4.94a1.36,1.36,0,0,0-.27-1.19A1.38,1.38,0,0,0,39.86,28.39ZM37.5,38.22a.52.52,0,1,1-.52.52A.52.52,0,0,1,37.5,38.22Zm-4.83,0a.52.52,0,1,1-.52.52A.52.52,0,0,1,32.68,38.22Zm-1.91-7.55-.23-.84a.31.31,0,0,1,.05-.27.3.3,0,0,1,.24-.13h1l.27,1.22H30.77Zm.29,1.06h1.25l.25,1.14H31.38ZM32.21,35a.3.3,0,0,1-.29-.23l-.24-.85h1.11L33,35h-.81Zm2.65,0h-.75l-.23-1.07h1Zm0-2.13H33.65l-.25-1.14h1.47Zm0-2.2H33.17l-.27-1.22h2v1.22ZM36.76,35h-.84V33.92H37Zm.45-2.13H35.93V31.73h1.53Zm-1.29-2.2V29.45h2l-.26,1.22Zm3,4.09a.31.31,0,0,1-.3.23h-.81l.23-1.07h1.1Zm.47-1.89H38.29l.24-1.14h1.17Zm.75-3-.21.85H38.75L39,29.45h.87a.3.3,0,0,1,.24.12A.28.28,0,0,1,40.18,29.83Z"/></g></g></svg>