<svg xmlns="http://www.w3.org/2000/svg" viewBox="0 0 69.5 69.5"><defs><style>.cls-1{fill:#2bb0e1;}.cls-2{fill:#fff;}</style></defs><title>Asset 12</title><g id="Layer_2" data-name="Layer 2"><g id="Layer_1-2" data-name="Layer 1"><circle class="cls-1" cx="34.75" cy="34.75" r="34.75"/><path class="cls-2" d="M49.49,38.67a.77.77,0,0,0,0-.51.51.51,0,0,0-.34-.34l-1.41-.64a.54.54,0,0,0-.51,0,.51.51,0,0,0-.34.38,3.66,3.66,0,0,1-.38.64,1,1,0,0,1-.9.43,1.51,1.51,0,0,1-1.32-.87,4.48,4.48,0,0,1-.51-2.28,4.61,4.61,0,0,1,.51-2.3,1.51,1.51,0,0,1,1.32-.9,1,1,0,0,1,.81.34,3.25,3.25,0,0,1,.47.68.51.51,0,0,0,.34.34.79.79,0,0,0,.51,0L49.15,33a.66.66,0,0,0,.34-.38.63.63,0,0,0,0-.51,4,4,0,0,0-3.84-2.65,4.31,4.31,0,0,0-3.52,1.66,6.71,6.71,0,0,0-1.34,4.35,6.62,6.62,0,0,0,1.34,4.33,4.33,4.33,0,0,0,3.52,1.64A4.13,4.13,0,0,0,49.49,38.67ZM35.92,41.44a4.16,4.16,0,0,0,2.9-1,3.37,3.37,0,0,0,1.11-2.62,3,3,0,0,0-.36-1.49,3.82,3.82,0,0,0-.87-1.07,3.46,3.46,0,0,0,.77-1,2.91,2.91,0,0,0,.3-1.32,3.18,3.18,0,0,0-1-2.5,4.07,4.07,0,0,0-2.82-.92,4.29,4.29,0,0,0-3.75,1.92.63.63,0,0,0,.09.85l1,.94a.7.7,0,0,0,.51.21,1.06,1.06,0,0,0,.47-.26,1.86,1.86,0,0,1,1.54-.9q.73,0,.85.36a1.83,1.83,0,0,1,.13.53,1.47,1.47,0,0,1-.13.45q-.13.32-.94.32h-.77a.7.7,0,0,0-.51.17.65.65,0,0,0-.21.47v1.54a.7.7,0,0,0,.21.51.46.46,0,0,0,.51.13h.81q.9,0,1,.34a1.47,1.47,0,0,1,.15.55q0,1-1.07,1a2,2,0,0,1-1.71-.94.54.54,0,0,0-.47-.26.49.49,0,0,0-.51.17l-1.07,1.07a.57.57,0,0,0-.09.81,4,4,0,0,0,1.62,1.45A5,5,0,0,0,35.92,41.44Zm-4.22-11a.55.55,0,0,0-.13-.55.61.61,0,0,0-.47-.26H29.23a.55.55,0,0,0-.6.51l-.9,4.56-.94-4.56a.6.6,0,0,0-.64-.51H24.79a.57.57,0,0,0-.64.51l-.94,4.56-.9-4.56a.57.57,0,0,0-.64-.51H19.84a.57.57,0,0,0-.51.26.77.77,0,0,0-.13.55l2.35,10.32a.6.6,0,0,0,.64.51H24a.6.6,0,0,0,.64-.51l.85-4.27.85,4.27a.57.57,0,0,0,.64.51h1.79a.6.6,0,0,0,.64-.51ZM52.13,19.77A1.24,1.24,0,0,1,53.41,21V47.84a1.34,1.34,0,0,1-.21.73,1.09,1.09,0,0,1-.6.47L35.28,55.65a1.33,1.33,0,0,1-.94,0L16.94,49a1.19,1.19,0,0,1-.62-.47,1.26,1.26,0,0,1-.23-.73V21a1.21,1.21,0,0,1,.38-.92,1.32,1.32,0,0,1,.94-.36H52.13Z"/></g></g></svg>