<svg xmlns="http://www.w3.org/2000/svg" viewBox="0 0 69.5 69.5"><defs><style>.cls-1{fill:#2f90f3;}.cls-2{fill:#fff;}</style></defs><title>Asset 14</title><g id="Layer_2" data-name="Layer 2"><g id="Layer_1-2" data-name="Layer 1"><circle class="cls-1" cx="34.75" cy="34.75" r="34.75"/><path class="cls-2" d="M46.06,47l-3.91-3.91a4,4,0,0,0-5.58,0l-1.21,1.21-.08.09-9-9,.09-.08,1.21-1.21a4,4,0,0,0,0-5.58l-3.91-3.91a4,4,0,0,0-5.58,0l-1.21,1.21c-3.28,3.28-1,11.1,7.93,20.07S41.57,57.1,44.85,53.82l1.21-1.21A4,4,0,0,0,46.06,47Z"/><path class="cls-2" d="M48.36,45.78a2.08,2.08,0,0,1-1.73-3.25A13.55,13.55,0,0,0,28,23.59a2.08,2.08,0,0,1-2.27-3.5A17.72,17.72,0,0,1,50.09,44.86,2.08,2.08,0,0,1,48.36,45.78Z"/><path class="cls-2" d="M37.87,35.91H34.09l2.2-2.45a5.63,5.63,0,0,0,1.82-3.53c0-1.81-1.4-3-3.47-3a4.78,4.78,0,0,0-3.28,1.4.94.94,0,0,0,0,1.33l.08.08a.94.94,0,0,0,1.32,0,2.84,2.84,0,0,1,1.89-.82c.68,0,1.49.18,1.49,1a4,4,0,0,1-1.27,2.16l0,0-3.56,4a.94.94,0,0,0-.24.63V37a.94.94,0,0,0,.94.94h5.89A.94.94,0,0,0,38.8,37v-.11A.94.94,0,0,0,37.87,35.91Z"/><path class="cls-2" d="M44.61,33.15h-.55v-2a.94.94,0,0,0-.94-.94H43a.94.94,0,0,0-.94.94v2H40.2L43,28.31a.94.94,0,0,0-.81-1.41h-.13a.94.94,0,0,0-.81.47L37.72,33.5a.94.94,0,0,0-.12.47v.23a.94.94,0,0,0,.94.94h3.55V37a.94.94,0,0,0,.94.94h.11a.94.94,0,0,0,.94-.94V35.14h.55a.94.94,0,0,0,.94-.94v-.11A.94.94,0,0,0,44.61,33.15Z"/></g></g></svg>