<svg xmlns="http://www.w3.org/2000/svg" viewBox="0 0 69.5 69.5"><defs><style>.cls-1{fill:#6a7686;}.cls-2{fill:#fff;}</style></defs><title>Asset 2</title><g id="Layer_2" data-name="Layer 2"><g id="Layer_1-2" data-name="Layer 1"><circle class="cls-1" cx="34.75" cy="34.75" r="34.75"/><path class="cls-2" d="M53.79,50H15.71V47.41H53.79Zm-3.35,3.79H19.06V48.9H50.44ZM29,22.06a6.23,6.23,0,1,1,6.23,6.31A6.27,6.27,0,0,1,29,22.06ZM22.8,45.54c.46-6.61,2.11-11.15,5.07-13.81a12.7,12.7,0,0,1,2-1.51,7.65,7.65,0,0,1,1.3-.6A11.22,11.22,0,0,1,34.62,29L32.67,45.54H29.43c.16-3.78.34-7.36.44-9.42-1.43,2-2.34,5.18-2.67,9.42Zm14.72,0L36,29a12,12,0,0,1,3.15.63,10.23,10.23,0,0,1,2.94,1.7c3.3,2.59,5.1,7.38,5.4,14.19H43.07c-.21-4.24-1.08-7.43-2.54-9.41.19,2.3.48,6.12.66,9.41Z"/></g></g></svg>