<?xml version="1.0" encoding="utf-8"?>
<!-- Generator: Adobe Illustrator 19.1.0, SVG Export Plug-In . SVG Version: 6.00 Build 0)  -->
<svg version="1.1" id="Layer_1" xmlns="http://www.w3.org/2000/svg" xmlns:xlink="http://www.w3.org/1999/xlink" x="0px" y="0px"
	 viewBox="0 0 56.7 66" style="enable-background:new 0 0 56.7 66;" xml:space="preserve">
<style type="text/css">
	.st0{fill:#FFDDB0;}
	.st1{fill:#95A5A6;}
	.st2{clip-path:url(#SVGID_2_);fill:#FFDDB0;}
	.st3{clip-path:url(#SVGID_2_);fill:#C16800;}
	.st4{clip-path:url(#SVGID_2_);fill:#A74D4B;}
	.st5{clip-path:url(#SVGID_2_);fill:#006DB5;}
	.st6{clip-path:url(#SVGID_2_);fill:#E67E22;}
	.st7{clip-path:url(#SVGID_2_);fill:#F0C419;}
	.st8{clip-path:url(#SVGID_2_);fill:#EDC89A;}
	.st9{clip-path:url(#SVGID_2_);fill:#287572;}
	.st10{clip-path:url(#SVGID_2_);fill:#865D41;}
	.st11{clip-path:url(#SVGID_2_);fill:#34495E;}
	.st12{clip-path:url(#SVGID_2_);fill:#95A5A6;}
</style>
<polygon class="st0" points="1.4,0 0.9,2.5 3.9,3.1 5.1,0 "/>
<polygon class="st0" points="28.4,2.8 27.9,0.2 24.2,0.3 25.4,3.4 "/>
<polygon class="st0" points="55.8,3 55.5,1 51.6,0.5 52.9,3.6 "/>
<polygon class="st0" points="27.7,2.8 28.2,0.2 31.9,0.3 30.7,3.4 "/>
<polygon class="st1" points="16.7,41.2 13.2,41.2 7.1,41.2 7.1,44.6 7.5,64.7 12.7,64.7 13.6,47.4 14.7,46.1 15.2,46.1 16.2,47.4 
	17.2,64.7 22.3,64.7 22.8,44.6 22.8,41.2 "/>
<polygon class="st0" points="10.8,12.2 10.4,12 10,12.1 10,13.9 11.2,15 "/>
<polygon class="st0" points="19.1,12.2 19.5,12 19.8,12.1 19.8,13.9 18.7,15 "/>
<g>
	<defs>
		<rect id="SVGID_1_" y="0" width="56.7" height="66"/>
	</defs>
	<clipPath id="SVGID_2_">
		<use xlink:href="#SVGID_1_"  style="overflow:visible;"/>
	</clipPath>
	<polygon class="st2" points="10.4,9.4 16.1,7.2 17.1,5.9 18.4,7.4 19.4,9.8 18.8,18.3 14.9,19.4 11,18.4 	"/>
	<polygon class="st3" points="10.4,9.4 16.1,7.2 17.1,5.9 18.4,7.4 19.4,9.8 19.1,12.9 18.7,12.9 18.3,10.3 11.4,11 11.1,12.9 
		10.7,12.9 	"/>
	<path class="st4" d="M7.8,66h4.5c0,0,0.9-2-2.2-2.4C10.1,63.6,7.4,63.8,7.8,66"/>
	<path class="st4" d="M22,66h-4.5c0,0-0.9-2,2.2-2.4C19.8,63.6,22.4,63.8,22,66"/>
	<polygon class="st5" points="22.8,41.2 16.7,41.2 13.2,41.2 7.1,41.2 7.1,41.4 22.8,41.2 	"/>
	<polygon class="st4" points="22.8,42 7.1,42 6.1,20.9 12.1,20.9 14.9,21.8 17.7,20.9 23.7,20.9 	"/>
	<polygon class="st2" points="12.1,18.1 12.1,20.9 14.9,21.5 17.7,20.9 17.7,18.3 	"/>
	<polygon class="st6" points="14.9,21.5 12.1,20.9 14.9,24.4 17.7,20.9 	"/>
	<polygon class="st7" points="9.5,20.6 6.9,27.4 1.1,13.7 0.6,11.7 0,2.3 4.7,3.2 5.2,10.9 	"/>
	<polygon class="st7" points="20.3,20.6 22.9,27.4 28.7,13.7 29.2,11.7 29.8,2.3 25.1,3.2 24.6,10.9 	"/>
	<polygon class="st8" points="39.1,18.4 39.1,21.1 41.8,21.5 44.6,21.1 44.6,18.5 	"/>
	<polygon class="st9" points="43.6,41.2 40.1,41.2 34,41.2 34,44.6 34.4,64.7 39.6,64.7 40.5,47.4 41.6,46.1 42.1,46.1 43.1,47.4 
		44.1,64.7 49.2,64.7 49.7,44.6 49.7,41.2 	"/>
	<polygon class="st8" points="37.7,12.2 37.3,12 36.9,12.1 36.9,13.9 38.1,15 	"/>
	<polygon class="st8" points="46,12.2 46.4,12 46.7,12.1 46.7,13.9 45.5,15 	"/>
	<polygon class="st8" points="46.4,9.4 40.7,7.2 39.7,5.9 38.3,7.4 37.4,9.8 37.9,18.3 41.9,19.4 45.8,18.4 	"/>
	<polygon class="st10" points="46.4,9.4 40.7,7.2 39.7,5.9 38.3,7.4 37.4,9.8 37.7,12.9 38.1,12.9 38.5,10.3 45.3,11 45.7,12.9 
		46.1,12.9 	"/>
	<path class="st11" d="M34.7,66h4.5c0,0,0.9-2-2.2-2.4C37,63.6,34.4,63.8,34.7,66"/>
	<path class="st11" d="M48.9,66h-4.5c0,0-0.9-2,2.2-2.4C46.7,63.6,49.3,63.8,48.9,66"/>
	<polygon class="st5" points="49.7,41.2 43.6,41.2 40.1,41.2 34,41.2 34,41.4 49.7,41.2 	"/>
	<polygon class="st12" points="49.7,42 34,42 33,20.9 37.6,20.9 41.9,21.7 46.1,20.9 50.6,20.9 	"/>
	<polygon class="st7" points="41.8,21.5 37.6,20.9 41.8,33.9 	"/>
	<polygon class="st7" points="41.8,21.5 46.1,20.9 41.8,33.9 	"/>
	<polygon class="st12" points="36.4,20.9 33.8,27.7 28,14 27.6,12 26.9,2.6 31.7,3.5 32.1,11.2 	"/>
	<polygon class="st12" points="47.3,20.9 49.8,27.7 55.7,14 56.1,12 56.7,2.6 52,3.5 51.5,11.2 	"/>
</g>
</svg>
