<?xml version="1.0" encoding="utf-8"?>
<!-- Generator: Adobe Illustrator 19.1.0, SVG Export Plug-In . SVG Version: 6.00 Build 0)  -->
<svg version="1.1" id="Layer_1" xmlns="http://www.w3.org/2000/svg" xmlns:xlink="http://www.w3.org/1999/xlink" x="0px" y="0px"
	 viewBox="0 0 70 48.6" style="enable-background:new 0 0 70 48.6;" xml:space="preserve">
<style type="text/css">
	.st0{clip-path:url(#SVGID_2_);fill:#4995EC;}
	.st1{clip-path:url(#SVGID_2_);fill:#444B54;}
	.st2{clip-path:url(#SVGID_2_);fill:#61B63D;}
</style>
<g>
	<defs>
		<rect id="SVGID_1_" y="0" width="70" height="48.6"/>
	</defs>
	<clipPath id="SVGID_2_">
		<use xlink:href="#SVGID_1_"  style="overflow:visible;"/>
	</clipPath>
	<path class="st0" d="M29.7,4.8c0,1.9-1.6,3.5-3.5,3.5s-3.5-1.6-3.5-3.5c0-1.9,1.6-3.5,3.5-3.5S29.7,2.9,29.7,4.8"/>
	<path class="st0" d="M68.7,4.8c0,1.9-1.6,3.5-3.5,3.5c-1.9,0-3.5-1.6-3.5-3.5c0-1.9,1.6-3.5,3.5-3.5C67.1,1.3,68.7,2.9,68.7,4.8"/>
	<path class="st0" d="M29.7,44c0,1.9-1.6,3.5-3.5,3.5s-3.5-1.6-3.5-3.5s1.6-3.5,3.5-3.5S29.7,42,29.7,44"/>
	<path class="st0" d="M68.7,44c0,1.9-1.6,3.5-3.5,3.5c-1.9,0-3.5-1.6-3.5-3.5s1.6-3.5,3.5-3.5C67.1,40.5,68.7,42,68.7,44"/>
	<path class="st1" d="M70,24.3c0-2.3-1.6-4.2-3.7-4.7v-10C68.4,9,70,7.1,70,4.8C70,2.2,67.8,0,65.2,0c-2.3,0-4.2,1.6-4.7,3.7h-10
		C49.9,1.6,48,0,45.7,0c-2.3,0-4.2,1.6-4.7,3.7H31C30.5,1.6,28.5,0,26.3,0c-2.7,0-4.8,2.2-4.8,4.8c0,2.3,1.6,4.2,3.7,4.7v10
		c-2.1,0.5-3.7,2.4-3.7,4.7c0,2.3,1.6,4.2,3.7,4.7v10c-2.1,0.5-3.7,2.4-3.7,4.7c0,2.7,2.2,4.8,4.8,4.8c2.3,0,4.2-1.6,4.7-3.7h10
		c0.5,2.1,2.4,3.7,4.7,3.7c2.3,0,4.2-1.6,4.7-3.7h10c0.5,2.1,2.4,3.7,4.7,3.7c2.7,0,4.8-2.2,4.8-4.8c0-2.3-1.6-4.2-3.7-4.7V29
		C68.4,28.5,70,26.6,70,24.3 M60.5,42.6h-10c-0.5-2.1-2.4-3.7-4.7-3.7c-2.3,0-4.2,1.6-4.7,3.7H31c-0.4-1.8-1.8-3.2-3.6-3.6V29
		c2.1-0.5,3.7-2.4,3.7-4.7c0-2.3-1.6-4.2-3.7-4.7v-10C29.1,9.1,30.5,7.7,31,6h10c0.5,2.1,2.4,3.7,4.7,3.7c2.3,0,4.2-1.6,4.7-3.7h10
		c0.4,1.8,1.8,3.2,3.6,3.6v10c-2.1,0.5-3.7,2.4-3.7,4.7c0,2.3,1.6,4.2,3.7,4.7v10C62.3,39.5,60.9,40.9,60.5,42.6 M67.8,24.3
		c0,1.4-1.2,2.6-2.6,2.6c-1.4,0-2.6-1.2-2.6-2.6c0-1.4,1.2-2.6,2.6-2.6C66.6,21.7,67.8,22.9,67.8,24.3 M65.2,2.2
		c1.4,0,2.6,1.2,2.6,2.6s-1.2,2.6-2.6,2.6c-1.4,0-2.6-1.2-2.6-2.6S63.7,2.2,65.2,2.2 M45.7,2.2c1.4,0,2.6,1.2,2.6,2.6
		s-1.2,2.6-2.6,2.6c-1.4,0-2.6-1.2-2.6-2.6S44.3,2.2,45.7,2.2 M23.6,4.8c0-1.4,1.2-2.6,2.6-2.6s2.6,1.2,2.6,2.6s-1.2,2.6-2.6,2.6
		S23.6,6.3,23.6,4.8 M23.6,24.3c0-1.4,1.2-2.6,2.6-2.6s2.6,1.2,2.6,2.6c0,1.4-1.2,2.6-2.6,2.6S23.6,25.7,23.6,24.3 M26.3,46.4
		c-1.4,0-2.6-1.2-2.6-2.6s1.2-2.6,2.6-2.6s2.6,1.2,2.6,2.6S27.7,46.4,26.3,46.4 M45.7,46.4c-1.4,0-2.6-1.2-2.6-2.6s1.2-2.6,2.6-2.6
		c1.4,0,2.6,1.2,2.6,2.6S47.1,46.4,45.7,46.4 M67.8,43.7c0,1.4-1.2,2.6-2.6,2.6c-1.4,0-2.6-1.2-2.6-2.6s1.2-2.6,2.6-2.6
		C66.6,41.1,67.8,42.3,67.8,43.7"/>
	<path class="st2" d="M48.9,23.2h-2.1v-2.1c0-0.6-0.5-1.1-1.1-1.1c-0.6,0-1.1,0.5-1.1,1.1v2.1h-2.1c-0.6,0-1.1,0.5-1.1,1.1
		s0.5,1.1,1.1,1.1h2.1v2.1c0,0.6,0.5,1.1,1.1,1.1c0.6,0,1.1-0.5,1.1-1.1v-2.1h2.1c0.6,0,1.1-0.5,1.1-1.1S49.5,23.2,48.9,23.2"/>
	<path class="st1" d="M1.1,6h4.5c0.6,0,1.1-0.5,1.1-1.1c0-0.6-0.5-1.1-1.1-1.1H1.1C0.5,3.7,0,4.2,0,4.8C0,5.5,0.5,6,1.1,6"/>
	<path class="st1" d="M18.1,3.7h-8c-0.6,0-1.1,0.5-1.1,1.1S9.4,6,10.1,6h8c0.6,0,1.1-0.5,1.1-1.1S18.7,3.7,18.1,3.7"/>
	<path class="st1" d="M18.1,11.5H5.6c-0.6,0-1.1,0.5-1.1,1.1s0.5,1.1,1.1,1.1h12.5c0.6,0,1.1-0.5,1.1-1.1S18.7,11.5,18.1,11.5"/>
	<path class="st1" d="M1.1,29.3h8c0.6,0,1.1-0.5,1.1-1.1c0-0.6-0.5-1.1-1.1-1.1h-8c-0.6,0-1.1,0.5-1.1,1.1C0,28.8,0.5,29.3,1.1,29.3
		"/>
	<path class="st1" d="M1.1,21.5h8c0.6,0,1.1-0.5,1.1-1.1c0-0.6-0.5-1.1-1.1-1.1h-8c-0.6,0-1.1,0.5-1.1,1.1C0,21,0.5,21.5,1.1,21.5"
		/>
	<path class="st1" d="M18.1,19.3h-4.5c-0.6,0-1.1,0.5-1.1,1.1s0.5,1.1,1.1,1.1h4.5c0.6,0,1.1-0.5,1.1-1.1S18.7,19.3,18.1,19.3"/>
	<path class="st1" d="M18.1,42.6H1.1c-0.6,0-1.1,0.5-1.1,1.1s0.5,1.1,1.1,1.1h16.9c0.6,0,1.1-0.5,1.1-1.1S18.7,42.6,18.1,42.6"/>
	<path class="st1" d="M18.1,34.8H5.6c-0.6,0-1.1,0.5-1.1,1.1s0.5,1.1,1.1,1.1h12.5c0.6,0,1.1-0.5,1.1-1.1S18.7,34.8,18.1,34.8"/>
</g>
</svg>
