<?xml version="1.0" encoding="utf-8"?>
<!-- Generator: Adobe Illustrator 19.1.0, SVG Export Plug-In . SVG Version: 6.00 Build 0)  -->
<svg version="1.1" id="Layer_1" xmlns="http://www.w3.org/2000/svg" xmlns:xlink="http://www.w3.org/1999/xlink" x="0px" y="0px"
	 viewBox="0 0 58.9 60" style="enable-background:new 0 0 58.9 60;" xml:space="preserve">
<style type="text/css">
	.st0{clip-path:url(#SVGID_2_);fill:#444B54;}
	.st1{clip-path:url(#SVGID_2_);fill:#4995EC;}
	.st2{clip-path:url(#SVGID_2_);fill:#61B63D;}
</style>
<g>
	<defs>
		<rect id="SVGID_1_" width="58.9" height="60"/>
	</defs>
	<clipPath id="SVGID_2_">
		<use xlink:href="#SVGID_1_"  style="overflow:visible;"/>
	</clipPath>
	<path class="st0" d="M54.6,47.6V20.9c0-1.6-1.3-2.9-2.9-2.9c-1.6,0-2.9,1.3-2.9,2.9v27.2c-1,0.6-1.9,1.5-2.4,2.6H32.2v-9.4
		c0-1.6-1.3-2.9-2.9-2.9c-1.6,0-2.9,1.3-2.9,2.9v9.4H12.2c-0.6-1.3-1.7-2.3-3-3V33.4h7.3c1.6,0,2.9-1.3,2.9-2.9
		c0-1.6-1.3-2.9-2.9-2.9H9.2V14.3c1.3-0.6,2.3-1.6,3-2.8H37c1.6,0,2.9-1.3,2.9-2.9S38.5,5.7,37,5.7H12.3C11.2,3.5,9,2,6.4,2
		C2.9,2,0,4.9,0,8.5c0,2.4,1.3,4.6,3.4,5.7v33.7C1.3,49,0,51.1,0,53.6C0,57.1,2.9,60,6.4,60c2.5,0,4.7-1.4,5.8-3.6h34.3
		c1.1,2.2,3.3,3.6,5.8,3.6c3.6,0,6.4-2.9,6.4-6.4C58.7,50.9,57.1,48.5,54.6,47.6 M12.8,7.7H37c0.5,0,1,0.4,1,1s-0.4,1-1,1H12.8
		c0.1-0.4,0.1-0.7,0.1-1.1C12.9,8.2,12.9,7.9,12.8,7.7 M16.5,29.6c0.5,0,1,0.4,1,1s-0.4,1-1,1H8.2c-0.5,0-1,0.4-1,1v14.7
		c-0.3,0-0.6-0.1-0.8-0.1c-0.4,0-0.7,0-1.1,0.1V14.8c0.4,0.1,0.7,0.1,1.1,0.1c0.3,0,0.6,0,0.8-0.1v13.8c0,0.5,0.4,1,1,1H16.5z
		 M1.9,8.5C1.9,6,3.9,4,6.4,4c1.9,0,3.7,1.2,4.3,3.1C10.9,7.5,11,8,11,8.5c0,0.6-0.1,1.1-0.3,1.7v0c-0.5,1.2-1.5,2.2-2.7,2.6
		c-0.5,0.2-1,0.2-1.5,0.2c-0.6,0-1.1-0.1-1.7-0.3l0,0C3,12,1.9,10.4,1.9,8.5 M10.7,55.1L10.7,55.1c-0.7,1.8-2.4,3-4.2,3
		c-2.5,0-4.5-2-4.5-4.5c0-1.9,1.1-3.5,2.8-4.2l0,0C5.3,49.1,5.9,49,6.4,49c0.5,0,1,0.1,1.5,0.2c1.3,0.4,2.3,1.4,2.8,2.7
		c0.2,0.5,0.3,1,0.3,1.6C11,54.1,10.9,54.6,10.7,55.1 M45.9,54.5H12.8c0-0.3,0.1-0.6,0.1-1s0-0.6-0.1-1h14.6c0.5,0,1-0.4,1-1V41.3
		c0-0.5,0.4-1,1-1s1,0.4,1,1v10.3c0,0.5,0.4,1,1,1h14.7c0,0.3-0.1,0.6-0.1,1S45.9,54.2,45.9,54.5 M50.8,20.9c0-0.5,0.4-1,1-1
		s1,0.4,1,1v26.3c-0.1,0-0.3,0-0.4,0c-0.5,0-1,0.1-1.5,0.2V20.9z M52.3,58.1c-1.9,0-3.6-1.2-4.2-3l0,0c-0.2-0.5-0.3-1-0.3-1.6
		c0-0.5,0.1-1.1,0.3-1.6c0.4-1.1,1.2-2,2.2-2.5c0.6-0.3,1.3-0.5,2-0.5c0.4,0,0.8,0.1,1.2,0.1c2,0.5,3.4,2.3,3.4,4.4
		C56.8,56.1,54.8,58.1,52.3,58.1"/>
	<path class="st0" d="M58.6,5.3l-5.1-5.1C53.3,0.1,53.1,0,52.8,0c-0.3,0-0.5,0.1-0.7,0.3l-23,23l-5.1,5.1c0,0,0,0,0,0c0,0,0,0,0,0
		c0,0,0,0,0,0c0,0,0,0,0,0c0,0,0,0,0,0c0,0,0,0,0,0c0,0,0,0,0,0c0,0,0,0,0,0c0,0,0,0,0,0c0,0,0,0,0,0c0,0,0,0,0,0c0,0,0,0,0,0.1
		c0,0,0,0,0,0l-1.3,3.8l-1.2,3.6L20,37.5c-0.4,0.4-0.4,1,0,1.4c0.2,0.2,0.4,0.3,0.7,0.3c0.2,0,0.5-0.1,0.7-0.3l1.4-1.4l7.4-2.5
		c0,0,0,0,0,0c0,0,0,0,0.1,0c0,0,0,0,0,0c0,0,0,0,0,0c0,0,0,0,0,0c0,0,0,0,0,0c0,0,0,0,0,0c0,0,0,0,0,0c0,0,0,0,0,0c0,0,0,0,0,0
		c0,0,0,0,0,0c0,0,0,0,0,0c0,0,0,0,0,0l12.6-12.6c0,0,0,0,0-0.1L58.6,6.7C58.9,6.3,58.9,5.7,58.6,5.3 M23.8,35.1l0.7-2l0.8-2.3
		l2.9,2.9L23.8,35.1z M41.8,20.8C41.8,20.8,41.7,20.8,41.8,20.8l-12,12L26.1,29l4.4-4.4L52.8,2.3L56.5,6L41.8,20.8z"/>
	<path class="st1" d="M55,53.6c0,1.4-1.2,2.6-2.6,2.6c-1.4,0-2.6-1.2-2.6-2.6c0-1.4,1.2-2.6,2.6-2.6C53.8,51,55,52.2,55,53.6"/>
	<path class="st2" d="M9.1,53.7c0,1.4-1.2,2.6-2.6,2.6c-1.4,0-2.6-1.2-2.6-2.6c0-1.4,1.2-2.6,2.6-2.6C7.9,51.1,9.1,52.2,9.1,53.7"/>
	<path class="st1" d="M9.1,8.6c0,1.4-1.2,2.6-2.6,2.6C5,11.2,3.9,10,3.9,8.6C3.9,7.1,5,6,6.5,6C7.9,6,9.1,7.1,9.1,8.6"/>
</g>
</svg>
