<svg xmlns="http://www.w3.org/2000/svg" viewBox="0 0 70 68.91"><defs><style>.cls-1{fill:#444b54;}.cls-2{fill:#61b63d;}.cls-3{fill:#4995ec;}</style></defs><title>Asset 7</title><g id="Layer_2" data-name="Layer 2"><g id="Layer_1-2" data-name="Layer 1"><circle class="cls-1" cx="61.3" cy="61.3" r="1.09"/><circle class="cls-1" cx="59.12" cy="58.03" r="1.09"/><circle class="cls-1" cx="56.94" cy="54.77" r="1.09"/><circle class="cls-1" cx="61.3" cy="54.77" r="1.09"/><circle class="cls-1" cx="54.77" cy="51.5" r="1.09"/><circle class="cls-1" cx="59.12" cy="51.5" r="1.09"/><circle class="cls-1" cx="52.59" cy="48.24" r="1.09"/><circle class="cls-1" cx="56.94" cy="48.24" r="1.09"/><circle class="cls-1" cx="63.47" cy="64.56" r="1.09"/><circle class="cls-1" cx="59.12" cy="64.56" r="1.09"/><circle class="cls-1" cx="56.94" cy="61.3" r="1.09"/><circle class="cls-1" cx="54.77" cy="58.03" r="1.09"/><circle class="cls-1" cx="52.59" cy="54.77" r="1.09"/><circle class="cls-1" cx="50.42" cy="51.5" r="1.09"/><circle class="cls-1" cx="52.59" cy="61.3" r="1.09"/><circle class="cls-1" cx="50.42" cy="58.03" r="1.09"/><circle class="cls-1" cx="48.24" cy="54.77" r="1.09"/><circle class="cls-1" cx="54.77" cy="64.56" r="1.09"/><circle class="cls-1" cx="50.42" cy="64.56" r="1.09"/><circle class="cls-1" cx="48.24" cy="61.3" r="1.09"/><circle class="cls-1" cx="46.06" cy="58.03" r="1.09"/><circle class="cls-1" cx="43.89" cy="61.3" r="1.09"/><circle class="cls-1" cx="46.06" cy="64.56" r="1.09"/><circle class="cls-1" cx="41.71" cy="64.56" r="1.09"/><path class="cls-1" d="M68.23,59.32A72.28,72.28,0,0,1,64.09,53a70.1,70.1,0,0,0-4.19-6.37,9.6,9.6,0,0,0-6.22-3.78V1.09A1.09,1.09,0,0,0,52.59,0H1.09A1.09,1.09,0,0,0,0,1.09V61.3a1.09,1.09,0,0,0,.66,1l7.59,3.26a1.1,1.1,0,0,0,.43.09h27a3.45,3.45,0,0,0,.28.82c.57,1.12,2,2.45,5.72,2.45H61.46c4.11,0,7.07-1.27,8.13-3.49C70.44,63.63,70,61.46,68.23,59.32ZM7.59,62.91,2.18,60.58V2.18H7.59ZM9.8,2.18H51.5V42.91a7.51,7.51,0,0,0-.87.2l-.23.08c-.22.07-.44.15-.66.24l-.32.15c-.18.09-.36.18-.54.28l-.34.2-.5.34-.33.25-.48.41-.3.27c-.17.16-.33.34-.5.51l-.24.26c-.24.28-.47.57-.69.87-1,1.35-2.17,3.4-3.45,5.66l-.8,1.41-1.47,2.59c-1,1.75-2,3.35-2.73,4.41l0,.06c-.15.21-.29.43-.42.64l-.11.19c-.1.17-.19.34-.27.51l-.09.19q-.11.25-.2.5l-.06.18-.05.14H9.8ZM41.7,66.74c-2,0-3.38-.46-3.79-1.26h0A1,1,0,0,0,38,63.72l0-.12,0-.09c.07-.15.15-.31.24-.46l.07-.12c.11-.19.24-.38.38-.58l.11-.16a1.08,1.08,0,0,0,.61.21,1.09,1.09,0,0,0,1.09-1.09,1.07,1.07,0,0,0-.52-.91c.3-.48.61-1,.92-1.53a1.07,1.07,0,0,0,.69.27,1.08,1.08,0,0,0,.37-2.1l.26-.46L43,55.38a1.07,1.07,0,0,0,.88.48A1.08,1.08,0,0,0,44,53.7L45,51.82a1.08,1.08,0,0,0,1,.77,1.09,1.09,0,1,0,0-2.18,1,1,0,0,0-.22,0c.48-.8.94-1.5,1.34-2.07a1.07,1.07,0,0,0,1.06.94,1.09,1.09,0,1,0,0-2.18h0a8.69,8.69,0,0,1,.9-.83,7.32,7.32,0,0,1,.61-.42l.06,0A5.74,5.74,0,0,1,52.62,45h.15a7.2,7.2,0,0,1,5.44,3,70.5,70.5,0,0,1,4,6.14c.63,1,1.27,2.06,1.88,3a1.07,1.07,0,0,0-.65-.23A1.09,1.09,0,1,0,64.56,58a1,1,0,0,0,0-.23c.68,1.06,1.33,2,1.89,2.72a1.51,1.51,0,1,0,0,.06l.09.11a5,5,0,0,1,1.27,2.78,1.09,1.09,0,0,0-1.07,1.08,1.07,1.07,0,0,0,.27.7c-1,.93-3,1.48-5.55,1.48Z"/><path class="cls-2" d="M28.94,37.61A1.09,1.09,0,0,0,30,36.52v-4c0-.16,0-.32,0-.48l.34.34a1.09,1.09,0,0,0,1.54,0l.35-.35c0,.17,0,.33,0,.5v4a1.09,1.09,0,0,0,1.09,1.09h4a6.91,6.91,0,0,0,6.9-6.9v-4a1.09,1.09,0,0,0-1.09-1.09h-4a6.85,6.85,0,0,0-2.55.49,6.9,6.9,0,0,0-1.86-6.31L31.88,17a1.09,1.09,0,0,0-1.54,0l-2.81,2.82a6.89,6.89,0,0,0-1.86,6.31,6.84,6.84,0,0,0-2.53-.49h-4a1.09,1.09,0,0,0-1.09,1.09v4a6.91,6.91,0,0,0,6.9,6.9ZM42,27.81v2.89a4.73,4.73,0,0,1-4.72,4.72H34.38V32.54a4.73,4.73,0,0,1,4.72-4.72ZM29.07,21.36l2-2,2,2a4.73,4.73,0,0,1,0,6.68l-2,2-2-2A4.73,4.73,0,0,1,29.07,21.36Zm-8.83,9.35V27.82h2.89a4.73,4.73,0,0,1,4.72,4.72v2.89H25A4.73,4.73,0,0,1,20.24,30.71Z"/><path class="cls-3" d="M40.91,45a1.09,1.09,0,0,0-1.09-1.09H23.5a1.09,1.09,0,0,0,0,2.18H39.82A1.09,1.09,0,0,0,40.91,45Z"/><path class="cls-3" d="M26.77,40.62a1.09,1.09,0,1,0,0,2.18H37.65a1.09,1.09,0,1,0,0-2.18Z"/><path class="cls-3" d="M38.74,48.24a1.09,1.09,0,0,0-1.09-1.09H26.77a1.09,1.09,0,1,0,0,2.18H37.65A1.09,1.09,0,0,0,38.74,48.24Z"/></g></g></svg>