<?xml version="1.0" encoding="utf-8"?>
<!-- Generator: Adobe Illustrator 19.1.0, SVG Export Plug-In . SVG Version: 6.00 Build 0)  -->
<svg version="1.1" id="Layer_1" xmlns="http://www.w3.org/2000/svg" xmlns:xlink="http://www.w3.org/1999/xlink" x="0px" y="0px"
	 viewBox="0 0 44 60" style="enable-background:new 0 0 44 60;" xml:space="preserve">
<style type="text/css">
	.st0{clip-path:url(#SVGID_2_);fill:#444B54;}
	.st1{clip-path:url(#SVGID_2_);fill:#61B63D;}
	.st2{clip-path:url(#SVGID_2_);fill:#4995EC;}
</style>
<g>
	<defs>
		<rect id="SVGID_1_" width="44" height="60"/>
	</defs>
	<clipPath id="SVGID_2_">
		<use xlink:href="#SVGID_1_"  style="overflow:visible;"/>
	</clipPath>
	<path class="st0" d="M22,7.7c-8,0-14.4,6.5-14.4,14.4S14,36.5,22,36.5s14.4-6.5,14.4-14.4S29.9,7.7,22,7.7 M22,34.7
		c-7,0-12.6-5.7-12.6-12.6S15,9.5,22,9.5s12.6,5.7,12.6,12.6S29,34.7,22,34.7"/>
	<path class="st0" d="M43.6,23.6l-2.7-4.2l1.4-4.8c0.3-1.2-0.2-2.4-1.4-3l-4.5-2.1L35,4.9c-0.3-1.2-1.5-1.9-2.7-1.8l-4.9,0.7
		l-3.8-3.3c-0.9-0.8-2.3-0.8-3.3,0l-3.8,3.3l-4.9-0.7C10.5,3,9.3,3.7,8.9,4.9L7.5,9.7L3,11.7c-1.1,0.5-1.7,1.8-1.4,3l1.4,4.8
		l-2.7,4.2c-0.7,1-0.5,2.4,0.5,3.2l3.8,3.3v5c0,1.2,0.9,2.3,2.1,2.5l4.9,0.7l0.1,0.2v20.6c0,0.3,0.2,0.6,0.4,0.8
		c0.3,0.2,0.6,0.2,0.9,0.1l8.9-4.2l9.2,4.2c0.1,0.1,0.2,0.1,0.4,0.1c0.2,0,0.3,0,0.5-0.1c0.3-0.2,0.4-0.4,0.4-0.8V38.2l4.8-0.7
		c1.2-0.2,2.1-1.2,2.1-2.5v-5l3.8-3.3C44,26.1,44.2,24.7,43.6,23.6 M32.5,4.9c0.3,0,0.7,0.2,0.8,0.5l0.8,2.9
		c-1.3-1.2-2.9-2.2-4.5-2.9L32.5,4.9z M21.5,2c0.3-0.2,0.7-0.2,0.9,0l2.2,1.9c-0.9-0.1-1.8-0.2-2.7-0.2s-1.8,0.1-2.7,0.2L21.5,2z
		 M10.7,5.4c0.1-0.3,0.4-0.5,0.7-0.5c0,0,0.1,0,0.1,0l2.9,0.4c-1.7,0.8-3.2,1.7-4.5,2.9L10.7,5.4z M2,25.5c-0.3-0.2-0.3-0.6-0.1-0.9
		L3.6,22c0,0,0,0.1,0,0.1c0,1.9,0.3,3.7,0.8,5.5L2,25.5z M4.2,17.1l-0.9-2.9c-0.1-0.3,0.1-0.7,0.4-0.8l2.7-1.2
		C5.5,13.6,4.7,15.3,4.2,17.1 M7,35.8c-0.3,0-0.6-0.3-0.6-0.7v-3.2c1,1.6,2.3,3.1,3.8,4.3L7,35.8z M21.1,54.2l-7.5,3.5V41.2l0.8,1.2
		c0.5,0.7,1.3,1.1,2.1,1.1c0.3,0,0.7-0.1,1-0.2l3.6-1.7V54.2z M14.1,38.8c1.7,0.8,3.6,1.4,5.5,1.6l-2.9,1.3c-0.3,0.1-0.7,0-0.9-0.3
		L14.1,38.8z M30.6,57.7l-7.8-3.6V41.7l3.6,1.7c1.1,0.5,2.5,0.1,3.1-0.9l1-1.6V57.7z M24.3,40.4c2-0.2,3.8-0.8,5.5-1.6l-1.7,2.7
		c-0.2,0.3-0.6,0.4-0.9,0.3L24.3,40.4z M37,35.8l-3.2,0.5c1.5-1.2,2.7-2.7,3.8-4.3v3.2C37.6,35.4,37.3,35.7,37,35.8 M22,38.7
		c-9.2,0-16.6-7.5-16.6-16.6S12.8,5.5,22,5.5s16.6,7.5,16.6,16.6S31.2,38.7,22,38.7 M37.5,12.1l2.7,1.2c0.3,0.1,0.5,0.5,0.4,0.8
		l-0.9,2.9C39.2,15.3,38.4,13.6,37.5,12.1 M41.9,25.5l-2.4,2c0.5-1.7,0.8-3.6,0.8-5.5c0,0,0-0.1,0-0.1l1.7,2.6
		C42.3,24.9,42.2,25.3,41.9,25.5"/>
	<path class="st1" d="M28.6,18.8H15.5c-0.5,0-0.9,0.4-0.9,0.9s0.4,0.9,0.9,0.9h13.1c0.5,0,0.9-0.4,0.9-0.9S29.1,18.8,28.6,18.8"/>
	<path class="st2" d="M28.6,23H15.5c-0.5,0-0.9,0.4-0.9,0.9s0.4,0.9,0.9,0.9h13.1c0.5,0,0.9-0.4,0.9-0.9S29.1,23,28.6,23"/>
	<path class="st2" d="M26.3,26.6h-8.6c-0.5,0-0.9,0.4-0.9,0.9c0,0.5,0.4,0.9,0.9,0.9h8.6c0.5,0,0.9-0.4,0.9-0.9
		C27.2,27,26.8,26.6,26.3,26.6"/>
	<path class="st1" d="M26.3,15h-8.6c-0.5,0-0.9,0.4-0.9,0.9s0.4,0.9,0.9,0.9h8.6c0.5,0,0.9-0.4,0.9-0.9S26.8,15,26.3,15"/>
</g>
</svg>
