<?xml version="1.0" encoding="utf-8"?>
<!-- Generator: Adobe Illustrator 19.1.0, SVG Export Plug-In . SVG Version: 6.00 Build 0)  -->
<svg version="1.1" id="Layer_1" xmlns="http://www.w3.org/2000/svg" xmlns:xlink="http://www.w3.org/1999/xlink" x="0px" y="0px"
	 viewBox="0 0 56.4 60" style="enable-background:new 0 0 56.4 60;" xml:space="preserve">
<style type="text/css">
	.st0{clip-path:url(#SVGID_2_);fill:#61B63D;}
	.st1{clip-path:url(#SVGID_2_);fill:#444B54;}
	.st2{clip-path:url(#SVGID_2_);fill:#4995EC;}
</style>
<g>
	<defs>
		<rect id="SVGID_1_" width="56.4" height="60"/>
	</defs>
	<clipPath id="SVGID_2_">
		<use xlink:href="#SVGID_1_"  style="overflow:visible;"/>
	</clipPath>
	<path class="st0" d="M29.8,38c1-0.1,2-0.6,2.6-1.5l9.4-12.9c0.3-0.4,0.2-0.9-0.1-1.3c-0.3-0.3-0.9-0.4-1.3-0.1l-12.9,9.4
		c-0.8,0.6-1.4,1.6-1.5,2.6c-0.1,1,0.3,2.1,1,2.8c0.7,0.7,1.6,1,2.5,1C29.7,38,29.7,38,29.8,38 M28,34.3c0-0.5,0.3-0.9,0.6-1.1
		l7.9-5.7l-5.7,7.9c-0.3,0.4-0.7,0.6-1.1,0.6c-0.5,0-0.9-0.1-1.2-0.5C28.1,35.2,28,34.8,28,34.3"/>
	<path class="st1" d="M52.2,19.6C52.2,19.5,52.2,19.5,52.2,19.6c0-0.1-0.1-0.1-0.1-0.1c-1-1.7-2.2-3.3-3.6-4.8l2.1-2.1l1.4,1.4
		l4.2-4.2l-4.2-4.2l-4.2,4.2l1.4,1.4l-2.1,2.1c-1.5-1.4-3.1-2.6-4.8-3.6c0,0,0,0,0,0c0,0,0,0-0.1,0c-3.1-1.8-6.6-3-10.3-3.4V5h1.5
		C34.9,5,36,3.9,36,2.5C36,1.1,34.9,0,33.5,0h-9C23.1,0,22,1.1,22,2.5C22,3.9,23.1,5,24.5,5H26v1.2c-1.1,0.1-2.2,0.3-3.2,0.5
		c-0.5,0.1-0.9,0.7-0.8,1.2c0.1,0.5,0.7,0.9,1.2,0.8c0.9-0.2,1.8-0.4,2.8-0.5l1.1-0.1c0.3,0,0.6,0,0.9-0.1v2c0,0.6,0.4,1,1,1
		c0.6,0,1-0.4,1-1V8c3.8,0.2,7.3,1.2,10.5,2.8l-1,1.7c-0.3,0.5-0.1,1.1,0.4,1.4c0.2,0.1,0.3,0.1,0.5,0.1c0.3,0,0.7-0.2,0.9-0.5
		l1-1.7c3.1,2,5.8,4.6,7.8,7.8l-1.7,1c-0.5,0.3-0.6,0.9-0.4,1.4c0.2,0.3,0.5,0.5,0.9,0.5c0.2,0,0.3,0,0.5-0.1l1.7-1
		c1.7,3.2,2.7,6.8,2.8,10.6h-2c-0.6,0-1,0.4-1,1s0.4,1,1,1h2c-0.2,3.8-1.2,7.4-2.8,10.6l-1.7-1c-0.5-0.3-1.1-0.1-1.4,0.4
		c-0.3,0.5-0.1,1.1,0.4,1.4l1.7,1c-2,3.1-4.6,5.8-7.8,7.8l-1-1.7c-0.3-0.5-0.9-0.6-1.4-0.4c-0.5,0.3-0.6,0.9-0.4,1.4l1,1.7
		c-3.2,1.7-6.7,2.7-10.5,2.8v-2c0-0.6-0.4-1-1-1s-1,0.4-1,1v2c-1.6-0.1-3.2-0.3-4.8-0.6c-0.5-0.1-1.1,0.2-1.2,0.8
		c-0.1,0.5,0.2,1.1,0.8,1.2c2,0.5,4,0.7,6.1,0.7c0,0,0.1,0,0.1,0c0,0,0,0,0,0c0,0,0,0,0,0c4.8,0,9.3-1.3,13.2-3.6c0,0,0.1,0,0.1,0
		c0,0,0,0,0,0c4-2.4,7.4-5.7,9.8-9.8c0,0,0,0,0.1-0.1c0,0,0,0,0-0.1c2.3-4,3.6-8.5,3.6-13.4S54.5,23.5,52.2,19.6 M52.2,8.3l1.4,1.4
		l-1.4,1.4l-1.4-1.4L52.2,8.3z M28,6V3h-3.5C24.2,3,24,2.8,24,2.5C24,2.2,24.2,2,24.5,2h9C33.8,2,34,2.2,34,2.5
		C34,2.8,33.8,3,33.5,3H30v3c-0.3,0-0.7,0-1,0c0,0-0.1,0-0.1,0c0,0,0,0-0.1,0c-0.2,0-0.3,0-0.5,0C28.2,6,28.1,6,28,6"/>
	<path class="st2" d="M20,14h-5c-0.6,0-1,0.4-1,1c0,0.6,0.4,1,1,1h5c0.6,0,1-0.4,1-1C21,14.4,20.6,14,20,14"/>
	<path class="st2" d="M20,21H10c-0.6,0-1,0.4-1,1c0,0.6,0.4,1,1,1h10c0.6,0,1-0.4,1-1C21,21.4,20.6,21,20,21"/>
	<path class="st2" d="M20,28H5c-0.6,0-1,0.4-1,1c0,0.6,0.4,1,1,1h15c0.6,0,1-0.4,1-1C21,28.4,20.6,28,20,28"/>
	<path class="st2" d="M20,35H1c-0.6,0-1,0.4-1,1s0.4,1,1,1h19c0.6,0,1-0.4,1-1S20.6,35,20,35"/>
	<path class="st2" d="M20,42H7c-0.6,0-1,0.4-1,1s0.4,1,1,1h13c0.6,0,1-0.4,1-1S20.6,42,20,42"/>
	<path class="st2" d="M20,49h-7c-0.6,0-1,0.4-1,1s0.4,1,1,1h7c0.6,0,1-0.4,1-1S20.6,49,20,49"/>
</g>
</svg>
