<?xml version="1.0" encoding="utf-8"?>
<!-- Generator: Adobe Illustrator 19.1.0, SVG Export Plug-In . SVG Version: 6.00 Build 0)  -->
<svg version="1.1" id="Layer_1" xmlns="http://www.w3.org/2000/svg" xmlns:xlink="http://www.w3.org/1999/xlink" x="0px" y="0px"
	 viewBox="0 0 48.4 59.9" style="enable-background:new 0 0 48.4 59.9;" xml:space="preserve">
<style type="text/css">
	.st0{clip-path:url(#SVGID_2_);fill:#444B54;}
	.st1{clip-path:url(#SVGID_2_);fill:#4995EC;}
	.st2{clip-path:url(#SVGID_2_);fill:#61B63D;}
</style>
<g>
	<defs>
		<rect id="SVGID_1_" y="0" width="48.4" height="59.9"/>
	</defs>
	<clipPath id="SVGID_2_">
		<use xlink:href="#SVGID_1_"  style="overflow:visible;"/>
	</clipPath>
	<path class="st0" d="M36.2,0c0.1,1.3,0.1,2.6,0.4,3.8c1.2,4.8,5.4,8.1,10.3,8.3c0.4,0,0.9,0,1.4,0c0,0.2,0,0.3,0,0.5
		c0,4.9,0.1,9.8,0,14.7C48,37.5,43.9,46.1,36.3,53c-3.4,3.1-7.4,5.4-11.8,6.9c-0.2,0.1-0.5,0.1-0.7,0C16.7,57.3,11,53.1,6.6,47
		c-3-4.2-5-9-6-14.1c-0.6-3-0.6-5.9-0.6-8.9c0-3.8,0-7.5,0-11.3c0-0.2,0-0.3,0-0.5C0.8,12.1,1.6,12,2.4,12C7.5,11.4,11.7,7,12,1.9
		c0-0.6,0.1-1.2,0.1-1.9H36.2z M2,14.1c0,1.5,0,3,0,4.6c0.1,3.8,0,7.7,0.3,11.5c0.3,4.8,2,9.3,4.5,13.4c4,6.7,9.7,11.4,17,14.2
		c0.2,0.1,0.5,0.1,0.7,0c4.8-1.8,9-4.5,12.6-8.3c6-6.4,9.1-13.9,9.3-22.7c0.1-4.1,0-8.2,0-12.4c0-0.1,0-0.3,0-0.3
		c-7-1.1-10.9-5.2-12-12.1H14.1C13,9,9,13,2,14.1"/>
	<path class="st0" d="M24.2,4c2.6,0,5.2,0,7.8,0c0.4,0,0.6,0.1,0.8,0.6c1.6,5.8,5.3,9.5,11.1,11.1c0.3,0.1,0.5,0.1,0.5,0.5
		c0,4,0.1,8.1-0.1,12.1c-0.3,7.1-2.9,13.4-7.6,18.7c-3.3,3.9-7.4,6.7-12.1,8.6c-0.2,0.1-0.5,0.1-0.8,0C15.5,52.1,9.6,46.3,6.2,38
		C4.7,34.2,4,30.3,4,26.3c0-3.3,0-6.6,0-10c0-0.4,0.1-0.6,0.5-0.7c5.8-1.6,9.5-5.3,11.1-11.1C15.8,4.1,15.9,4,16.4,4
		C19,4,21.6,4,24.2,4 M24.2,6C22.1,6,20,6,18,6c-0.5,0-0.7,0.1-0.8,0.6c-0.5,1.6-1.3,3.1-2.3,4.4c-2.1,2.9-4.9,5-8.3,6.2
		C6.3,17.3,6,17.3,6,17.7c0.1,4,0,8,0.3,12.1c0.3,4.1,1.6,7.8,3.7,11.4c3.3,5.6,7.9,9.7,13.8,12.3c0.2,0.1,0.6,0.1,0.8,0
		c3.8-1.6,7.1-3.9,9.8-6.9c4.7-5.1,7.4-11.2,7.8-18.1c0.2-3.5,0.1-7.1,0.1-10.6c0-0.4-0.2-0.5-0.5-0.6c-5.2-1.9-8.8-5.4-10.7-10.7
		C31,6.1,30.8,6,30.4,6C28.4,6,26.3,6,24.2,6"/>
	<path class="st1" d="M24.2,38.9c-5.7,0-10.4-4.7-10.3-10.4c0-5.8,4.7-10.4,10.4-10.3c5.7,0,10.3,4.7,10.3,10.4
		C34.5,34.2,29.9,38.9,24.2,38.9 M24.1,36.8c4.5,0.1,8.3-3.6,8.4-8.2c0.1-4.5-3.6-8.4-8-8.5c-4.8-0.1-8.6,3.5-8.7,8.2
		C15.7,33,19.4,36.8,24.1,36.8"/>
	<path class="st2" d="M28.4,24.7c0.5,0.5,0.9,1,1.3,1.3c-2.3,2.3-4.6,4.6-6.8,6.8c-1.4-1.4-2.9-2.9-4.4-4.4c0.4-0.4,0.8-0.8,1.3-1.3
		c1,1,2,2,3,3.1C24.8,28.3,26.6,26.5,28.4,24.7"/>
</g>
</svg>
