<?xml version="1.0" encoding="utf-8"?>
<!-- Generator: Adobe Illustrator 19.1.0, SVG Export Plug-In . SVG Version: 6.00 Build 0)  -->
<svg version="1.1" id="Layer_1" xmlns="http://www.w3.org/2000/svg" xmlns:xlink="http://www.w3.org/1999/xlink" x="0px" y="0px"
	 viewBox="0 0 58 57" style="enable-background:new 0 0 58 57;" xml:space="preserve">
<style type="text/css">
	.st0{clip-path:url(#SVGID_2_);fill:#444B54;}
	.st1{clip-path:url(#SVGID_2_);fill:#61B63D;}
	.st2{clip-path:url(#SVGID_2_);fill:#4995EC;}
</style>
<g>
	<defs>
		<rect id="SVGID_1_" width="58" height="57"/>
	</defs>
	<clipPath id="SVGID_2_">
		<use xlink:href="#SVGID_1_"  style="overflow:visible;"/>
	</clipPath>
	<path class="st0" d="M42.9,4c-0.5-2.3-2.5-4-4.9-4c-0.6,0-1,0.4-1,1s0.4,1,1,1c1.7,0,3,1.3,3,3s-1.3,3-3,3c-0.6,0-1,0.4-1,1
		s0.4,1,1,1c2.4,0,4.4-1.7,4.9-4H56v9H2V6h14h3c0.6,0,1-0.4,1-1s-0.4-1-1-1h-1.8c0.4-1.2,1.5-2,2.8-2c1.7,0,3,1.3,3,3s-1.3,3-3,3
		c-0.6,0-1,0.4-1,1s0.4,1,1,1c2.8,0,5-2.2,5-5s-2.2-5-5-5c-2.4,0-4.4,1.7-4.9,4H0v13v40h58V17V4H42.9z M56,55H2V17h54V55z"/>
	<path class="st0" d="M26,2c1.7,0,3,1.3,3,3c0,1.7-1.3,3-3,3c-0.6,0-1,0.4-1,1c0,0.6,0.4,1,1,1c2.8,0,5-2.2,5-5s-2.2-5-5-5
		c-0.6,0-1,0.4-1,1C25,1.6,25.4,2,26,2"/>
	<path class="st0" d="M32,2c1.7,0,3,1.3,3,3c0,1.7-1.3,3-3,3c-0.6,0-1,0.4-1,1c0,0.6,0.4,1,1,1c2.8,0,5-2.2,5-5s-2.2-5-5-5
		c-0.6,0-1,0.4-1,1C31,1.6,31.4,2,32,2"/>
	<path class="st1" d="M13,33c3.3,0,6-2.7,6-6s-2.7-6-6-6s-6,2.7-6,6S9.7,33,13,33 M13,23c2.2,0,4,1.8,4,4c0,2.2-1.8,4-4,4
		s-4-1.8-4-4C9,24.8,10.8,23,13,23"/>
	<path class="st0" d="M29,33c3.3,0,6-2.7,6-6s-2.7-6-6-6s-6,2.7-6,6S25.7,33,29,33 M29,23c2.2,0,4,1.8,4,4c0,2.2-1.8,4-4,4
		s-4-1.8-4-4C25,24.8,26.8,23,29,23"/>
	<path class="st0" d="M45,33c3.3,0,6-2.7,6-6s-2.7-6-6-6c-3.3,0-6,2.7-6,6S41.7,33,45,33 M45,23c2.2,0,4,1.8,4,4c0,2.2-1.8,4-4,4
		c-2.2,0-4-1.8-4-4C41,24.8,42.8,23,45,23"/>
	<path class="st0" d="M13,49c3.3,0,6-2.7,6-6s-2.7-6-6-6s-6,2.7-6,6S9.7,49,13,49 M13,39c2.2,0,4,1.8,4,4s-1.8,4-4,4s-4-1.8-4-4
		S10.8,39,13,39"/>
	<path class="st0" d="M29,49c3.3,0,6-2.7,6-6s-2.7-6-6-6s-6,2.7-6,6S25.7,49,29,49 M29,39c2.2,0,4,1.8,4,4s-1.8,4-4,4s-4-1.8-4-4
		S26.8,39,29,39"/>
	<path class="st2" d="M45,47c0.6,0,1,0.4,1,1c0,0.6-0.4,1-1,1c-0.6,0-1-0.4-1-1C44,47.4,44.4,47,45,47"/>
	<path class="st2" d="M41,46c0.6,0,1,0.4,1,1c0,0.6-0.4,1-1,1c-0.6,0-1-0.4-1-1C40,46.4,40.4,46,41,46"/>
	<path class="st2" d="M49,46c0.6,0,1,0.4,1,1c0,0.6-0.4,1-1,1c-0.6,0-1-0.4-1-1C48,46.4,48.4,46,49,46"/>
	<path class="st2" d="M49,38c0.6,0,1,0.4,1,1c0,0.6-0.4,1-1,1c-0.6,0-1-0.4-1-1C48,38.4,48.4,38,49,38"/>
	<path class="st2" d="M41,38c0.6,0,1,0.4,1,1c0,0.6-0.4,1-1,1c-0.6,0-1-0.4-1-1C40,38.4,40.4,38,41,38"/>
	<path class="st2" d="M43,40c0.6,0,1,0.4,1,1c0,0.6-0.4,1-1,1c-0.6,0-1-0.4-1-1C42,40.4,42.4,40,43,40"/>
	<path class="st2" d="M47,40c0.6,0,1,0.4,1,1c0,0.6-0.4,1-1,1c-0.6,0-1-0.4-1-1C46,40.4,46.4,40,47,40"/>
	<path class="st2" d="M45,42c0.6,0,1,0.4,1,1c0,0.6-0.4,1-1,1c-0.6,0-1-0.4-1-1C44,42.4,44.4,42,45,42"/>
	<path class="st2" d="M43,44c0.6,0,1,0.4,1,1c0,0.6-0.4,1-1,1c-0.6,0-1-0.4-1-1C42,44.4,42.4,44,43,44"/>
	<path class="st2" d="M47,44c0.6,0,1,0.4,1,1c0,0.6-0.4,1-1,1c-0.6,0-1-0.4-1-1C46,44.4,46.4,44,47,44"/>
	<path class="st2" d="M50,42c0.6,0,1,0.4,1,1c0,0.6-0.4,1-1,1c-0.6,0-1-0.4-1-1C49,42.4,49.4,42,50,42"/>
	<path class="st2" d="M40,42c0.6,0,1,0.4,1,1c0,0.6-0.4,1-1,1c-0.6,0-1-0.4-1-1C39,42.4,39.4,42,40,42"/>
	<path class="st2" d="M45,37c0.6,0,1,0.4,1,1c0,0.6-0.4,1-1,1c-0.6,0-1-0.4-1-1C44,37.4,44.4,37,45,37"/>
</g>
</svg>
