<svg xmlns="http://www.w3.org/2000/svg" xmlns:xlink="http://www.w3.org/1999/xlink" preserveAspectRatio="xMidYMid" width="70.5" height="54.28" viewBox="0 0 70.5 54.28">
  <defs>
    <style>
      .cls-1 {
        fill: #fff;
        fill-rule: evenodd;
      }
    </style>
  </defs>
  <path d="M69.474,54.272 L50.893,54.272 L50.710,54.272 L48.502,54.272 L22.011,54.272 L19.803,54.272 L19.620,54.272 L1.039,54.272 C0.468,54.272 0.004,53.805 0.004,53.231 C0.004,52.656 0.468,52.190 1.039,52.190 L15.348,52.190 C14.364,50.939 13.969,49.333 14.266,47.763 L17.198,32.272 C17.567,30.323 18.959,28.723 20.829,28.096 L28.307,25.588 C28.438,25.544 28.572,25.529 28.703,25.537 L28.703,23.397 C27.332,21.780 26.495,19.659 26.495,17.364 L26.495,15.229 C25.213,14.793 24.288,13.572 24.288,12.138 L24.288,6.585 C24.288,4.481 25.770,2.720 27.738,2.305 C28.143,0.966 29.381,-0.010 30.841,-0.010 L39.672,-0.010 C43.285,-0.010 46.225,2.948 46.225,6.585 L46.225,12.138 C46.225,13.572 45.300,14.793 44.018,15.229 L44.018,17.690 C44.018,19.873 43.237,21.925 41.810,23.538 L41.810,25.537 C41.941,25.529 42.075,25.544 42.207,25.588 L49.684,28.096 C51.555,28.723 52.946,30.323 53.314,32.272 L56.247,47.762 C56.544,49.333 56.149,50.939 55.165,52.190 L69.474,52.190 C70.045,52.190 70.509,52.656 70.509,53.231 C70.509,53.805 70.045,54.272 69.474,54.272 ZM21.942,52.120 C21.942,52.159 21.973,52.190 22.011,52.190 L48.502,52.190 C48.540,52.190 48.571,52.159 48.571,52.120 L48.571,37.682 C48.571,37.644 48.540,37.612 48.502,37.612 L22.011,37.612 C21.973,37.612 21.942,37.644 21.942,37.682 L21.942,52.120 ZM44.018,11.027 L44.018,12.691 C44.106,12.526 44.156,12.338 44.156,12.138 L44.156,6.585 C44.156,4.096 42.144,2.073 39.672,2.073 L30.841,2.073 C30.195,2.073 29.669,2.602 29.669,3.253 C29.669,3.828 29.205,4.293 28.634,4.293 C27.378,4.293 26.357,5.321 26.357,6.585 L26.357,12.138 C26.357,12.338 26.408,12.526 26.495,12.691 L26.495,11.027 C26.495,9.228 27.950,7.764 29.738,7.764 L40.775,7.764 C42.563,7.764 44.018,9.228 44.018,11.027 ZM41.948,17.690 L41.948,11.027 C41.948,10.376 41.422,9.847 40.775,9.847 L29.738,9.847 C29.091,9.847 28.565,10.376 28.565,11.027 L28.565,17.364 C28.565,21.147 31.474,24.313 35.050,24.421 C36.876,24.476 38.607,23.802 39.916,22.523 C41.227,21.244 41.948,19.528 41.948,17.690 ZM29.738,27.617 C29.723,27.617 29.709,27.615 29.695,27.614 C29.964,30.183 32.355,32.198 35.256,32.198 C38.158,32.198 40.549,30.183 40.818,27.614 C40.804,27.615 40.790,27.617 40.775,27.617 C40.204,27.617 39.741,27.151 39.741,26.576 L39.741,25.268 C38.397,26.076 36.862,26.506 35.260,26.506 C35.169,26.506 35.079,26.504 34.988,26.502 C33.454,26.455 32.016,25.983 30.772,25.199 L30.772,26.576 C30.772,27.151 30.309,27.617 29.738,27.617 ZM54.214,48.152 L51.281,32.662 C51.053,31.453 50.190,30.461 49.030,30.071 L42.855,28.001 C42.394,31.534 39.164,34.281 35.256,34.281 C31.349,34.281 28.119,31.534 27.658,28.001 L21.483,30.072 C20.323,30.461 19.460,31.453 19.232,32.662 L16.299,48.152 C16.110,49.151 16.371,50.173 17.016,50.956 C17.660,51.740 18.609,52.190 19.620,52.190 L19.803,52.190 L19.876,52.190 C19.875,52.167 19.872,52.144 19.872,52.120 L19.872,37.682 C19.872,36.495 20.832,35.530 22.011,35.530 L48.502,35.530 C49.681,35.530 50.641,36.495 50.641,37.682 L50.641,52.120 C50.641,52.144 50.638,52.167 50.637,52.190 L50.710,52.190 L50.893,52.190 C51.904,52.190 52.853,51.740 53.497,50.956 C54.142,50.173 54.403,49.151 54.214,48.152 ZM35.256,42.194 C37.044,42.194 38.499,43.657 38.499,45.456 C38.499,47.255 37.044,48.719 35.256,48.719 C33.469,48.719 32.014,47.255 32.014,45.456 C32.014,43.657 33.469,42.194 35.256,42.194 ZM35.256,46.637 C35.903,46.637 36.429,46.107 36.429,45.456 C36.429,44.806 35.903,44.276 35.256,44.276 C34.610,44.276 34.084,44.806 34.084,45.456 C34.084,46.107 34.610,46.637 35.256,46.637 Z" class="cls-1"/>
</svg>
