<?xml version="1.0" encoding="utf-8"?>
<!-- Generator: Adobe Illustrator 19.1.0, SVG Export Plug-In . SVG Version: 6.00 Build 0)  -->
<svg version="1.1" id="Capa_1" xmlns="http://www.w3.org/2000/svg" xmlns:xlink="http://www.w3.org/1999/xlink" x="0px" y="0px"
	 viewBox="-743 1245 512 512" style="enable-background:new -743 1245 512 512;" xml:space="preserve">
<style type="text/css">
	.st0{fill:#444B54;}
	.st1{fill:#4995EC;}
	.st2{fill:#61B63D;}
</style>
<g>
	<g>
		<path class="st0" d="M-286.6,1579.4c-0.5-0.8-1-1.6-1.5-2.3c-5.2-7.2-12.9-12-21.6-13.4c-8.7-1.4-17.6,0.6-24.8,5.8l-95.4,68.1
			h-99.7c-4.7,0-8.5-3.8-8.5-8.5s3.8-8.5,8.5-8.5h55.5c16.5,0,29.9-13.4,29.9-29.9c0-0.1,0-0.9,0-1c-0.5-16.5-14.4-29.3-30.5-28.9
			h-111c-9.8,0.1-19.4,3.6-27,9.9l-41.7,34.7c-1.9,1.6-3.1,4-3.1,6.6v102.4c0,4.7,3.8,8.5,8.5,8.5h211.7c13.9,0,27.4-4.9,38-13.7
			l103.4-85.5C-281.9,1613.6-277.8,1594.2-286.6,1579.4z M-306.3,1610.1l-103.9,85.9c-7.6,6.3-17.3,9.8-27.2,9.8h-203.2v-89.9
			l38.7-32.2c4.5-3.8,10.3-5.9,16.1-5.9l111.2,0c7.1,0,13,5.3,13.2,12.8c0,7.1-5.7,12.8-12.8,12.8h-55.5
			c-14.1,0-25.6,11.5-25.6,25.6s11.5,25.6,25.6,25.6h102.4c1.8,0,3.5-0.6,5-1.6l97.6-69.7c3.5-2.5,7.8-3.5,12.1-2.8
			c4.3,0.7,8,3,10.6,6.6c0.3,0.4,0.5,0.7,0.7,1.1C-297,1595.4-299,1604.9-306.3,1610.1z"/>
	</g>
</g>
<g>
	<g>
		<path class="st0" d="M-649.4,1594.9H-743v17.1h85.1v128H-743v17.1h93.6c4.7,0,8.5-3.8,8.5-8.5v-145.1
			C-640.9,1598.7-644.7,1594.9-649.4,1594.9z"/>
	</g>
</g>
<g>
	<g>
		<path class="st0" d="M-700.3,1671.7c-14.1,0-25.6,11.5-25.6,25.6s11.5,25.6,25.6,25.6s25.6-11.5,25.6-25.6
			C-674.7,1683.2-686.2,1671.7-700.3,1671.7z M-700.3,1705.8c-4.7,0-8.5-3.8-8.5-8.5c0-4.7,3.8-8.5,8.5-8.5c4.7,0,8.5,3.8,8.5,8.5
			C-691.8,1702-695.6,1705.8-700.3,1705.8z"/>
	</g>
</g>
<g>
	<g>
		<path class="st0" d="M-239.5,1509.5h-494.9c-4.7,0-8.5,3.8-8.5,8.5c0,32.9,26.8,59.7,59.7,59.7h392.5c32.9,0,59.7-26.8,59.7-59.7
			C-231,1513.3-234.8,1509.5-239.5,1509.5z M-290.7,1560.7h-392.5c-20.6,0-37.8-14.7-41.8-34.1h476.1
			C-252.9,1546-270.1,1560.7-290.7,1560.7z"/>
	</g>
</g>
<g>
	<g>
		<path class="st1" d="M-487,1287.7c-122.3,0-221.9,99.5-221.9,221.9v8.5c0,4.7,3.8,8.5,8.5,8.5h426.7c4.7,0,8.5-3.8,8.5-8.5v-8.5
			C-265.1,1387.2-364.7,1287.7-487,1287.7z M-691.8,1509.5c0-112.9,91.9-204.8,204.8-204.8s204.8,91.9,204.8,204.8H-691.8z"/>
	</g>
</g>
<g>
	<g>
		<path class="st2" d="M-627.4,1385c-6,6.7-11.5,13.9-16.4,21.3l14.2,9.4c4.5-6.8,9.5-13.3,15-19.4L-627.4,1385z"/>
	</g>
</g>
<g>
	<g>
		<path class="st2" d="M-487,1321.8c-47.9,0-93.6,18.1-128.5,51l11.7,12.4c31.7-29.8,73.2-46.3,116.8-46.3L-487,1321.8z"/>
	</g>
</g>
<g>
	<g>
		<rect x="-512.6" y="1245" class="st1" width="51.2" height="17.1"/>
	</g>
</g>
<g>
	<g>
		<rect x="-495.5" y="1253.5" class="st1" width="17.1" height="42.7"/>
	</g>
</g>
<g>
	<g>
		<path class="st0" d="M-1198,1193.8c-141.2,0-256,114.8-256,256s114.8,256,256,256s256-114.8,256-256S-1056.8,1193.8-1198,1193.8z
			 M-1198,1688.7c-131.7,0-238.9-107.2-238.9-238.9c0-131.7,107.2-238.9,238.9-238.9s238.9,107.2,238.9,238.9
			C-959.1,1581.5-1066.3,1688.7-1198,1688.7z"/>
	</g>
</g>
<g>
	<g>
		<path class="st1" d="M-1077.6,1416.7l-1.4-3.9c-1.6-4.4-6.5-6.8-10.9-5.2c-4.4,1.6-6.8,6.4-5.2,10.9l1.5,4
			c3.2,9,6.6,18.3,6.6,27.3s-3.4,18.3-6.6,27.2l-1.5,4c-1.6,4.4,0.8,9.3,5.2,10.9c0.9,0.3,1.9,0.5,2.8,0.5c3.5,0,6.8-2.2,8-5.7
			l1.4-3.9c3.6-9.9,7.6-21.1,7.6-33.1S-1074,1426.6-1077.6,1416.7z"/>
	</g>
</g>
<g>
	<g>
		<path class="st2" d="M-1180.9,1355.9h-59.7c-4.7,0-8.5,3.8-8.5,8.5v85.3c0,4.7,3.8,8.5,8.5,8.5h59.7c28.2,0,51.2-23,51.2-51.2
			C-1129.7,1378.9-1152.7,1355.9-1180.9,1355.9z M-1180.9,1441.3h-51.2V1373h51.2c18.8,0,34.1,15.3,34.1,34.1
			C-1146.8,1426-1162.1,1441.3-1180.9,1441.3z"/>
	</g>
</g>
</svg>
