<svg xmlns="http://www.w3.org/2000/svg" xmlns:xlink="http://www.w3.org/1999/xlink" viewBox="0 0 127.51 84.84"><defs><style>.cls-1{isolation:isolate;}.cls-2{fill:#30a3ca;}.cls-3{fill:url(#linear-gradient);}.cls-18,.cls-4,.cls-9{opacity:0.7;}.cls-4{fill:url(#radial-gradient);}.cls-5{opacity:0.3;fill:url(#linear-gradient-2);}.cls-16,.cls-17,.cls-5{mix-blend-mode:multiply;}.cls-6{fill:#444;}.cls-7{fill:#b92025;}.cls-8{fill:#db1f27;}.cls-9{fill:url(#radial-gradient-2);}.cls-10{fill:#9eb33b;}.cls-11{fill:#899638;}.cls-12{fill:#b0ca35;}.cls-13{fill:#d7b029;}.cls-14{fill:#00647b;}.cls-15{fill:#fccf07;}.cls-16,.cls-17{opacity:0.2;}.cls-16{fill:url(#linear-gradient-3);}.cls-17{fill:url(#linear-gradient-4);}.cls-18{fill:url(#radial-gradient-3);}</style><linearGradient id="linear-gradient" x1="63.8" y1="74.13" x2="63.8" y2="0.33" gradientUnits="userSpaceOnUse"><stop offset="0" stop-color="#69a9f5"/><stop offset="0.32" stop-color="#64b1ed"/><stop offset="0.83" stop-color="#56c8d8"/><stop offset="1" stop-color="#51d1d0"/></linearGradient><radialGradient id="radial-gradient" cx="37.71" cy="69.04" r="73.69" gradientUnits="userSpaceOnUse"><stop offset="0" stop-color="#fff"/><stop offset="0.03" stop-color="#fff" stop-opacity="0.94"/><stop offset="0.14" stop-color="#fff" stop-opacity="0.73"/><stop offset="0.26" stop-color="#fff" stop-opacity="0.53"/><stop offset="0.37" stop-color="#fff" stop-opacity="0.37"/><stop offset="0.49" stop-color="#fff" stop-opacity="0.24"/><stop offset="0.61" stop-color="#fff" stop-opacity="0.13"/><stop offset="0.74" stop-color="#fff" stop-opacity="0.06"/><stop offset="0.86" stop-color="#fff" stop-opacity="0.01"/><stop offset="1" stop-color="#fff" stop-opacity="0"/></radialGradient><linearGradient id="linear-gradient-2" x1="63.73" y1="38.2" x2="119.97" y2="38.2" gradientUnits="userSpaceOnUse"><stop offset="0" stop-color="#231f20"/><stop offset="0.61" stop-color="#231f20" stop-opacity="0.29"/><stop offset="1" stop-color="#231f20" stop-opacity="0"/></linearGradient><radialGradient id="radial-gradient-2" cx="23.35" cy="21.93" r="22.53" xlink:href="#radial-gradient"/><linearGradient id="linear-gradient-3" x1="62.63" y1="19.11" x2="93.23" y2="42.52" gradientUnits="userSpaceOnUse"><stop offset="0" stop-color="#231f20" stop-opacity="0"/><stop offset="0.09" stop-color="#231f20" stop-opacity="0.22"/><stop offset="0.33" stop-color="#231f20" stop-opacity="0.66"/><stop offset="0.6" stop-color="#231f20" stop-opacity="0.92"/><stop offset="1" stop-color="#231f20"/></linearGradient><linearGradient id="linear-gradient-4" x1="63.13" y1="22.11" x2="62.2" y2="48.33" xlink:href="#linear-gradient-3"/><radialGradient id="radial-gradient-3" cx="78.36" cy="9.4" r="11.97" xlink:href="#radial-gradient"/></defs><title>Asset 7</title><g class="cls-1"><g id="Layer_2" data-name="Layer 2"><g id="Layer_1-2" data-name="Layer 1"><path class="cls-2" d="M127.49,38.12c0,.16,0,.32,0,.48s0,.28,0,.42,0,.32,0,.48,0,.28,0,.41,0,.32-.07.49,0,.27-.06.41-.06.33-.09.49,0,.27-.08.4-.07.32-.11.48-.06.27-.09.4-.09.33-.13.49l-.11.4c0,.17-.1.33-.15.5l-.12.38-.18.52-.13.36c-.09.25-.2.5-.3.75l-.05.14q-.19.44-.39.88l-.13.27-.3.61-.18.34-.29.54-.18.31-.36.6-.22.35-.36.55-.25.36-.38.54-.26.36-.42.56-.25.32q-.39.49-.8,1l-.14.16-.72.81-.27.29-.7.72-.24.25q-.47.47-1,.93l-.37.33-.49.44-.4.34-.5.42-.43.35-.51.41-.45.35-.52.4-.47.34-.54.39-.49.34-.56.38-.51.34-.58.37-.53.33-.59.37-1,.57c-.69.4-1.4.79-2.11,1.17l-.57.3q-1,.5-1.95,1l-.26.13q-1.1.52-2.24,1l-.59.25q-1,.41-1.95.79l-.43.17q-1.16.44-2.35.85l-.58.19-1.62.52-1.55.47-1.32.38-1.59.42-1.34.34-1.62.37-1.35.3-1.67.33-1.48.28-.68.11L79.46,73l-.39.06q-1.31.18-2.64.33l-.67.07c-.84.09-1.69.18-2.54.25h-.1c-.91.08-1.82.14-2.73.19l-.47,0c-.83,0-1.66.08-2.49.1l-1.86,0-1.3,0-2,0-1.17,0L59.28,74,58,74l-2-.13-1.13-.08c-.79-.07-1.58-.15-2.36-.23l-.7-.07q-1.53-.17-3-.39L48.34,73c-.87-.13-1.74-.26-2.61-.41l-1.07-.2-2-.38q-1.23-.25-2.44-.53l-.48-.11q-1.26-.3-2.5-.63l-.33-.09q-1.09-.3-2.17-.62l-.61-.18q-1.23-.38-2.43-.78l-.46-.16-2-.71-.67-.25-1.55-.62L26,66.87l-1.48-.66-1-.44C23,65.51,22.51,65.24,22,65l-.79-.4Q20,64,18.9,63.32a55.39,55.39,0,0,1-5.43-3.56q-1-.74-1.91-1.5Q10.18,57.12,9,55.93q-.81-.79-1.54-1.6A33.46,33.46,0,0,1,4.78,51q-.59-.84-1.1-1.69a25.17,25.17,0,0,1-2.93-7q-.22-.88-.36-1.77-.07-.44-.13-.89A21.59,21.59,0,0,1,.09,37L0,47.76c0,9.5,6.25,19,18.81,26.28q1.13.65,2.3,1.26l.79.39c.53.27,1.05.53,1.59.79l1,.44,1.48.66L27,78l1,.42.53.2.66.25,2,.72.46.16q1.21.41,2.43.79l.61.18,1.06.31,1.12.31.33.09q1.24.33,2.5.63l.48.11c.74.17,1.48.34,2.22.49l.22,0,2,.37,1.08.2c.86.15,1.72.28,2.59.41l.47.07h0q1.51.21,3,.39l.73.07c.78.08,1.55.16,2.33.23h.06l1.07.07,2,.13,1.28.05,1.82.07h1.18l2,0,1.31,0,1.86,0h.35l2.15-.1.46,0c.91-.05,1.83-.11,2.73-.19h.1l1.62-.15.93-.1.67-.07Q77.67,84,79,83.8l.38-.06,2.3-.36.67-.11.54-.09.95-.19,1.66-.33,1.35-.3L88.46,82l1.34-.34,1.58-.42,1.32-.38,1.55-.47.68-.21.95-.32.57-.19q1.19-.41,2.36-.86l.43-.17q1-.38,2-.79l.59-.25c.76-.33,1.5-.66,2.24-1l.26-.13q1-.47,1.95-1l.57-.3c.71-.38,1.42-.76,2.11-1.17l.78-.46.17-.11.59-.37.53-.33.57-.37.51-.34.55-.38.49-.34.54-.39.47-.34.52-.4.45-.35.5-.41.43-.35.49-.42.41-.35.48-.43.34-.31,0,0q.5-.46,1-.93l.25-.25.7-.72.27-.29.72-.81.14-.16q.41-.48.8-1l.07-.08.18-.24.42-.56.26-.36.38-.54.24-.36.36-.55.22-.35.35-.6.15-.25,0-.07.29-.53.18-.34.3-.61.13-.27q.21-.44.39-.88l.06-.14c.1-.25.2-.5.3-.75v0l.12-.33.18-.51.12-.39c.05-.17.11-.33.15-.5l.11-.4c0-.16.09-.32.13-.49s.06-.27.09-.41.07-.32.11-.48l0-.09c0-.11,0-.21.06-.32s.06-.33.09-.49,0-.27.06-.41,0-.32.07-.48,0-.28,0-.42,0-.32,0-.48,0-.28,0-.42,0-.32,0-.48,0-.1,0-.16,0-.37,0-.56l.09-10.72C127.51,37.65,127.5,37.89,127.49,38.12Z"/><path class="cls-3" d="M108.7,11.14c25,14.41,25.09,37.77.29,52.19s-65.13,14.41-90.09,0-25.09-37.77-.3-52.19S83.74-3.27,108.7,11.14Z"/><path class="cls-4" d="M109,61C84.19,75.4,43.86,75.4,18.9,61,6.89,54.05.63,45,.13,36-.4,45.82,5.86,55.79,18.9,63.32c25,14.41,65.29,14.41,90.09,0,12.86-7.48,19-17.36,18.48-27.15C127,45.18,120.84,54.11,109,61Z"/><path class="cls-5" d="M63.82,60.27h49.87c17.64-12.8,18.38-30.85,2.26-44.14H69Z"/><g class="cls-1"><polygon class="cls-6" points="63.8 24.05 63.79 30.2 93.06 13.19 93.07 7.05 63.8 24.05"/><path class="cls-7" d="M35.26,53.64l.25.13L36,54l.3.15.47.24.33.16.45.22.34.16.45.21.35.16.45.2.36.15.46.19.37.15.19.08.17.06.89.34.22.08,1.1.39.27.09.89.29.31.1,1.14.34h0l.18,0,.8.22.36.09.66.17.4.1.64.15.4.09.65.14.26.06.13,0,.56.11.43.08.58.11.41.07.63.1.37.06.78.12.21,0h0l1,.13h0l1,.12.33,0,.67.07.41,0L58,60h0l.39,0,.57,0,.45,0,.56,0,.45,0,.55,0,.46,0,.55,0h.22l1.68,0,0-12.16-1.68,0H62l-.56,0L61,48l-.56,0L60,48l-.57,0-.44,0-.58,0-.42,0-.61-.05-.39,0-.68-.07-.32,0-1-.12h0l-1-.13-.24,0L53,47.27l-.37-.06L52,47.1,51.62,47,51,46.92l-.42-.08-.56-.11-.39-.08L49,46.51l-.4-.09L48,46.27l-.4-.1L46.91,46l-.36-.09-.8-.22-.2-.05-1.14-.34-.31-.1-.89-.29-.27-.09-1.1-.39-.22-.08L40.74,44l-.36-.14L40,43.73l-.46-.19-.36-.15-.45-.2L38.38,43l-.45-.21-.35-.16-.45-.22-.33-.16L36.34,42l-.3-.16-.5-.27-.25-.14-.74-.42c-4.86-2.81-8.28-6.13-10.25-9.67a15.77,15.77,0,0,1-1.83-5.14q0-.29-.08-.58a14.08,14.08,0,0,1-.1-1.74l0,12.16c0,6.2,4.07,12.4,12.26,17.13Z"/><path class="cls-8" d="M34.34,7c-16.17,9.39-16.08,24.62.19,34,8.13,4.7,18.78,7,29.4,7L63.8,24.05,93.07,7C76.8-2.35,50.51-2.35,34.34,7Z"/><path class="cls-9" d="M35.38,41.06C19.11,31.67,19,16.44,35.19,7c8-4.63,18.41-7,28.9-7C53.32-.06,42.53,2.29,34.34,7c-16.17,9.39-16.08,24.62.19,34,8.13,4.7,18.78,7,29.4,7h0C53.59,48,43.3,45.63,35.38,41.06Z"/></g><g class="cls-1"><path class="cls-10" d="M94.15,52.61l.34-.22.38-.24.33-.22.36-.25.32-.22.35-.25.31-.22.34-.26.29-.23.33-.27.28-.23.32-.27.26-.23.31-.28.22-.2,0,0,.63-.61.16-.16.45-.47.18-.19.47-.53.09-.1.52-.63,0-.05.12-.16.28-.36.17-.23.25-.36.16-.24.23-.36.14-.23.23-.39.09-.16,0,0,.19-.35.12-.22.2-.4.08-.17q.13-.29.26-.58l0-.09.2-.49v0l.08-.22.12-.34.08-.25.1-.32.07-.26.08-.32.06-.26.07-.31v-.06l0-.21c0-.11,0-.21.06-.32s0-.18,0-.27,0-.21,0-.32,0-.18,0-.27,0-.21,0-.31,0-.18,0-.27,0-.21,0-.31,0-.07,0-.1,0-.24,0-.36l0-18.31c0,.16,0,.31,0,.47s0,.21,0,.31,0,.18,0,.27,0,.21,0,.32,0,.18,0,.27,0,.21,0,.32l0,.27-.06.32,0,.26-.07.32-.06.26-.08.32-.07.26-.1.33-.08.25-.12.34-.08.24-.19.49,0,.09-.26.58-.09.17-.2.4-.12.22-.19.35-.12.2-.23.39-.14.23-.23.36-.16.24-.25.35-.17.23-.28.36-.16.21-.52.63-.09.1-.47.53-.18.19-.45.47-.16.16L99,30.7l-.24.22-.31.28-.27.23-.32.27-.28.23-.33.27-.29.23-.34.26-.31.22-.35.26-.32.22-.36.25-.33.22-.38.24-.34.22-.39.24-.62.37,0,18.31.51-.3.11-.07Z"/><polygon class="cls-11" points="63.72 17.91 63.69 30.2 93.15 53.22 93.18 34.91 63.72 17.91"/><path class="cls-12" d="M93,.9l-29.27,17,29.46,17C109.35,25.52,109.26,10.29,93,.9Z"/></g><g class="cls-1"><path class="cls-13" d="M66.08,60.23h.42l.67,0,.42,0,.7,0,.38,0,.85-.06.23,0,1.07-.1h0l.16,0,1-.11.36,0,.95-.12.27,0,1.18-.18.27,0,.93-.16.19,0,.2,0,.51-.1.46-.09.51-.1.46-.1.51-.11.45-.1.51-.12.45-.11.5-.13.44-.11.5-.14.43-.12.5-.15.42-.12.51-.16.34-.11.06,0L85,56.9l.26-.09.86-.31.3-.11L87.52,56l.05,0,1-.42.29-.13.82-.37.22-.1,1-.49.23-.12.78-.41.27-.15,1-.54,0-14.8-1,.54-.27.15-.78.41-.23.12-1,.49-.22.1-.83.37-.29.13-1,.42-.05,0-1.07.42-.3.11-.86.31-.26.09-1.1.37-.4.13-.51.16-.42.12-.5.15-.43.12-.5.14-.44.11-.5.13-.45.11-.5.12-.45.1-.51.11-.46.1-.51.1-.46.09-.51.1-.39.07-.93.16-.27,0-1.18.18-.26,0-.95.12-.36,0-1,.11-.2,0-1.07.1-.23,0-.85.06-.38,0-.7,0-.42,0-.67,0h-.42l-.78,0H63.85l0,14.8H65.3Z"/><polygon class="cls-14" points="63.71 21.42 63.69 30.2 63.82 60.27 63.85 45.47 63.71 21.42"/><path class="cls-15" d="M63.71,21.42l.14,24.05c10.63,0,21.24-2.35,29.32-7Z"/></g><polygon class="cls-16" points="93.17 38.43 63.71 21.42 63.8 24.05 89.94 40.12 93.17 38.43"/><polygon class="cls-17" points="60.47 48.02 63.94 48.11 63.71 21.42 60.47 48.02"/><path class="cls-18" d="M63.72,17.91,93,.9A280.1,280.1,0,0,1,63.72,17.91Z"/></g></g></g></svg>