<svg xmlns="http://www.w3.org/2000/svg" viewBox="0 0 390.64 202.89"><defs><style>.cls-1{fill:#303a49;opacity:0.6;}.cls-2{fill:#95928f;}.cls-3{fill:#eae3e0;}.cls-4{fill:#c3bebb;}.cls-5{opacity:0.2;}.cls-6{fill:#f1ebe7;}.cls-7{fill:#989592;}.cls-8{opacity:0.43;}.cls-10,.cls-9{fill:#baaba2;}.cls-9{opacity:0.87;}.cls-11{fill:#ddd7d4;}.cls-12{opacity:0.7;}.cls-13{fill:#ece6e3;}</style></defs><title>Asset 12</title><g id="Layer_2" data-name="Layer 2"><g id="Layer_1-2" data-name="Layer 1"><path class="cls-1" d="M282.07,9.25,7.87,143.37c-1.83.84-1.84,5.95,0,6.79L109.18,202a9.92,9.92,0,0,0,8.26,0L389.07,78.11c1.84-.84,2.2-5.73.36-6.58L286.22,9.25A5,5,0,0,0,282.07,9.25Z"/><polygon class="cls-2" points="55.11 124.31 12.7 143.65 20.34 151.76 62.74 132.42 55.11 124.31"/><path class="cls-3" d="M282.07,3.8,8.38,126.12c-1.83.84-1.84,5.95,0,6.79l100.82,63.62a9.92,9.92,0,0,0,8.26,0L389.07,72.66c1.84-.84,2.2-5.73.36-6.58L286.22,3.81A5,5,0,0,0,282.07,3.8Z"/><path class="cls-4" d="M26.79,138.87c1.15,7.64-3.87,13.85-11.23,13.86S1.32,146.56.16,138.92,4,125.07,11.39,125.06,25.64,131.23,26.79,138.87Z"/><path class="cls-4" d="M282.07.45,8.37,125.29a2.35,2.35,0,0,0,0,4.28l100.82,63.62a9.92,9.92,0,0,0,8.26,0L389.07,69.31a2.36,2.36,0,0,0,0-4.29L286.22.46A5,5,0,0,0,282.07.45Z"/><g class="cls-5"><path class="cls-6" d="M389.07,65,335.2,31.2,41,150.18l68.16,43a9.92,9.92,0,0,0,8.26,0L389.07,69.31A2.36,2.36,0,0,0,389.07,65Z"/></g><path class="cls-7" d="M284.36,109.33,201.6,147.07a6.09,6.09,0,0,1-5.14-.19l-10-6.28a1.77,1.77,0,0,1-.75-.84c-.48.65-.33,1.41.56,2l10,6.28a6.09,6.09,0,0,0,5.14.19l82.75-37.74c1.07-.49,1.48-1.23,1.21-1.9A2.59,2.59,0,0,1,284.36,109.33Z"/><path class="cls-7" d="M328,89.45,318,94a6.09,6.09,0,0,1-5.14-.19l-10-6.28a1.77,1.77,0,0,1-.75-.84c-.48.65-.33,1.41.56,2l10,6.28a6.09,6.09,0,0,0,5.14.19l10-4.54c1.07-.49,1.48-1.23,1.21-1.9A2.59,2.59,0,0,1,328,89.45Z"/><path class="cls-7" d="M191.37,151.73l-12.66,5.78a6.09,6.09,0,0,1-5.14-.19l-10-6.28a1.77,1.77,0,0,1-.75-.84c-.48.65-.33,1.41.56,2l10,6.28a6.09,6.09,0,0,0,5.14.19l12.66-5.78c1.07-.49,1.48-1.23,1.21-1.9A2.59,2.59,0,0,1,191.37,151.73Z"/><path class="cls-7" d="M307.76,98.66l-13.17,6a6.09,6.09,0,0,1-5.14-.19l-10-6.28a1.77,1.77,0,0,1-.75-.84c-.49.65-.33,1.4.56,2l10,6.28a6.09,6.09,0,0,0,5.14.19l13.17-6c1.07-.49,1.48-1.23,1.22-1.9A2.59,2.59,0,0,1,307.76,98.66Z"/><path class="cls-7" d="M117.84,164.85a2.58,2.58,0,0,1-1,.79l-20.66,9.42a6.09,6.09,0,0,1-5.14-.19l-8.06-5.06a1.77,1.77,0,0,1-.75-.84c-.48.65-.33,1.41.56,2L90.82,176a6.09,6.09,0,0,0,5.14.19l20.66-9.42C117.68,166.28,118.1,165.53,117.84,164.85Z"/><path class="cls-7" d="M168.48,162.17l-10.94,5a6.09,6.09,0,0,1-5.14-.19l-10-6.28a1.77,1.77,0,0,1-.75-.84c-.48.65-.33,1.41.56,2l10,6.28a6.09,6.09,0,0,0,5.14.19l10.94-5c1.07-.49,1.48-1.23,1.22-1.9A2.59,2.59,0,0,1,168.48,162.17Z"/><path class="cls-7" d="M147.31,171.83l-9.55,4.36a6.09,6.09,0,0,1-5.14-.19l-10-6.28a1.77,1.77,0,0,1-.75-.84c-.48.65-.33,1.41.56,2l10,6.28a6.09,6.09,0,0,0,5.14.19l9.55-4.36c1.07-.49,1.48-1.23,1.22-1.9A2.59,2.59,0,0,1,147.31,171.83Z"/><path class="cls-7" d="M127.52,180.85l-12.83,5.85a6.09,6.09,0,0,1-5.14-.19l-10-6.28a1.77,1.77,0,0,1-.75-.84c-.48.65-.33,1.41.56,2l10,6.28a6.09,6.09,0,0,0,5.14.19L127.34,182c1.07-.49,1.48-1.23,1.21-1.9A2.59,2.59,0,0,1,127.52,180.85Z"/><path class="cls-7" d="M216.55,76.16l5.61,3.52a11.13,11.13,0,0,0,2.56,1.11,5.44,5.44,0,0,0,3-.55l10.56-4.82c1.07-.49,1.48-1.23,1.22-1.9a2.59,2.59,0,0,1-1,.78l-10.57,4.82a5.45,5.45,0,0,1-3,.55,11.12,11.12,0,0,1-2.56-1.11L216.74,75a1.77,1.77,0,0,1-.75-.84C215.5,74.84,215.66,75.6,216.55,76.16Z"/><path class="cls-7" d="M195.06,86l6,3.79a5.87,5.87,0,0,0,2.5.87,6.05,6.05,0,0,0,2.7-.63l11.27-5.14c1.07-.49,1.48-1.23,1.21-1.9a2.59,2.59,0,0,1-1,.78l-11.27,5.14a6.05,6.05,0,0,1-2.7.63,5.87,5.87,0,0,1-2.5-.87l-6-3.79a1.77,1.77,0,0,1-.75-.84C194,84.64,194.17,85.4,195.06,86Z"/><path class="cls-7" d="M173.66,95.72l6.11,3.84a6.09,6.09,0,0,0,5.14.19l11.17-5.09c1.07-.49,1.48-1.23,1.22-1.9a2.59,2.59,0,0,1-1,.78l-11.17,5.09a6.09,6.09,0,0,1-5.14-.19l-6.11-3.84a1.77,1.77,0,0,1-.75-.84C172.61,94.4,172.77,95.16,173.66,95.72Z"/><path class="cls-7" d="M282.24,54.32,271,59.44a6.09,6.09,0,0,1-5.14-.19l-6.11-3.84a1.77,1.77,0,0,1-.75-.84c-.48.65-.33,1.41.56,2l6.11,3.84a6.09,6.09,0,0,0,5.14.19L282,55.44c1.07-.49,1.48-1.23,1.21-1.9A2.59,2.59,0,0,1,282.24,54.32Z"/><path class="cls-7" d="M237.23,66.73l6.09,3.82a4.93,4.93,0,0,0,2.64.72,4.57,4.57,0,0,0,2.52-.52l12.12-5.53c1.07-.49,1.48-1.23,1.21-1.9a2.59,2.59,0,0,1-1,.78l-12.12,5.53a4.56,4.56,0,0,1-2.52.52,4.92,4.92,0,0,1-2.64-.72l-6.09-3.82a1.77,1.77,0,0,1-.75-.84C236.18,65.41,236.34,66.17,237.23,66.73Z"/><path class="cls-7" d="M304.15,62.22,291.8,67.85a6.09,6.09,0,0,1-5.14-.19l-8-5a1.77,1.77,0,0,1-.75-.84c-.48.65-.33,1.41.56,2l8,5a6.09,6.09,0,0,0,5.14.19L304,63.34c1.07-.49,1.48-1.23,1.22-1.9A2.59,2.59,0,0,1,304.15,62.22Z"/><path class="cls-7" d="M161.15,72.83l2.76,1.73a6.09,6.09,0,0,0,5.14.19l13.83-6.31c1.07-.49,1.48-1.23,1.21-1.9a2.59,2.59,0,0,1-1,.78l-13.83,6.31a6.09,6.09,0,0,1-5.14-.19l-2.76-1.73a1.77,1.77,0,0,1-.75-.84C160.1,71.51,160.26,72.27,161.15,72.83Z"/><path class="cls-7" d="M229.3,41.75l2.76,1.73a6.09,6.09,0,0,0,5.14.19l14.12-6.44c1.07-.49,1.48-1.23,1.21-1.9a2.59,2.59,0,0,1-1,.78l-14.12,6.44a6.09,6.09,0,0,1-5.14-.19l-2.76-1.73a1.77,1.77,0,0,1-.75-.84C228.25,40.43,228.41,41.19,229.3,41.75Z"/><path class="cls-7" d="M274.94,20.94l2.76,1.73a6.09,6.09,0,0,0,5.14.19L295.66,17c1.07-.49,1.48-1.23,1.22-1.9a2.59,2.59,0,0,1-1,.78L283,21.74a6.09,6.09,0,0,1-5.14-.19l-2.76-1.73a1.77,1.77,0,0,1-.75-.84C273.89,19.62,274,20.38,274.94,20.94Z"/><path class="cls-7" d="M253.65,30.65l2.76,1.73a6.09,6.09,0,0,0,5.14.19l11.06-5c1.07-.49,1.48-1.23,1.21-1.9a2.59,2.59,0,0,1-1,.78l-11.06,5a6.09,6.09,0,0,1-5.14-.19l-2.76-1.73a1.77,1.77,0,0,1-.75-.84C252.6,29.33,252.76,30.09,253.65,30.65Z"/><path class="cls-7" d="M207.1,51.87l2.76,1.73a6.09,6.09,0,0,0,5.14.19l12-5.46c1.07-.49,1.48-1.23,1.22-1.9a2.59,2.59,0,0,1-1,.78l-12,5.46a6.09,6.09,0,0,1-5.14-.19l-2.76-1.73a1.77,1.77,0,0,1-.75-.84C206.06,50.56,206.21,51.31,207.1,51.87Z"/><path class="cls-7" d="M185.21,61.86,188,63.59a6.09,6.09,0,0,0,5.14.19l11.66-5.32c1.07-.49,1.48-1.23,1.22-1.9a2.59,2.59,0,0,1-1,.78L193.3,62.65a6.09,6.09,0,0,1-5.14-.19l-2.76-1.73a1.77,1.77,0,0,1-.75-.84C184.16,60.54,184.32,61.3,185.21,61.86Z"/><path class="cls-7" d="M358.68,55.34,320.21,72.88a4.7,4.7,0,0,1-2.67.51,6.2,6.2,0,0,1-2.65-.85L307,67.62a1.77,1.77,0,0,1-.75-.84c-.48.65-.33,1.41.56,2l7.85,4.93a6.2,6.2,0,0,0,2.65.85A4.7,4.7,0,0,0,320,74l38.47-17.54c1.07-.49,1.48-1.23,1.22-1.9A2.59,2.59,0,0,1,358.68,55.34Z"/><path class="cls-7" d="M110.81,150.07a2.59,2.59,0,0,1-1,.78l-30,13.69a8,8,0,0,1-3,.68,4.22,4.22,0,0,1-2.37-.76l-8-5a1.77,1.77,0,0,1-.75-.84c-.48.65-.33,1.41.56,2l8,5a4.22,4.22,0,0,0,2.37.76,8,8,0,0,0,3-.68l30-13.69C110.66,151.49,111.08,150.75,110.81,150.07Z"/><path class="cls-7" d="M310.93,25.36l-26,11.87a5.87,5.87,0,0,1-5.1-.26l-6.23-4.16a1.79,1.79,0,0,1-.73-.88c-.47.66-.32,1.43.55,2l6.23,4.16a5.87,5.87,0,0,0,5.1.26l26-11.87c1.07-.49,1.48-1.23,1.22-1.9A2.59,2.59,0,0,1,310.93,25.36Z"/><path class="cls-7" d="M342.08,44.92l-4.41,2a6.09,6.09,0,0,1-5.14-.19L321.3,39.69c-1.29-.81-2.63-1.68-3.59-1.54s-1.93.87-3.47,1.58a9,9,0,0,1-3.25.77,5.21,5.21,0,0,1-2.52-1.05l-5.76-3.61a1.77,1.77,0,0,1-.75-.84c-.48.65-.33,1.41.56,2l5.76,3.61a5.21,5.21,0,0,0,2.52,1.05,9,9,0,0,0,3.25-.77c1.54-.7,2.52-1.43,3.47-1.58s2.3.73,3.59,1.54l11.23,7.05a6.09,6.09,0,0,0,5.14.19l4.41-2c1.07-.49,1.48-1.23,1.22-1.9A2.59,2.59,0,0,1,342.08,44.92Z"/><path class="cls-7" d="M50.27,123.39,53,125.12a6.09,6.09,0,0,0,5.14.19l12-5.46c1.07-.49,1.48-1.23,1.22-1.9a2.59,2.59,0,0,1-1,.78l-12,5.46a6.09,6.09,0,0,1-5.14-.19l-2.76-1.73a1.77,1.77,0,0,1-.75-.84C49.22,122.07,49.38,122.83,50.27,123.39Z"/><path class="cls-7" d="M61.16,138.95a2.59,2.59,0,0,1-1,.78L48.4,145.08a6.09,6.09,0,0,1-5.14-.19l-6.55-4.11a1.77,1.77,0,0,1-.75-.84c-.48.65-.33,1.41.56,2L43.07,146a6.09,6.09,0,0,0,5.14.19l11.73-5.35C61,140.37,61.42,139.63,61.16,138.95Z"/><path class="cls-7" d="M72.46,113.27,75.22,115a6.09,6.09,0,0,0,5.14.19l12-5.46c1.07-.49,1.48-1.23,1.22-1.9a2.59,2.59,0,0,1-1,.78l-12,5.46a6.09,6.09,0,0,1-5.14-.19l-2.76-1.73a1.77,1.77,0,0,1-.75-.84C71.42,112,71.58,112.71,72.46,113.27Z"/><path class="cls-7" d="M152.14,105.53l6.11,3.84a6.09,6.09,0,0,0,5.14.19l11.29-5.15c1.07-.49,1.48-1.23,1.21-1.9a2.59,2.59,0,0,1-1,.78l-11.29,5.15a6.09,6.09,0,0,1-5.14-.19l-6.11-3.84a1.77,1.77,0,0,1-.75-.84C151.09,104.21,151.25,105,152.14,105.53Z"/><path class="cls-7" d="M89.64,141.83a2.59,2.59,0,0,1-1,.78L63,154.27a6.09,6.09,0,0,1-5.14-.19l-6.11-3.84a1.77,1.77,0,0,1-.75-.84c-.48.65-.33,1.41.56,2l6.11,3.84a6.09,6.09,0,0,0,5.14.19l25.57-11.66C89.5,143.25,89.91,142.51,89.64,141.83Z"/><path class="cls-7" d="M139.05,82.9l2.76,1.73a6.09,6.09,0,0,0,5.14.19l11.87-5.41c1.07-.49,1.48-1.23,1.21-1.9a2.59,2.59,0,0,1-1,.78L147.14,83.7a6.09,6.09,0,0,1-5.14-.19l-2.76-1.73a1.77,1.77,0,0,1-.75-.84C138,81.59,138.17,82.35,139.05,82.9Z"/><path class="cls-7" d="M94.66,103.15l2.76,1.73a6.09,6.09,0,0,0,5.14.19l12-5.46c1.07-.49,1.48-1.23,1.22-1.9a2.59,2.59,0,0,1-1,.78l-12,5.46a6.09,6.09,0,0,1-5.14-.19L94.85,102a1.77,1.77,0,0,1-.75-.84C93.61,101.83,93.77,102.59,94.66,103.15Z"/><path class="cls-7" d="M116.86,93l2.76,1.73a6.09,6.09,0,0,0,5.14.19l12-5.46c1.07-.49,1.48-1.23,1.22-1.9a2.59,2.59,0,0,1-1,.78l-12,5.46a6.09,6.09,0,0,1-5.14-.19L117,91.9a1.77,1.77,0,0,1-.75-.84C115.81,91.71,116,92.47,116.86,93Z"/><path class="cls-7" d="M49.42,128.66a.72.72,0,0,0-.13-.59,3.91,3.91,0,0,1-1.28.84l-14.7,6.7a6.09,6.09,0,0,1-5.14-.19l-2.76-1.73a1.77,1.77,0,0,1-.75-.84c-.48.65-.33,1.41.56,2L28,136.54a6.09,6.09,0,0,0,5.14.19l14.7-6.7C49.37,129.33,49.41,128.67,49.42,128.66Z"/><path class="cls-7" d="M138.12,155.92,127,161a6.09,6.09,0,0,1-5.14-.19l-8.06-5.06a1.77,1.77,0,0,1-.75-.84c-.48.65-.33,1.41.56,2l8.06,5.06a6.09,6.09,0,0,0,5.14.19L137.93,157c1.07-.49,1.48-1.23,1.21-1.9A2.59,2.59,0,0,1,138.12,155.92Z"/><path class="cls-7" d="M106.72,142.12l8,5a6.09,6.09,0,0,0,5.14.19L131,142.23c1.07-.49,1.48-1.23,1.21-1.9a2.59,2.59,0,0,1-1,.78L120,146.18a6.09,6.09,0,0,1-5.14-.19l-8-5a1.77,1.77,0,0,1-.75-.84C105.67,140.8,105.83,141.56,106.72,142.12Z"/><path class="cls-7" d="M87.58,135l6.11,3.84a6.09,6.09,0,0,0,5.14.19l11.29-5.15c1.07-.49,1.48-1.23,1.21-1.9a2.59,2.59,0,0,1-1,.78L99,137.87a6.09,6.09,0,0,1-5.14-.19l-6.11-3.84A1.77,1.77,0,0,1,87,133C86.53,133.65,86.69,134.41,87.58,135Z"/><path class="cls-7" d="M159.64,146.11l-11.29,5.15a7.54,7.54,0,0,1-3,.67,5.5,5.5,0,0,1-2.18-.88l-8-5a1.77,1.77,0,0,1-.75-.84c-.48.65-.33,1.41.56,2l8,5a5.5,5.5,0,0,0,2.18.88,7.54,7.54,0,0,0,3-.67l11.29-5.15c1.07-.49,1.48-1.23,1.22-1.9A2.59,2.59,0,0,1,159.64,146.11Z"/><path class="cls-7" d="M81.65,129.92l-11.29,5.15a6.09,6.09,0,0,1-5.14-.19l-6.55-4.11a1.77,1.77,0,0,1-.75-.84c-.48.65-.33,1.41.56,2L65,136a6.09,6.09,0,0,0,5.14.19L81.46,131c1.07-.49,1.48-1.23,1.21-1.9A2.59,2.59,0,0,1,81.65,129.92Z"/><path class="cls-7" d="M101.49,112.31l6.32,4.15a5.93,5.93,0,0,0,5.11.24l11.58-5.28c1.07-.49,1.48-1.23,1.21-1.9a2.59,2.59,0,0,1-1,.78l-11.58,5.28a5.93,5.93,0,0,1-5.11-.24l-6.32-4.15a1.78,1.78,0,0,1-.74-.87C100.47,111,100.62,111.74,101.49,112.31Z"/><path class="cls-7" d="M89,127.07a6.71,6.71,0,0,0,2.64-.69L103,121.23c1.07-.49,1.48-1.23,1.22-1.9a2.59,2.59,0,0,1-1,.78l-11.29,5.15a6.71,6.71,0,0,1-2.64.69,6.11,6.11,0,0,1-2.52-.9l-6.52-4.1a1.77,1.77,0,0,1-.75-.84c-.48.65-.33,1.41.56,2l6.52,4.1A6.11,6.11,0,0,0,89,127.07Z"/><path class="cls-7" d="M181.15,136.29l-11.29,5.15a6.09,6.09,0,0,1-5.14-.19l-8.06-5.06a1.77,1.77,0,0,1-.75-.84c-.48.65-.33,1.41.56,2l8.06,5.06a6.09,6.09,0,0,0,5.14.19L181,137.42c1.07-.49,1.48-1.23,1.22-1.9A2.59,2.59,0,0,1,181.15,136.29Z"/><path class="cls-7" d="M288.53,87.33l-11.22,5.12a6.09,6.09,0,0,1-5.14-.19l-8.06-5.06a1.77,1.77,0,0,1-.75-.84c-.48.65-.33,1.41.56,2L272,93.38a6.09,6.09,0,0,0,5.14.19l11.22-5.12c1.07-.49,1.48-1.23,1.22-1.9A2.59,2.59,0,0,1,288.53,87.33Z"/><path class="cls-7" d="M310,77.53l-11.25,5.13a6.09,6.09,0,0,1-5.14-.19l-8.06-5.06a1.77,1.77,0,0,1-.75-.84c-.48.65-.33,1.41.56,2l8.06,5.06a6.09,6.09,0,0,0,5.14.19l11.25-5.13c1.07-.49,1.48-1.23,1.22-1.9A2.59,2.59,0,0,1,310,77.53Z"/><path class="cls-7" d="M344.8,74.42l9.21-4.2a5.5,5.5,0,0,1,1.13-.35,1.1,1.1,0,0,0,.06-1,2.6,2.6,0,0,1-1,.79l-9.28,4.23a4.88,4.88,0,0,1-4.12-.15L338.4,72.3a1.86,1.86,0,0,1-.82-.94c-.48.69-.3,1.48.63,2.06l2.36,1.48a4.77,4.77,0,0,0,3.29.41A1.58,1.58,0,0,1,344.8,74.42Z"/><path class="cls-7" d="M123,102.45l6.55,4.11a5.38,5.38,0,0,0,2.47.84,6.33,6.33,0,0,0,2.67-.65L146,101.6c1.07-.49,1.48-1.23,1.21-1.9a2.59,2.59,0,0,1-1,.78l-11.29,5.15a6.33,6.33,0,0,1-2.67.65,5.39,5.39,0,0,1-2.47-.84l-6.55-4.11a1.77,1.77,0,0,1-.75-.84C122,101.13,122.15,101.89,123,102.45Z"/><path class="cls-7" d="M202.56,126.53l-11.17,5.09a6.09,6.09,0,0,1-5.14-.19l-8.06-5.06a1.77,1.77,0,0,1-.75-.84c-.48.65-.33,1.41.56,2l8.06,5.06a6.09,6.09,0,0,0,5.14.19l11.17-5.09c1.07-.49,1.48-1.23,1.21-1.9A2.59,2.59,0,0,1,202.56,126.53Z"/><path class="cls-7" d="M224,116.73l-11.27,5.14a6.09,6.09,0,0,1-5.14-.19l-8.06-5.06a1.77,1.77,0,0,1-.75-.84c-.48.65-.33,1.41.56,2l8.06,5.06a6.09,6.09,0,0,0,5.14.19l11.27-5.14c1.07-.49,1.48-1.23,1.22-1.9A2.59,2.59,0,0,1,224,116.73Z"/><path class="cls-7" d="M244.73,107.3l-10.51,4.79a4.7,4.7,0,0,1-2.89.43,6.36,6.36,0,0,1-2.55-.87l-7.7-4.83a1.77,1.77,0,0,1-.75-.84c-.48.65-.33,1.41.56,2l7.7,4.83a6.36,6.36,0,0,0,2.55.87,4.69,4.69,0,0,0,2.89-.43l10.51-4.79c1.07-.49,1.48-1.23,1.21-1.9A2.59,2.59,0,0,1,244.73,107.3Z"/><path class="cls-7" d="M267.08,97.11,255,102.64a6.09,6.09,0,0,1-5.14-.19l-8.06-5.06a1.77,1.77,0,0,1-.75-.84c-.48.65-.33,1.41.56,2l8.06,5.06a6.09,6.09,0,0,0,5.14.19l12.12-5.53c1.07-.49,1.48-1.23,1.21-1.9A2.59,2.59,0,0,1,267.08,97.11Z"/><path class="cls-7" d="M130.62,115.34l5.94,3.73A4.26,4.26,0,0,0,139,120a4.51,4.51,0,0,0,2.86-.59l11.31-5.16c1.07-.49,1.48-1.23,1.22-1.9a2.59,2.59,0,0,1-1,.78L142,118.25a4.51,4.51,0,0,1-2.86.59,4.26,4.26,0,0,1-2.42-.89l-5.94-3.73a1.77,1.77,0,0,1-.75-.84C129.57,114,129.73,114.78,130.62,115.34Z"/><path class="cls-7" d="M217.09,101.92l-11.39,5.19a4.55,4.55,0,0,1-2.87.62c-.94-.07-1.38-.38-2.66-1.19l-7.46-4.68A1.77,1.77,0,0,1,192,101c-.48.65-.33,1.41.56,2l7.46,4.68c1.29.81,1.73,1.12,2.66,1.19a4.55,4.55,0,0,0,2.87-.62L216.9,103c1.07-.49,1.48-1.23,1.21-1.9A2.59,2.59,0,0,1,217.09,101.92Z"/><path class="cls-7" d="M237.77,92.49l-10.45,4.76a6.09,6.09,0,0,1-5.14-.19l-8-5a1.77,1.77,0,0,1-.75-.84c-.48.65-.33,1.41.56,2l8,5a6.09,6.09,0,0,0,5.14.19l10.45-4.76c1.07-.49,1.48-1.23,1.21-1.9A2.59,2.59,0,0,1,237.77,92.49Z"/><path class="cls-7" d="M281.57,72.51l-11.22,5.12a6.09,6.09,0,0,1-5.14-.19l-8-5a1.77,1.77,0,0,1-.75-.84c-.48.65-.33,1.41.56,2l8,5a6.09,6.09,0,0,0,5.14.19l11.22-5.12c1.07-.49,1.48-1.23,1.21-1.9A2.59,2.59,0,0,1,281.57,72.51Z"/><path class="cls-7" d="M195.6,111.72l-11.17,5.09a6.09,6.09,0,0,1-5.14-.19l-8-5a1.77,1.77,0,0,1-.75-.84c-.48.65-.33,1.41.56,2l8,5a6.09,6.09,0,0,0,5.14.19l11.17-5.09c1.07-.49,1.48-1.23,1.22-1.9A2.59,2.59,0,0,1,195.6,111.72Z"/><path class="cls-7" d="M260.1,82.22,247.56,87.6a6.26,6.26,0,0,1-5.16-.26l-7.51-4.72a1.77,1.77,0,0,1-.75-.84c-.48.65-.33,1.41.56,2l7.51,4.72a6.26,6.26,0,0,0,5.16.26l12.55-5.38c1.09-.47,1.5-1.19,1.22-1.87A2.56,2.56,0,0,1,260.1,82.22Z"/><path class="cls-7" d="M174.2,121.48l-11.29,5.15a6.09,6.09,0,0,1-5.14-.19l-8-5a1.77,1.77,0,0,1-.75-.84c-.48.65-.33,1.41.56,2l8,5a6.09,6.09,0,0,0,5.14.19L174,122.6c1.07-.49,1.48-1.23,1.21-1.9A2.59,2.59,0,0,1,174.2,121.48Z"/><path class="cls-7" d="M109.1,125.16l6.11,3.84a6.09,6.09,0,0,0,5.14.19L131.64,124c1.07-.49,1.48-1.23,1.22-1.9a2.59,2.59,0,0,1-1,.78l-11.29,5.15a6.09,6.09,0,0,1-5.14-.19L109.29,124a1.77,1.77,0,0,1-.75-.84C108.05,123.84,108.21,124.6,109.1,125.16Z"/><path class="cls-7" d="M152.68,131.29l-11.45,5.22a4.9,4.9,0,0,1-2.93.53,15.11,15.11,0,0,1-2.66-1.18l-7.36-4.62a1.77,1.77,0,0,1-.75-.84c-.48.65-.33,1.41.56,2l7.36,4.62a15.13,15.13,0,0,0,2.66,1.18,4.9,4.9,0,0,0,2.93-.53l11.45-5.22c1.07-.49,1.48-1.23,1.21-1.9A2.59,2.59,0,0,1,152.68,131.29Z"/><path class="cls-7" d="M251.93,43.67l6.5,4.08,2.37,1.49L263.62,48l11.26-5.14c1.07-.49,1.48-1.23,1.21-1.9a2.59,2.59,0,0,1-1,.78L263.8,46.85,261,48.12l-2.37-1.49-6.5-4.08a1.77,1.77,0,0,1-.75-.84C250.88,42.35,251,43.11,251.93,43.67Z"/><path class="cls-7" d="M166,82.88,172.51,87a6.09,6.09,0,0,0,5.14.19L188.92,82c1.07-.49,1.48-1.23,1.22-1.9a2.59,2.59,0,0,1-1,.78l-11.27,5.14a6.09,6.09,0,0,1-5.14-.19l-6.55-4.11a1.77,1.77,0,0,1-.75-.84C164.91,81.56,165.07,82.32,166,82.88Z"/><path class="cls-7" d="M327.44,51.6l-13.06,6a6.09,6.09,0,0,1-5.14-.19l-8-5a1.77,1.77,0,0,1-.75-.84c-.48.65-.33,1.41.56,2l8,5a6.09,6.09,0,0,0,5.14.19l13.06-6c1.07-.49,1.48-1.23,1.21-1.9A2.59,2.59,0,0,1,327.44,51.6Z"/><path class="cls-7" d="M208.13,63.64l6.55,4.11a6.09,6.09,0,0,0,5.14.19l12.12-5.53c1.07-.49,1.48-1.23,1.22-1.9a2.59,2.59,0,0,1-1,.78L220,66.82a6.09,6.09,0,0,1-5.14-.19l-6.55-4.11a1.77,1.77,0,0,1-.75-.84C207.08,62.33,207.24,63.09,208.13,63.64Z"/><path class="cls-7" d="M187.45,73.07,194,77.19a6.09,6.09,0,0,0,5.14.19l10.45-4.76c1.07-.49,1.48-1.23,1.22-1.9a2.59,2.59,0,0,1-1,.78l-10.45,4.76a6.09,6.09,0,0,1-5.14-.19l-6.55-4.11a1.77,1.77,0,0,1-.75-.84C186.41,71.76,186.57,72.52,187.45,73.07Z"/><path class="cls-7" d="M144.56,92.63l6.42,4a6.56,6.56,0,0,0,2.55.91,5.9,5.9,0,0,0,2.7-.63l11.19-5.1c1.07-.49,1.48-1.23,1.22-1.9a2.59,2.59,0,0,1-1,.78l-11.19,5.1a5.9,5.9,0,0,1-2.7.63,6.55,6.55,0,0,1-2.55-.91l-6.42-4a1.77,1.77,0,0,1-.75-.84C143.51,91.32,143.67,92.08,144.56,92.63Z"/><path class="cls-7" d="M230.48,53.45,237,57.57a6.09,6.09,0,0,0,5.14.19l11.22-5.12c1.07-.49,1.48-1.23,1.22-1.9a2.59,2.59,0,0,1-1,.78l-11.22,5.12a6.09,6.09,0,0,1-5.14-.19l-6.55-4.11a1.77,1.77,0,0,1-.75-.84C229.43,52.14,229.59,52.9,230.48,53.45Z"/><path class="cls-7" d="M281,46.75l6.11,3.84a6.09,6.09,0,0,0,5.14.19l11.25-5.13c1.07-.49,1.48-1.23,1.21-1.9a2.59,2.59,0,0,1-1,.78l-11.25,5.13a6.09,6.09,0,0,1-5.14-.19l-6.11-3.84a1.77,1.77,0,0,1-.75-.84C280,45.44,280.14,46.2,281,46.75Z"/><path class="cls-7" d="M329.6,82.06c-1.44.66-1.63,1.81-.43,2.57l1.38.87a6.22,6.22,0,0,0,5.25.19l8.79-4c1.3-.59,1.48-1.64.39-2.32l-1.59-1a6.22,6.22,0,0,0-5.25-.19Z"/><path class="cls-7" d="M344.8,75.18c-1.16.53-1.31,1.46-.35,2.06l1.66,1a6.6,6.6,0,0,0,5.57.21l9.21-4.2c1.16-.53,1.31-1.46.35-2.06l-1.66-1A6.6,6.6,0,0,0,354,71Z"/><path class="cls-7" d="M363,71a6.29,6.29,0,0,0,5.31.2l8.52-3.88c.93-.43,1.06-1.18.28-1.67L375,64.35a6.29,6.29,0,0,0-5.31-.2l-8.78,4c-.79.36-.9,1-.24,1.41Z"/><path class="cls-6" d="M329.6,81.27c-1.44.66-1.63,1.81-.43,2.57l1.38.87a6.22,6.22,0,0,0,5.25.19l8.79-4c1.3-.59,1.48-1.64.39-2.32l-1.59-1a6.22,6.22,0,0,0-5.25-.19Z"/><path class="cls-6" d="M186.92,137.85c-1.54.7-1.75,1.94-.46,2.75l10,6.28a6.09,6.09,0,0,0,5.14.19l82.75-37.74c1.54-.7,1.75-1.94.46-2.75l-10-6.28a6.09,6.09,0,0,0-5.14-.19Z"/><path class="cls-6" d="M303.3,84.77c-1.54.7-1.75,1.94-.46,2.75l10,6.28A6.09,6.09,0,0,0,318,94l10-4.54c1.54-.7,1.75-1.94.46-2.75l-10-6.28a6.09,6.09,0,0,0-5.14-.19Z"/><path class="cls-6" d="M164,148.29c-1.54.7-1.75,1.94-.46,2.75l10,6.28a6.09,6.09,0,0,0,5.14.19l12.66-5.78c1.54-.7,1.75-1.94.46-2.75l-10-6.28a6.09,6.09,0,0,0-5.14-.19Z"/><path class="cls-6" d="M279.9,95.46c-1.54.7-1.75,1.93-.47,2.74l10,6.28a6.09,6.09,0,0,0,5.14.19l13.17-6c1.54-.7,1.75-1.94.46-2.75l-9.93-6.23a6.12,6.12,0,0,0-5.14-.2Z"/><path class="cls-6" d="M109.48,157.74a6,6,0,0,0-5.12-.23l-20.95,9.55c-1.54.7-1.75,1.94-.46,2.75L91,174.87a6.09,6.09,0,0,0,5.14.19l20.66-9.42c1.54-.7,1.75-1.95.47-2.76Z"/><path class="cls-6" d="M142.85,157.94c-1.54.7-1.75,1.94-.46,2.75l10,6.28a6.09,6.09,0,0,0,5.14.19l10.94-5c1.54-.7,1.75-1.94.46-2.75l-10-6.28a6.09,6.09,0,0,0-5.14-.19Z"/><path class="cls-6" d="M123.07,167c-1.54.7-1.75,1.94-.46,2.75l10,6.28a6.09,6.09,0,0,0,5.14.19l9.55-4.36c1.54-.7,1.75-1.94.46-2.75l-10-6.28a6.09,6.09,0,0,0-5.14-.19Z"/><path class="cls-6" d="M100,177.48c-1.54.7-1.75,1.94-.46,2.75l10,6.28a6.09,6.09,0,0,0,5.14.19l12.83-5.85c1.54-.7,1.75-1.94.46-2.75l-10-6.28a6.09,6.09,0,0,0-5.14-.19Z"/><path class="cls-6" d="M231,66.86a5,5,0,0,0-3.17.6L217.2,72.28c-1.54.7-1.75,1.94-.46,2.75l5.61,3.52a11.12,11.12,0,0,0,2.56,1.11,5.44,5.44,0,0,0,3-.55l10.57-4.82c1.54-.7,1.75-1.94.46-2.75l-5.55-3.49C232.06,67.25,232,67,231,66.86Z"/><path class="cls-6" d="M344.8,74.42c-1.16.53-1.31,1.46-.35,2.06l1.66,1a6.6,6.6,0,0,0,5.57.21l9.21-4.2c1.16-.53,1.31-1.46.35-2.06l-1.66-1a6.6,6.6,0,0,0-5.57-.21Z"/><path class="cls-6" d="M195.71,82.09c-1.54.7-1.75,1.94-.46,2.75l6,3.79a5.87,5.87,0,0,0,2.5.87,6.05,6.05,0,0,0,2.7-.63l11.27-5.14c1.54-.7,1.75-1.94.46-2.75l-6.11-3.84a6.09,6.09,0,0,0-5.14-.19Z"/><path class="cls-6" d="M188.27,86.05a6.4,6.4,0,0,0-2.76.68l-11.2,5.11c-1.54.7-1.75,1.94-.46,2.75L180,98.43a6.09,6.09,0,0,0,5.14.19l11.17-5.09c1.54-.7,1.75-1.94.46-2.75l-5.9-3.71A8.25,8.25,0,0,0,188.27,86.05Z"/><path class="cls-6" d="M282.24,54.32c1.54-.7,1.75-1.94.46-2.75l-6.11-3.84a6.09,6.09,0,0,0-5.14-.19l-11.22,5.12c-1.54.7-1.75,1.94-.46,2.75l6.11,3.84a6.09,6.09,0,0,0,5.14.19Z"/><path class="cls-6" d="M253.37,56.73a4.68,4.68,0,0,0-3.19.52l-12.3,5.61c-1.54.7-1.75,1.94-.46,2.75l6.09,3.82a4.93,4.93,0,0,0,2.64.72,4.57,4.57,0,0,0,2.52-.52l12.12-5.53c1.54-.7,1.75-1.94.46-2.75l-5.44-3.41A8.58,8.58,0,0,0,253.37,56.73Z"/><path class="cls-6" d="M363,70.13a6.29,6.29,0,0,0,5.31.2l8.52-3.88c.93-.43,1.06-1.18.28-1.67L375,63.45a6.29,6.29,0,0,0-5.31-.2l-8.78,4c-.79.36-.9,1-.24,1.41Z"/><path class="cls-6" d="M279.15,59.91c-1.54.7-1.75,1.94-.46,2.75l8,5a6.09,6.09,0,0,0,5.14.19l12.35-5.63c1.54-.7,1.75-1.94.46-2.75l-8-5a6.09,6.09,0,0,0-5.14-.19Z"/><path class="cls-6" d="M183.07,67.32c1.54-.7,1.75-1.94.46-2.75l-2.76-1.73a6.09,6.09,0,0,0-5.14-.19L161.8,69c-1.54.7-1.75,1.94-.46,2.75l2.76,1.73a6.09,6.09,0,0,0,5.14.19Z"/><path class="cls-6" d="M251.51,36.11c1.54-.7,1.75-1.94.46-2.75l-2.76-1.73a6.09,6.09,0,0,0-5.14-.19L230,37.88c-1.54.7-1.75,1.94-.46,2.75l2.76,1.73a6.09,6.09,0,0,0,5.14.19Z"/><path class="cls-6" d="M295.85,15.89c1.54-.7,1.75-1.94.46-2.75l-2.76-1.73a6.09,6.09,0,0,0-5.14-.19l-12.82,5.85c-1.54.7-1.75,1.94-.46,2.75l2.76,1.73a6.09,6.09,0,0,0,5.14.19Z"/><path class="cls-6" d="M272.8,26.4c1.54-.7,1.75-1.94.46-2.75l-2.76-1.73a6.09,6.09,0,0,0-5.14-.19l-11.06,5c-1.54.7-1.75,1.94-.46,2.75l2.76,1.73a6.09,6.09,0,0,0,5.14.19Z"/><path class="cls-6" d="M227.16,47.21c1.54-.7,1.75-1.94.46-2.75l-2.76-1.73a6.09,6.09,0,0,0-5.14-.19l-12,5.46c-1.54.7-1.75,1.94-.46,2.75L210,52.48a6.09,6.09,0,0,0,5.14.19Z"/><path class="cls-6" d="M205,57.33c1.54-.7,1.75-1.94.46-2.75l-2.76-1.73a6.09,6.09,0,0,0-5.14-.19L185.86,58c-1.54.7-1.75,1.94-.46,2.75l2.76,1.73a6.09,6.09,0,0,0,5.14.19Z"/><path class="cls-6" d="M314.89,72.54a6.2,6.2,0,0,0,2.65.85,4.7,4.7,0,0,0,2.67-.51l38.47-17.54c1.54-.7,1.75-1.94.46-2.75l-8.06-5.06a6.09,6.09,0,0,0-5.14-.19L307.5,64.87c-1.54.7-1.75,1.94-.46,2.75Z"/><path class="cls-6" d="M109.78,150.85c1.54-.7,1.75-1.94.47-2.75l-7.92-5a6.06,6.06,0,0,0-5.14-.2L66.9,156.7c-1.54.7-1.75,1.94-.46,2.75l8,5a4.22,4.22,0,0,0,2.37.76,8,8,0,0,0,3-.68Z"/><path class="cls-6" d="M279.8,37a5.87,5.87,0,0,0,5.1.26l26-11.87c1.54-.7,1.75-1.94.46-2.75l-6.55-4.11a6.09,6.09,0,0,0-5.14-.19L274.07,30c-1.54.7-1.77,2-.5,2.81Z"/><path class="cls-6" d="M308.46,39.45A5.21,5.21,0,0,0,311,40.5a9,9,0,0,0,3.25-.77c1.54-.7,2.52-1.43,3.47-1.58s2.3.73,3.59,1.54l11.23,7.05a6.09,6.09,0,0,0,5.14.19l4.41-2c1.54-.7,1.75-1.94.46-2.75L319.93,28a6.09,6.09,0,0,0-5.14-.19l-11.63,5.3c-1.54.7-1.75,1.94-.46,2.75Z"/><path class="cls-6" d="M70.32,118.73c1.54-.7,1.75-1.94.46-2.75L68,114.25a6.09,6.09,0,0,0-5.14-.19l-12,5.46c-1.54.7-1.75,1.94-.46,2.75L53.21,124a6.09,6.09,0,0,0,5.14.19Z"/><path class="cls-6" d="M54,132.87a6.09,6.09,0,0,0-5.14-.19L37.17,138c-1.54.7-1.75,1.94-.46,2.75l6.55,4.11a6.09,6.09,0,0,0,5.14.19l11.73-5.35c1.54-.7,1.75-1.94.46-2.75Z"/><path class="cls-6" d="M92.52,108.61c1.54-.7,1.75-1.94.46-2.75l-2.76-1.73a6.09,6.09,0,0,0-5.14-.19l-12,5.46c-1.54.7-1.75,1.94-.46,2.75l2.76,1.73a6.09,6.09,0,0,0,5.14.19Z"/><path class="cls-6" d="M152.79,101.66c-1.54.7-1.75,1.94-.46,2.75l6.11,3.84a6.09,6.09,0,0,0,5.14.19l11.29-5.15c1.54-.7,1.75-1.94.46-2.75l-6.11-3.84a6.09,6.09,0,0,0-5.14-.19Z"/><path class="cls-6" d="M83,136a6.09,6.09,0,0,0-5.14-.19L52.26,147.5c-1.54.7-1.75,1.94-.46,2.75l6.11,3.84a6.09,6.09,0,0,0,5.14.19l25.57-11.66c1.54-.7,1.75-1.94.46-2.75Z"/><path class="cls-6" d="M159,78.29c1.54-.7,1.75-1.94.46-2.75l-2.76-1.73a6.09,6.09,0,0,0-5.14-.19L139.71,79c-1.54.7-1.75,1.94-.46,2.75L142,83.51a6.09,6.09,0,0,0,5.14.19Z"/><path class="cls-6" d="M114.72,98.49c1.54-.7,1.75-1.94.46-2.75L112.42,94a6.09,6.09,0,0,0-5.14-.19l-12,5.46c-1.54.7-1.75,1.94-.46,2.75l2.76,1.73a6.09,6.09,0,0,0,5.14.19Z"/><path class="cls-6" d="M136.91,88.37c1.54-.7,1.75-1.94.46-2.75l-2.76-1.73a6.09,6.09,0,0,0-5.14-.19l-12,5.46c-1.54.7-1.75,1.94-.46,2.75l2.76,1.73a6.09,6.09,0,0,0,5.14.19Z"/><path class="cls-6" d="M49.61,127.53s.23-.64-1.06-1.45l-2.72-1.71a6.09,6.09,0,0,0-5.14-.19l-14.81,6.75c-1.54.7-1.75,1.94-.46,2.75l2.76,1.73a6.09,6.09,0,0,0,5.14.19L48,128.9C49.55,128.2,49.6,127.54,49.61,127.53Z"/><path class="cls-6" d="M128.25,147.19a6.59,6.59,0,0,0-2.82.71L114.3,153c-1.54.7-1.75,1.94-.46,2.75l8.06,5.06A6.09,6.09,0,0,0,127,161l11.08-5.05c1.54-.7,1.75-1.94.46-2.75l-7.75-4.87A10.67,10.67,0,0,0,128.25,147.19Z"/><path class="cls-6" d="M131.16,141.1c1.54-.7,1.75-1.94.46-2.75l-8-5a6.09,6.09,0,0,0-5.14-.19l-11.14,5.08c-1.54.7-1.75,1.94-.46,2.75l8,5a6.09,6.09,0,0,0,5.14.19Z"/><path class="cls-6" d="M105.1,126.41a10.89,10.89,0,0,0-2.53-1.11,5.86,5.86,0,0,0-3,.61L88.23,131.1c-1.54.7-1.75,1.94-.46,2.75l6.11,3.84a6.09,6.09,0,0,0,5.14.19l11.29-5.15c1.54-.7,1.75-1.94.46-2.75Z"/><path class="cls-6" d="M135.61,143.26c-1.54.7-1.75,1.94-.46,2.75l8,5a5.5,5.5,0,0,0,2.18.88,7.54,7.54,0,0,0,3-.67l11.29-5.15c1.54-.7,1.75-1.94.46-2.75L152,138.3a6.09,6.09,0,0,0-5.14-.19Z"/><path class="cls-6" d="M73.15,122.2a5.91,5.91,0,0,0-2.69.65L59.13,128c-1.54.7-1.75,1.94-.46,2.75l6.55,4.11a6.09,6.09,0,0,0,5.14.19l11.29-5.15c1.54-.7,1.75-1.94.46-2.75l-6.35-4A7.63,7.63,0,0,0,73.15,122.2Z"/><path class="cls-6" d="M124.69,110.29c1.54-.7,1.75-1.94.46-2.75l-6.55-4.11a6.09,6.09,0,0,0-5.14-.19l-11.29,5.15c-1.54.7-1.76,2-.49,2.79l6.32,4.15a5.93,5.93,0,0,0,5.11.24Z"/><path class="cls-6" d="M89.24,125.94a6.71,6.71,0,0,0,2.64-.69l11.29-5.15c1.54-.7,1.75-1.94.46-2.75l-6.55-4.11a6.09,6.09,0,0,0-5.14-.19L80.65,118.2c-1.54.7-1.75,1.94-.46,2.75l6.52,4.1A6.11,6.11,0,0,0,89.24,125.94Z"/><path class="cls-6" d="M157.13,133.44c-1.54.7-1.75,1.94-.46,2.75l8.06,5.06a6.09,6.09,0,0,0,5.14.19l11.29-5.15c1.54-.7,1.75-1.94.46-2.75l-8.06-5.06a6.09,6.09,0,0,0-5.14-.19Z"/><path class="cls-6" d="M264.57,84.45c-1.54.7-1.75,1.94-.46,2.75l8.06,5.06a6.09,6.09,0,0,0,5.14.19l11.22-5.12c1.54-.7,1.75-1.94.46-2.75l-8.06-5.06a6.09,6.09,0,0,0-5.14-.19Z"/><path class="cls-6" d="M286,74.67c-1.54.7-1.75,1.94-.46,2.75l8.06,5.06a6.09,6.09,0,0,0,5.14.19L310,77.53c1.54-.7,1.75-1.94.46-2.75l-8.06-5.06a6.09,6.09,0,0,0-5.14-.19Z"/><path class="cls-6" d="M338.89,69.37c-1.65.75-1.87,2.07-.5,2.93l2.36,1.48a4.88,4.88,0,0,0,4.12.15l9.28-4.23c1.55-.71,1.76-2,.47-2.77l-3.22-2a3,3,0,0,0-2.54-.09Z"/><path class="cls-6" d="M132.25,106.27a6.33,6.33,0,0,0,2.67-.65l11.29-5.15c1.54-.7,1.75-1.94.46-2.75l-6.55-4.11a6.09,6.09,0,0,0-5.14-.19l-11.29,5.15c-1.54.7-1.75,1.94-.46,2.75l6.55,4.11A5.39,5.39,0,0,0,132.25,106.27Z"/><path class="cls-6" d="M178.65,123.63c-1.54.7-1.75,1.94-.46,2.75l8.06,5.06a6.09,6.09,0,0,0,5.14.19l11.17-5.09c1.54-.7,1.75-1.94.46-2.75L195,118.73a6.09,6.09,0,0,0-5.14-.19Z"/><path class="cls-6" d="M200,113.87c-1.54.7-1.75,1.94-.46,2.75l8.06,5.06a6.09,6.09,0,0,0,5.14.19L224,116.73c1.54-.7,1.75-1.94.46-2.75l-8.06-5.06a6.09,6.09,0,0,0-5.14-.19Z"/><path class="cls-6" d="M234.62,98.65a6,6,0,0,0-2.62.65l-10.46,4.77c-1.54.7-1.75,1.94-.46,2.75l7.7,4.83a6.36,6.36,0,0,0,2.55.87,4.7,4.7,0,0,0,2.89-.43l10.51-4.79c1.54-.7,1.75-1.94.46-2.75l-8-5A6.23,6.23,0,0,0,234.62,98.65Z"/><path class="cls-6" d="M257,88.55a4.9,4.9,0,0,0-2.66.55l-12.15,5.54c-1.54.7-1.75,1.94-.46,2.75l8.06,5.06a6.09,6.09,0,0,0,5.14.19l12.12-5.53c1.54-.7,1.75-1.94.46-2.75l-7.86-4.94A6.44,6.44,0,0,0,257,88.55Z"/><path class="cls-6" d="M145.43,105.59a7.13,7.13,0,0,0-2.84.72l-11.32,5.16c-1.54.7-1.75,1.94-.46,2.75l5.94,3.73a4.26,4.26,0,0,0,2.42.89,4.51,4.51,0,0,0,2.86-.59l11.31-5.16c1.54-.7,1.75-1.94.46-2.75l-5.92-3.72A8.65,8.65,0,0,0,145.43,105.59Z"/><path class="cls-6" d="M202.84,107.73a4.55,4.55,0,0,0,2.87-.62l11.39-5.19c1.54-.7,1.75-1.94.46-2.75l-8-5a6.09,6.09,0,0,0-5.14-.19l-11.27,5.14c-1.54.7-1.75,1.94-.46,2.75l7.46,4.68C201.46,107.35,201.9,107.66,202.84,107.73Z"/><path class="cls-6" d="M237.77,92.49c1.54-.7,1.75-1.94.46-2.75l-8-5a6.09,6.09,0,0,0-5.14-.19l-10.45,4.76c-1.54.7-1.75,1.94-.46,2.75l8,5a6.09,6.09,0,0,0,5.14.19Z"/><path class="cls-6" d="M281.57,72.51c1.54-.7,1.75-1.94.46-2.75l-8-5a6.09,6.09,0,0,0-5.14-.19L257.7,69.69c-1.54.7-1.75,1.94-.46,2.75l8,5a6.09,6.09,0,0,0,5.14.19Z"/><path class="cls-6" d="M195.6,111.72c1.54-.7,1.75-1.94.46-2.75l-8-5a6.09,6.09,0,0,0-5.14-.19l-11.17,5.09c-1.54.7-1.75,1.94-.46,2.75l8,5a6.09,6.09,0,0,0,5.14.19Z"/><path class="cls-6" d="M260.1,82.22c1.55-.66,1.77-1.87.48-2.68l-8-5a6.09,6.09,0,0,0-5.14-.19l-12.12,5.53c-1.54.7-1.75,1.94-.46,2.75l7.51,4.72a6.26,6.26,0,0,0,5.16.26Z"/><path class="cls-6" d="M174.2,121.48c1.54-.7,1.75-1.94.46-2.75l-7.08-4.44a7.28,7.28,0,0,0-2.66-1.39,4.44,4.44,0,0,0-3.06.49l-11.6,5.29c-1.54.7-1.75,1.94-.46,2.75l8,5a6.09,6.09,0,0,0,5.14.19Z"/><path class="cls-6" d="M109.75,121.28c-1.54.7-1.75,1.94-.46,2.75l6.11,3.84a6.09,6.09,0,0,0,5.14.19l11.29-5.15c1.54-.7,1.75-1.94.46-2.75l-6.11-3.84a6.09,6.09,0,0,0-5.14-.19Z"/><path class="cls-6" d="M138.3,137a4.91,4.91,0,0,0,2.93-.53l11.45-5.22c1.54-.7,1.75-1.94.46-2.75l-8-5a6.09,6.09,0,0,0-5.14-.19l-11.29,5.15c-1.54.7-1.75,1.94-.46,2.75l7.36,4.62A15.11,15.11,0,0,0,138.3,137Z"/><path class="cls-6" d="M261,48.12l2.82-1.27,11.26-5.14c1.54-.7,1.75-1.94.46-2.75L269,34.86a6.09,6.09,0,0,0-5.14-.19L252.58,39.8c-1.54.7-1.75,1.94-.46,2.75l6.5,4.08Z"/><path class="cls-6" d="M189.1,80.92c1.54-.7,1.75-1.94.46-2.75L183,74.06a6.09,6.09,0,0,0-5.14-.19L166.61,79c-1.54.7-1.75,1.94-.46,2.75l6.55,4.11a6.09,6.09,0,0,0,5.14.19Z"/><path class="cls-6" d="M309.24,57.36a6.09,6.09,0,0,0,5.14.19l13.06-6c1.54-.7,1.75-1.94.46-2.75l-8-5a6.09,6.09,0,0,0-5.14-.19l-13.06,6c-1.54.7-1.75,1.94-.46,2.75Z"/><path class="cls-6" d="M232.13,61.3c1.54-.7,1.75-1.94.46-2.75l-6.12-3.84a10,10,0,0,0-2.55-1.08,5.59,5.59,0,0,0-2.93.58l-12.21,5.57c-1.54.7-1.75,1.94-.46,2.75l6.55,4.11a6.09,6.09,0,0,0,5.14.19Z"/><path class="cls-6" d="M209.78,71.49c1.54-.7,1.75-1.94.46-2.75L204,64.83a7.88,7.88,0,0,0-2.42-1,6,6,0,0,0-3,.59L188.11,69.2c-1.54.7-1.75,1.94-.46,2.75l6.55,4.11a6.09,6.09,0,0,0,5.14.19Z"/><path class="cls-6" d="M153.72,96.45a5.9,5.9,0,0,0,2.7-.63l11.19-5.1c1.54-.7,1.75-1.94.46-2.75l-6.55-4.11a6.09,6.09,0,0,0-5.14-.19l-11.17,5.09c-1.54.7-1.75,1.94-.46,2.75l6.42,4A6.55,6.55,0,0,0,153.72,96.45Z"/><path class="cls-6" d="M253.58,51.51c1.54-.7,1.75-1.94.46-2.75l-6.55-4.11a6.09,6.09,0,0,0-5.14-.19l-11.22,5.12c-1.54.7-1.75,1.94-.46,2.75l6.55,4.11a6.09,6.09,0,0,0,5.14.19Z"/><path class="cls-6" d="M303.72,44.52c1.54-.7,1.75-1.94.46-2.75l-6.11-3.84a6.09,6.09,0,0,0-5.14-.19l-11.25,5.13c-1.54.7-1.75,1.94-.46,2.75l6.11,3.84a6.09,6.09,0,0,0,5.14.19Z"/><g class="cls-8"><path class="cls-9" d="M113.6,175.14,109,177.25a.58.58,0,0,0-.16,1l1.72,1.08a.39.39,0,0,0,.38,0l4.64-2.11a.58.58,0,0,0,.16-1L114,175.15A.39.39,0,0,0,113.6,175.14Z"/><path class="cls-9" d="M300.89,22.26l-4.64,2.11a.58.58,0,0,0-.16,1l1.72,1.08a.39.39,0,0,0,.38,0l4.64-2.11a.58.58,0,0,0,.16-1l-1.72-1.08A.39.39,0,0,0,300.89,22.26Z"/><path class="cls-9" d="M315.08,32.43l-4.64,2.11a.58.58,0,0,0-.16,1L312,36.58a.39.39,0,0,0,.38,0L317,34.48a.58.58,0,0,0,.16-1l-1.72-1.08A.39.39,0,0,0,315.08,32.43Z"/><path class="cls-9" d="M82.59,156.38,78,158.49a.58.58,0,0,0-.16,1l1.72,1.08a.39.39,0,0,0,.38,0l4.64-2.11a.58.58,0,0,0,.16-1L83,156.39A.39.39,0,0,0,82.59,156.38Z"/><path class="cls-9" d="M67.31,146.73l-4.64,2.11a.58.58,0,0,0-.16,1l1.72,1.08a.39.39,0,0,0,.38,0l4.64-2.11a.58.58,0,0,0,.16-1l-1.72-1.08A.39.39,0,0,0,67.31,146.73Z"/><path class="cls-9" d="M40,127.27l-4.64,2.11a.58.58,0,0,0-.16,1l1.72,1.08a.39.39,0,0,0,.38,0l4.64-2.11a.58.58,0,0,0,.16-1l-1.72-1.08A.39.39,0,0,0,40,127.27Z"/><path class="cls-9" d="M62.84,116.74l-4.64,2.11a.58.58,0,0,0-.16,1l1.72,1.08a.39.39,0,0,0,.38,0l4.64-2.11a.58.58,0,0,0,.16-1l-1.72-1.08A.39.39,0,0,0,62.84,116.74Z"/><path class="cls-9" d="M85.71,106.21l-4.64,2.11a.58.58,0,0,0-.16,1l1.72,1.08a.39.39,0,0,0,.38,0l4.64-2.11a.58.58,0,0,0,.16-1l-1.72-1.08A.39.39,0,0,0,85.71,106.21Z"/><path class="cls-9" d="M106.6,96.16,102,98.28a.58.58,0,0,0-.16,1l1.72,1.08a.39.39,0,0,0,.38,0l4.64-2.11a.58.58,0,0,0,.16-1L107,96.18A.39.39,0,0,0,106.6,96.16Z"/><path class="cls-9" d="M129.18,85.9,124.54,88a.58.58,0,0,0-.16,1L126.1,90a.39.39,0,0,0,.38,0l4.64-2.11a.58.58,0,0,0,.16-1l-1.72-1.08A.39.39,0,0,0,129.18,85.9Z"/><path class="cls-9" d="M151.44,76.18l-4.64,2.11a.58.58,0,0,0-.16,1l1.72,1.08a.39.39,0,0,0,.38,0l4.64-2.11a.58.58,0,0,0,.16-1l-1.72-1.08A.39.39,0,0,0,151.44,76.18Z"/><path class="cls-9" d="M174,65.91,169.38,68a.58.58,0,0,0-.16,1l1.72,1.08a.39.39,0,0,0,.38,0L176,68a.58.58,0,0,0,.16-1l-1.72-1.08A.39.39,0,0,0,174,65.91Z"/><path class="cls-9" d="M196.41,55.37l-4.64,2.11a.58.58,0,0,0-.16,1l1.72,1.08a.39.39,0,0,0,.38,0l4.64-2.11a.58.58,0,0,0,.16-1l-1.72-1.08A.39.39,0,0,0,196.41,55.37Z"/><path class="cls-9" d="M218.2,45.63l-4.64,2.11a.58.58,0,0,0-.16,1l1.72,1.08a.39.39,0,0,0,.38,0l4.64-2.11a.58.58,0,0,0,.16-1l-1.72-1.08A.39.39,0,0,0,218.2,45.63Z"/><path class="cls-9" d="M242.05,34.86,237.42,37a.58.58,0,0,0-.16,1L239,39a.39.39,0,0,0,.38,0L244,36.9a.58.58,0,0,0,.16-1l-1.72-1.08A.39.39,0,0,0,242.05,34.86Z"/><path class="cls-9" d="M264.92,24.33l-4.64,2.11a.58.58,0,0,0-.16,1l1.72,1.08a.39.39,0,0,0,.38,0l4.64-2.11a.58.58,0,0,0,.16-1l-1.72-1.08A.39.39,0,0,0,264.92,24.33Z"/><path class="cls-9" d="M287.27,14.05l-4.64,2.11a.58.58,0,0,0-.16,1l1.72,1.08a.39.39,0,0,0,.38,0l4.64-2.11a.58.58,0,0,0,.16-1l-1.72-1.08A.39.39,0,0,0,287.27,14.05Z"/><path class="cls-9" d="M99.77,166.37l-4.64,2.11a.58.58,0,0,0-.16,1l1.72,1.08a.39.39,0,0,0,.38,0l4.64-2.11a.58.58,0,0,0,.16-1l-1.72-1.08A.39.39,0,0,0,99.77,166.37Z"/><path class="cls-10" d="M133.39,170.53c-.39.18-.44.49-.12.7l2,1.28a1.4,1.4,0,0,0,.55.22,1.92,1.92,0,0,0,.76-.17l2.87-1.31c.39-.18.44-.49.12-.7l-2-1.29a1.55,1.55,0,0,0-1.31,0Z"/><path class="cls-10" d="M154.42,161c-.39.18-.44.49-.12.7l2,1.28a1.4,1.4,0,0,0,.55.22,1.92,1.92,0,0,0,.76-.17l2.87-1.31c.39-.18.44-.49.12-.7l-2-1.29a1.55,1.55,0,0,0-1.31,0Z"/><path class="cls-10" d="M175.82,150.74c-.39.18-.44.49-.12.7l2,1.28a1.4,1.4,0,0,0,.55.22,1.92,1.92,0,0,0,.76-.17l2.87-1.31c.39-.18.44-.49.12-.7l-2-1.29a1.55,1.55,0,0,0-1.31,0Z"/><path class="cls-10" d="M292.27,98.16c-.39.18-.44.49-.12.7l2,1.28a1.4,1.4,0,0,0,.55.22,1.92,1.92,0,0,0,.76-.17l2.87-1.31c.39-.18.44-.49.12-.7l-2-1.29a1.55,1.55,0,0,0-1.31,0Z"/><path class="cls-10" d="M314.08,87.94c-.39.18-.44.49-.12.7l2,1.28a1.4,1.4,0,0,0,.55.22,1.91,1.91,0,0,0,.76-.17l2.87-1.31c.39-.18.44-.49.12-.7l-2-1.29a1.55,1.55,0,0,0-1.31,0Z"/><path class="cls-10" d="M346.57,53.57c-.39.18-.44.49-.12.7l2,1.28a1.4,1.4,0,0,0,.55.22,1.92,1.92,0,0,0,.76-.17l2.87-1.31c.39-.18.44-.49.12-.7l-2-1.29a1.55,1.55,0,0,0-1.31,0Z"/><path class="cls-10" d="M209.29,114.86c-.32.15-.36.4-.1.57l1.66,1a1.14,1.14,0,0,0,.45.18,1.56,1.56,0,0,0,.62-.14l2.33-1.06c.32-.15.36-.4.1-.57l-1.66-1a1.26,1.26,0,0,0-1.06,0Z"/><path class="cls-10" d="M123.56,153.86c-.32.14-.36.4-.1.57l1.66,1a1.14,1.14,0,0,0,.45.18,1.56,1.56,0,0,0,.62-.14l2.33-1.06c.32-.15.36-.4.1-.57l-1.66-1a1.26,1.26,0,0,0-1.06,0Z"/><path class="cls-10" d="M145.11,144.12c-.32.15-.36.4-.1.57l1.66,1a1.14,1.14,0,0,0,.45.18,1.56,1.56,0,0,0,.62-.14l2.33-1.06c.32-.14.36-.4.1-.57l-1.66-1a1.26,1.26,0,0,0-1.06,0Z"/><path class="cls-10" d="M166.66,134.37c-.32.15-.36.4-.1.57l1.66,1a1.13,1.13,0,0,0,.45.18,1.56,1.56,0,0,0,.62-.14l2.33-1.06c.32-.15.36-.4.1-.57l-1.66-1a1.26,1.26,0,0,0-1.06,0Z"/><path class="cls-10" d="M188.21,124.62c-.32.14-.36.4-.1.57l1.66,1a1.14,1.14,0,0,0,.45.18,1.56,1.56,0,0,0,.62-.14l2.33-1.06c.32-.15.36-.4.1-.57l-1.66-1a1.26,1.26,0,0,0-1.06,0Z"/><path class="cls-10" d="M231.31,105.13c-.32.14-.36.4-.1.57l1.66,1a1.14,1.14,0,0,0,.45.18,1.56,1.56,0,0,0,.62-.14l2.33-1.06c.32-.15.36-.4.1-.57l-1.66-1a1.26,1.26,0,0,0-1.06,0Z"/><path class="cls-10" d="M252.86,95.38c-.32.15-.36.4-.1.57l1.66,1a1.14,1.14,0,0,0,.45.18,1.56,1.56,0,0,0,.62-.14L257.81,96c.32-.15.36-.4.1-.57l-1.66-1a1.26,1.26,0,0,0-1.06,0Z"/><path class="cls-10" d="M274.4,85.64c-.32.14-.36.4-.1.57l1.66,1a1.14,1.14,0,0,0,.45.18,1.56,1.56,0,0,0,.62-.14l2.33-1.06c.32-.15.36-.4.1-.57l-1.66-1a1.26,1.26,0,0,0-1.06,0Z"/><path class="cls-10" d="M296,75.89c-.32.14-.36.4-.1.57l1.66,1a1.14,1.14,0,0,0,.45.18,1.55,1.55,0,0,0,.62-.14l2.33-1.06c.32-.14.36-.4.1-.57l-1.66-1a1.26,1.26,0,0,0-1.06,0Z"/><path class="cls-10" d="M203,100c-.32.14-.36.4-.1.57l1.66,1a1.12,1.12,0,0,0,.45.18,1.53,1.53,0,0,0,.62-.14l2.33-1.06c.32-.15.36-.4.1-.57l-1.66-1a1.26,1.26,0,0,0-1.06,0Z"/><path class="cls-10" d="M117.28,139c-.32.15-.36.4-.1.57l1.66,1a1.13,1.13,0,0,0,.45.18,1.56,1.56,0,0,0,.62-.14l2.33-1.06c.32-.14.36-.4.1-.57l-1.66-1a1.26,1.26,0,0,0-1.06,0Z"/><path class="cls-10" d="M138.82,129.26c-.32.14-.36.4-.1.57l1.66,1a1.13,1.13,0,0,0,.45.18,1.56,1.56,0,0,0,.62-.14l2.33-1.06c.32-.15.36-.4.1-.57l-1.66-1a1.26,1.26,0,0,0-1.06,0Z"/><path class="cls-10" d="M160.37,119.51c-.32.15-.36.4-.1.57l1.66,1a1.14,1.14,0,0,0,.45.18,1.56,1.56,0,0,0,.62-.14l2.33-1.06c.32-.15.36-.4.1-.57l-1.66-1a1.26,1.26,0,0,0-1.06,0Z"/><path class="cls-10" d="M181.92,109.76c-.32.15-.36.4-.1.57l1.66,1a1.14,1.14,0,0,0,.45.18,1.56,1.56,0,0,0,.62-.14l2.33-1.06c.32-.15.36-.4.1-.57l-1.66-1a1.26,1.26,0,0,0-1.06,0Z"/><path class="cls-10" d="M225,90.27c-.32.15-.36.4-.1.57l1.66,1a1.14,1.14,0,0,0,.45.18,1.56,1.56,0,0,0,.62-.14L230,90.86c.32-.14.36-.4.1-.57l-1.66-1a1.26,1.26,0,0,0-1.06,0Z"/><path class="cls-10" d="M246.57,80.52c-.32.14-.36.4-.1.57l1.66,1a1.11,1.11,0,0,0,.45.18,1.53,1.53,0,0,0,.62-.14l2.33-1.06c.32-.15.36-.4.1-.57l-1.66-1a1.26,1.26,0,0,0-1.06,0Z"/><path class="cls-10" d="M268.12,70.77c-.32.15-.36.4-.1.57l1.66,1a1.14,1.14,0,0,0,.45.18,1.56,1.56,0,0,0,.62-.14l2.33-1.06c.32-.15.36-.4.1-.57l-1.66-1a1.26,1.26,0,0,0-1.06,0Z"/><path class="cls-10" d="M289.67,61c-.32.15-.36.4-.1.57l1.66,1a1.14,1.14,0,0,0,.45.18,1.56,1.56,0,0,0,.62-.14l2.33-1.06c.32-.15.36-.4.1-.57l-1.66-1A1.26,1.26,0,0,0,292,60Z"/><path class="cls-10" d="M312.77,50.51c-.32.15-.36.4-.1.57l1.66,1a1.13,1.13,0,0,0,.45.18,1.56,1.56,0,0,0,.62-.14l2.33-1.06c.32-.15.36-.4.1-.57l-1.66-1a1.26,1.26,0,0,0-1.06,0Z"/><path class="cls-10" d="M182.93,92.39c-.32.15-.36.4-.1.57l1.66,1a1.14,1.14,0,0,0,.45.18,1.56,1.56,0,0,0,.62-.14L187.89,93c.32-.15.36-.4.1-.57l-1.66-1a1.26,1.26,0,0,0-1.06,0Z"/><path class="cls-10" d="M97.21,131.4c-.32.14-.36.4-.1.57l1.66,1a1.13,1.13,0,0,0,.45.18,1.56,1.56,0,0,0,.62-.14l2.33-1.06c.32-.15.36-.4.1-.57l-1.66-1a1.26,1.26,0,0,0-1.06,0Z"/><path class="cls-10" d="M118.76,121.65c-.32.15-.36.4-.1.57l1.66,1a1.13,1.13,0,0,0,.45.18,1.55,1.55,0,0,0,.62-.14l2.33-1.06c.32-.14.36-.4.1-.57l-1.66-1a1.26,1.26,0,0,0-1.06,0Z"/><path class="cls-10" d="M140.31,111.9c-.32.14-.36.4-.1.57l1.66,1a1.14,1.14,0,0,0,.45.18,1.56,1.56,0,0,0,.62-.14l2.33-1.06c.32-.15.36-.4.1-.57l-1.66-1a1.26,1.26,0,0,0-1.06,0Z"/><path class="cls-10" d="M161.85,102.16c-.32.15-.36.4-.1.57l1.66,1a1.13,1.13,0,0,0,.45.18,1.56,1.56,0,0,0,.62-.14l2.33-1.06c.32-.15.36-.4.1-.57l-1.66-1a1.26,1.26,0,0,0-1.06,0Z"/><path class="cls-10" d="M205,82.66c-.32.15-.36.4-.1.57l1.66,1a1.13,1.13,0,0,0,.45.18,1.57,1.57,0,0,0,.62-.14l2.33-1.06c.32-.14.36-.4.1-.57l-1.66-1a1.26,1.26,0,0,0-1.06,0Z"/><path class="cls-10" d="M226.5,72.92c-.32.15-.36.4-.1.57l1.66,1a1.13,1.13,0,0,0,.45.18,1.56,1.56,0,0,0,.62-.14l2.33-1.06c.32-.15.36-.4.1-.57l-1.66-1a1.26,1.26,0,0,0-1.06,0Z"/><path class="cls-10" d="M248,63.17c-.32.15-.36.4-.1.57l1.66,1a1.14,1.14,0,0,0,.45.18,1.56,1.56,0,0,0,.62-.14L253,63.76c.32-.15.36-.4.1-.57l-1.66-1a1.26,1.26,0,0,0-1.06,0Z"/><path class="cls-10" d="M269.6,53.42c-.32.15-.36.4-.1.57l1.66,1a1.14,1.14,0,0,0,.45.18,1.56,1.56,0,0,0,.62-.14L274.56,54c.32-.15.36-.4.1-.57l-1.66-1a1.26,1.26,0,0,0-1.06,0Z"/><path class="cls-10" d="M290.3,43.34c-.32.14-.36.4-.1.57l1.66,1a1.14,1.14,0,0,0,.45.18,1.56,1.56,0,0,0,.62-.14l2.33-1.06c.32-.15.36-.4.1-.57l-1.66-1a1.26,1.26,0,0,0-1.06,0Z"/><path class="cls-10" d="M132,99.46c-.32.15-.36.4-.1.57l1.66,1a1.14,1.14,0,0,0,.45.18,1.56,1.56,0,0,0,.62-.14l2.33-1.06c.32-.15.36-.4.1-.57l-1.66-1a1.26,1.26,0,0,0-1.06,0Z"/><path class="cls-10" d="M46.23,138.46c-.32.15-.36.4-.1.57l1.66,1a1.13,1.13,0,0,0,.45.18,1.55,1.55,0,0,0,.62-.14L51.19,139c.32-.15.36-.4.1-.57l-1.66-1a1.26,1.26,0,0,0-1.06,0Z"/><path class="cls-10" d="M67.78,128.71c-.32.15-.36.4-.1.57l1.66,1a1.13,1.13,0,0,0,.45.18,1.55,1.55,0,0,0,.62-.14l2.33-1.06c.32-.15.36-.4.1-.57l-1.66-1a1.26,1.26,0,0,0-1.06,0Z"/><path class="cls-10" d="M89.33,119c-.32.15-.36.4-.1.57l1.66,1a1.13,1.13,0,0,0,.45.18,1.56,1.56,0,0,0,.62-.14l2.33-1.06c.32-.15.36-.4.1-.57l-1.66-1a1.26,1.26,0,0,0-1.06,0Z"/><path class="cls-10" d="M110.88,109.22c-.32.15-.36.4-.1.57l1.66,1a1.14,1.14,0,0,0,.45.18,1.56,1.56,0,0,0,.62-.14l2.33-1.06c.32-.15.36-.4.1-.57l-1.66-1a1.26,1.26,0,0,0-1.06,0Z"/><path class="cls-10" d="M154,89.73c-.32.14-.36.4-.1.57l1.66,1a1.14,1.14,0,0,0,.45.18,1.56,1.56,0,0,0,.62-.14l2.33-1.06c.32-.15.36-.4.1-.57l-1.66-1a1.26,1.26,0,0,0-1.06,0Z"/><path class="cls-10" d="M175.52,80c-.32.15-.36.4-.1.57l1.66,1a1.13,1.13,0,0,0,.45.18,1.56,1.56,0,0,0,.62-.14l2.33-1.06c.32-.15.36-.4.1-.57l-1.66-1a1.26,1.26,0,0,0-1.06,0Z"/><path class="cls-10" d="M197.07,70.23c-.32.14-.36.4-.1.57l1.66,1a1.14,1.14,0,0,0,.45.18,1.56,1.56,0,0,0,.62-.14L202,70.82c.32-.15.36-.4.1-.57l-1.66-1a1.26,1.26,0,0,0-1.06,0Z"/><path class="cls-10" d="M218.62,60.49c-.32.15-.36.4-.1.57l1.66,1a1.14,1.14,0,0,0,.45.18,1.56,1.56,0,0,0,.62-.14l2.33-1.06c.32-.15.36-.4.1-.57l-1.66-1a1.26,1.26,0,0,0-1.06,0Z"/><path class="cls-10" d="M239.33,50.4c-.32.15-.36.4-.1.57l1.66,1a1.14,1.14,0,0,0,.45.18,1.56,1.56,0,0,0,.62-.14L244.28,51c.32-.15.36-.4.1-.57l-1.66-1a1.26,1.26,0,0,0-1.06,0Z"/><path class="cls-10" d="M261.16,40.39c-.32.15-.36.4-.1.57l1.66,1a1.14,1.14,0,0,0,.45.18,1.56,1.56,0,0,0,.62-.14L266.12,41c.32-.15.36-.4.1-.57l-1.66-1a1.26,1.26,0,0,0-1.06,0Z"/><path class="cls-10" d="M346.37,68.39l1.69.82c.15.07.12.34-.06.42l-1.64.74a.17.17,0,0,1-.24-.17l0-1.55C346.07,68.47,346.24,68.33,346.37,68.39Z"/><path class="cls-10" d="M351.24,73.55l1.39-.77a.16.16,0,0,1,.24.11l.31,1.4c0,.17-.12.35-.27.29L351.22,74C351.06,73.9,351.08,73.64,351.24,73.55Z"/><path class="cls-10" d="M336.65,80.58a.35.35,0,0,1,.52-.05l.7.62c.16.14.12.29-.09.33l-1.79.38c-.21,0-.27-.06-.14-.23Z"/><path class="cls-10" d="M367.81,66.44c-.21,0-.25.17-.09.31l.7.62a.39.39,0,0,0,.54,0l.9-1c.14-.16.09-.26-.12-.22Z"/></g><path class="cls-11" d="M20.22,140.32c.79,5.23-2.65,9.49-7.69,9.5S2.76,145.59,2,140.36s2.65-9.49,7.69-9.5S19.43,135.09,20.22,140.32Z"/><g class="cls-12"><path class="cls-13" d="M9.67,130.86c-5,0-8.48,4.26-7.69,9.5a11.49,11.49,0,0,0,6.31,8.46c1.62-5.43,3.58-12,5.14-17.17A9.62,9.62,0,0,0,9.67,130.86Z"/></g></g></g></svg>