<svg xmlns="http://www.w3.org/2000/svg" xmlns:xlink="http://www.w3.org/1999/xlink" viewBox="0 0 354.03 177.86"><defs><style>.cls-1{fill:#303a49;opacity:0.6;}.cls-2{fill:#bca597;}.cls-3{opacity:0.51;}.cls-4{fill:#a69285;}.cls-5{fill:#a18d81;}.cls-13,.cls-6{fill:#c7b8af;}.cls-7{opacity:0.75;}.cls-8{fill:#ffece1;}.cls-19,.cls-9{fill:#232426;}.cls-9{opacity:0.7;}.cls-10,.cls-12{fill:none;stroke:#c7b8af;stroke-linecap:round;stroke-linejoin:round;stroke-width:1.94px;}.cls-10,.cls-11,.cls-13{opacity:0.87;}.cls-14{fill:#998d86;opacity:0.38;}.cls-15{opacity:0.09;}.cls-16{fill:#6e6560;}.cls-17{fill:#8bd0e8;}.cls-17,.cls-18{opacity:0.25;}.cls-18{fill:#8be6e8;}.cls-19{opacity:0.42;}.cls-20{fill:url(#linear-gradient);}.cls-21{opacity:0.3;}.cls-22{fill:#ebd9cf;}.cls-23{fill:#f2e4dc;}</style><linearGradient id="linear-gradient" x1="173.49" y1="120.27" x2="173.49" gradientUnits="userSpaceOnUse"><stop offset="0" stop-color="#bfbbbf"/><stop offset="0.39" stop-color="#c7c1c6"/><stop offset="1" stop-color="#ded3d9"/></linearGradient></defs><title>Asset 13</title><g id="Layer_2" data-name="Layer 2"><g id="Layer_1-2" data-name="Layer 1"><path class="cls-1" d="M353.88,80.37a3.39,3.39,0,0,0,0-1.91v-.13l-.06,0a3.23,3.23,0,0,0-1.72-1.92L206.24,9.22a15.5,15.5,0,0,0-12.92,0L2.47,96.25A3.23,3.23,0,0,0,.73,98.19l-.3.09v8.47l.1,0a3.27,3.27,0,0,0,1.93,3l144.07,66.36c.31.14.63.28.95.4v0c.34.14.68.29,1,.4s.54.15.81.23.8.24,1.21.33.71.12,1.06.18.66.12,1,.16.81.06,1.22.08.56,0,.85,0c.44,0,.88,0,1.32-.05.25,0,.5,0,.74,0,.46,0,.92-.12,1.37-.2.23,0,.46-.06.68-.11.46-.09.92-.22,1.37-.35l.65-.18c.45-.14.89-.32,1.33-.49.18-.07.36-.12.54-.2h0l.37-.15L352.09,89.84a3.31,3.31,0,0,0,1.8-4Z"/><path class="cls-2" d="M353.88,80.18V72.66l-41.79-13L206.24,10.95a15.5,15.5,0,0,0-12.92,0L38.7,81.45.43,92.59v8.47l.1,0a3.27,3.27,0,0,0,1.93,3l144.07,66.36a19.79,19.79,0,0,0,16.49,0L352.09,84.17A3.31,3.31,0,0,0,353.88,80.18Z"/><g class="cls-3"><path class="cls-4" d="M156.65,157.69c-8.6.61-120.9-53-149.87-66.95L.43,92.59v8.47l.1,0a3.27,3.27,0,0,0,1.93,3l144.07,66.36a19.78,19.78,0,0,0,16.12.19V155.69A30.67,30.67,0,0,1,156.65,157.69Z"/></g><path class="cls-5" d="M6.11,90.94.43,92.59v8.47l.1,0a3.27,3.27,0,0,0,1.93,3l144.07,66.36c.31.14.63.28.95.4V159C123.07,150.9,25.34,100.83,6.11,90.94Z"/><path class="cls-6" d="M193.33,3.51,2.47,90.57a3.32,3.32,0,0,0,0,6L146.53,163A19.79,19.79,0,0,0,163,163L352.09,76.76a3.32,3.32,0,0,0,0-6L206.24,3.54A15.5,15.5,0,0,0,193.33,3.51Z"/><g class="cls-7"><path class="cls-8" d="M54.9,120.38l3.66,1.6c2.32,1,5.66,2.48,9.64,4.28s8.63,3.85,13.59,6.12l15.54,7.1,15.5,7.2c2.48,1.14,4.85,2.28,7.12,3.34l6.37,3c3.95,1.86,7.22,3.45,9.51,4.54l3.6,1.74a.34.34,0,0,1-.29.62l-3.66-1.6c-2.32-1-5.66-2.49-9.64-4.28l-6.42-2.89c-2.28-1-4.69-2.1-7.16-3.24l-15.54-7.1-15.5-7.19c-4.95-2.29-9.54-4.49-13.49-6.35s-7.22-3.45-9.51-4.55L54.61,121a.34.34,0,0,1,.29-.63Z"/></g><path class="cls-9" d="M201.68,12.17l-182,83,85.06,39.18a8.11,8.11,0,0,0,6.76,0L290.11,52.9Z"/><line class="cls-10" x1="89.29" y1="133.93" x2="221.01" y2="73.85"/><line class="cls-10" x1="75.53" y1="127.05" x2="207.25" y2="66.97"/><line class="cls-10" x1="63.35" y1="121.49" x2="195.08" y2="61.41"/><line class="cls-10" x1="52.5" y1="114.88" x2="184.23" y2="54.79"/><g class="cls-11"><line class="cls-12" x1="27.04" y1="86.96" x2="125.07" y2="132.12"/></g><path class="cls-13" d="M108.43,129.95l-3.19,1.45a.34.34,0,0,0,0,.61l1.41.65a.34.34,0,0,0,.28,0l3.19-1.45a.34.34,0,0,0,0-.61l-1.41-.65A.34.34,0,0,0,108.43,129.95Z"/><path class="cls-13" d="M83,118.66l-3.19,1.45a.34.34,0,0,0,0,.61l1.41.65a.34.34,0,0,0,.28,0l3.19-1.45a.34.34,0,0,0,0-.61l-1.41-.65A.34.34,0,0,0,83,118.66Z"/><path class="cls-13" d="M70.46,112.83l-3.19,1.45a.34.34,0,0,0,0,.61l1.41.65a.34.34,0,0,0,.28,0l3.19-1.45a.34.34,0,0,0,0-.61l-1.41-.65A.34.34,0,0,0,70.46,112.83Z"/><path class="cls-13" d="M58.81,106.75l-3.19,1.45a.34.34,0,0,0,0,.61l1.41.65a.34.34,0,0,0,.28,0L60.5,108a.34.34,0,0,0,0-.61l-1.41-.65A.34.34,0,0,0,58.81,106.75Z"/><path class="cls-13" d="M97.05,124.65l-3.19,1.45a.34.34,0,0,0,0,.61l1.41.65a.34.34,0,0,0,.28,0l3.19-1.45a.34.34,0,0,0,0-.61l-1.41-.65A.34.34,0,0,0,97.05,124.65Z"/><g class="cls-11"><line class="cls-12" x1="41.68" y1="81.32" x2="139.71" y2="126.47"/></g><path class="cls-14" d="M241.9,82.52l-50.23,22.91a1.3,1.3,0,0,0,0,2.37l32.87,15.14a7.18,7.18,0,0,0,6,0l47.77-21.79a1.3,1.3,0,0,0,0-2.37L243,82.52A1.3,1.3,0,0,0,241.9,82.52Z"/><g class="cls-15"><path class="cls-16" d="M137.09,149.23,326.15,63a3.28,3.28,0,0,0,1.92-3.34L206.24,3.54a15.5,15.5,0,0,0-12.92,0L2.47,90.57A3.28,3.28,0,0,0,.55,93.91l120,55.29A19.79,19.79,0,0,0,137.09,149.23Z"/></g><path class="cls-17" d="M346.83,31.47V67.72L153.92,154.47a16.16,16.16,0,0,1-12.93.09L3.87,95.77l146.6,24.35Z"/><path class="cls-18" d="M345.5,28.78V44.91L148.36,135.15a16.16,16.16,0,0,1-12.93.09L4.4,93.65l140.52,7.15Z"/><g class="cls-11"><path class="cls-8" d="M197.19,147.18l17.4-8.09,17.87-8.23,20.5-9.39,20.53-9.33,17.93-8.1,17.52-7.84a.21.21,0,0,1,.17.38l-17.41,8.09-17.87,8.23-20.5,9.39-20.53,9.33-17.93,8.1-17.52,7.84a.21.21,0,0,1-.17-.38Z"/></g><path class="cls-19" d="M16.37,105.61v2.67a.44.44,0,0,0,.26.4l5.72,2.64a.44.44,0,0,0,.63-.4v-2.67a.44.44,0,0,0-.26-.4L17,105.21A.44.44,0,0,0,16.37,105.61Z"/><path class="cls-19" d="M28.9,111.17v2.67a.44.44,0,0,0,.26.4l5.72,2.64a.44.44,0,0,0,.63-.4V113.8a.44.44,0,0,0-.26-.4l-5.72-2.64A.44.44,0,0,0,28.9,111.17Z"/><path class="cls-19" d="M40.72,116.64v2.67a.44.44,0,0,0,.26.4l5.72,2.64a.44.44,0,0,0,.63-.4v-2.67a.44.44,0,0,0-.26-.4l-5.72-2.64A.44.44,0,0,0,40.72,116.64Z"/><path class="cls-5" d="M192.8,3.77,1.94,90.82a3.32,3.32,0,0,0,0,6l137.55,24.7c6.4,1.21,11.25,2.42,16.49,0L345,35.35a3.32,3.32,0,0,0,0-6L205.72,3.79A15.5,15.5,0,0,0,192.8,3.77Z"/><path class="cls-20" d="M192.8,1.4,1.94,88.45a3.32,3.32,0,0,0,0,6l137.55,24.7s11.25,2.42,16.49,0L345,33a3.32,3.32,0,0,0,0-6L205.72,1.42A15.5,15.5,0,0,0,192.8,1.4Z"/><g class="cls-21"><path class="cls-6" d="M205.72,1.42a15.5,15.5,0,0,0-12.92,0L1.94,88.45a3.32,3.32,0,0,0,0,6l94.81,17L243.58,8.36Z"/></g><path class="cls-22" d="M345.42,27.14A3.28,3.28,0,0,1,344,28.39L154.91,114.63c-3.89,1.77-14.58,3.11-22,2.7l6.55,1.85c5.17,1.46,11.25,2.42,16.49,0L345,33A3.32,3.32,0,0,0,345.42,27.14Z"/><path class="cls-8" d="M176.3,109.47l6-2.79c3.81-1.77,9.22-4.33,15.76-7.34L220.34,89,246,77.31l25.65-11.65L294,55.56l15.87-7.09,6-2.68a.31.31,0,0,1,.25.56l-6,2.79-15.76,7.34-22.31,10.3L246.5,78.51,220.85,90.16l-22.41,10.1c-6.56,3-12,5.37-15.87,7.09l-6,2.68a.31.31,0,0,1-.25-.56Z"/><path class="cls-23" d="M172.08,49.2l-13.9,6.49a4.63,4.63,0,0,0,.51,8.6l15.16,5a15.08,15.08,0,0,0,11.1-.65l14.37-6.71a4.28,4.28,0,0,0-.47-7.94l-16.36-5.4A14.15,14.15,0,0,0,172.08,49.2Z"/></g></g></svg>