<svg xmlns="http://www.w3.org/2000/svg" xmlns:xlink="http://www.w3.org/1999/xlink" viewBox="0 0 110.9 58.71"><defs><style>.cls-1{fill:#303a49;opacity:0.6;}.cls-2{fill:#898583;}.cls-12,.cls-3{fill:#bcbcc1;}.cls-4{fill:url(#linear-gradient);}.cls-5{opacity:0.44;}.cls-6{fill:#c3bebb;}.cls-7{opacity:0.42;}.cls-8{fill:#fbf4f1;}.cls-9{opacity:0.17;}.cls-10{fill:#5c5c5c;}.cls-11{fill:#fff;}.cls-12{opacity:0.58;}</style><linearGradient id="linear-gradient" x1="116.25" y1="47.69" x2="42.25" y2="16.36" gradientUnits="userSpaceOnUse"><stop offset="0" stop-color="#bfbbbf"/><stop offset="0.39" stop-color="#c7c1c6"/><stop offset="1" stop-color="#ded3d9"/></linearGradient></defs><title>Asset 11</title><g id="Layer_2" data-name="Layer 2"><g id="Layer_1-2" data-name="Layer 1"><path class="cls-1" d="M110.57,38.08a6.42,6.42,0,0,0-.05-1.33,6.34,6.34,0,0,0-2.27-4c-1-.8-2-1.57-2.94-2.33l-.94-.71q-1-.77-2-1.51l-1.06-.77-2-1.4-1-.66q-1.4-.95-2.79-1.84l-.95-.6-1.9-1.18L91.42,21l-1.57-.92-1.31-.75-.39-.22h0A130.42,130.42,0,0,0,54.2,5.95h0L54,5.9l-1-.22-.92-.2-1-.2-.85-.17-.94-.18-.76-.14-1.89-.32-.43-.07-.87-.13-.58-.08L44,4.09,43.43,4l-.7-.09-.5-.06-.63-.07-.45,0-.93-.08-.42,0-.41,0-.34,0-.31,0-.3,0h-.78a24.26,24.26,0,0,0-3.24.11l-.59.06c-.61.06-1.29.15-2,.26s-1.53.25-2.38.43c-1.13.23-2.36.52-3.68.89a58.22,58.22,0,0,0-6.44,2.23c-1.54.63-3.14,1.37-4.8,2.22C7,13.57,2.78,16.87.55,19a1.76,1.76,0,0,0-.5.87,1.79,1.79,0,0,0,.14,1.17,2.57,2.57,0,0,0,.28,1.48,2.45,2.45,0,0,0,1.13,2.75c5.73,3.22,69.72,32.26,73.74,33s12.58,1,25.83-6.18c9-4.85,9.9-9.32,9.56-11.71A5.81,5.81,0,0,0,110.57,38.08Z"/><path class="cls-2" d="M1.59,21.79C7.32,25,72.31,54.38,76.33,55.17s11.91.66,25.17-6.5,8.62-13.54,8.62-13.54L74.3,20,14.49,11S5.66,13.33,1.93,16.56C.14,18.1-.26,20.75,1.59,21.79Z"/><path class="cls-3" d="M1.59,21.23c5.73,3.22,68.87,31.89,73.74,33s12.58,1,25.83-6.18,9-14.56,9-14.56L74.3,18.39l-59.82-9s-9,2.48-12.87,5.65C-.33,16.69-.33,20.14,1.59,21.23Z"/><path class="cls-4" d="M108.62,38.74a6.34,6.34,0,0,0-.37-9.51C73.82,1.12,39.16.07,37.64,0c0,0-9.9-.61-23.16,6.2C7,10.07,2.78,13.37.55,15.52a1.78,1.78,0,0,0,.95,3c10.85,1.77,39.38,5.23,69,30.29a9.84,9.84,0,0,0,7.23,2.32A62.85,62.85,0,0,0,97,46,39.86,39.86,0,0,0,108.62,38.74Z"/><g class="cls-5"><path class="cls-6" d="M21,8.09C35,.92,45.46,1.56,45.46,1.56a76.74,76.74,0,0,1,8.78.9A90.39,90.39,0,0,0,37.64,0s-9.9-.61-23.16,6.2C7,10.07,2.78,13.37.55,15.52a1.78,1.78,0,0,0,.95,3l4.25.68a1.84,1.84,0,0,1,.58-1.33C8.68,15.65,13.11,12.16,21,8.09Z"/></g><g class="cls-7"><path class="cls-8" d="M108.25,29.23A136.94,136.94,0,0,0,88.14,15.58a35.15,35.15,0,0,1-13.66,10c-10,4.23-20.76,6-28.34,6.8A133,133,0,0,1,70.45,48.85a9.84,9.84,0,0,0,7.23,2.32A62.84,62.84,0,0,0,97,46a39.86,39.86,0,0,0,11.59-7.23A6.34,6.34,0,0,0,108.25,29.23Z"/></g><g class="cls-9"><path class="cls-10" d="M110.36,38.21l-.15.32a6.61,6.61,0,0,1-1,1.49c-.19.22-.42.42-.64.63-.46.44-1,.92-1.65,1.43a39.15,39.15,0,0,1-4.86,3.29,55.35,55.35,0,0,1-6.83,3.3,68.61,68.61,0,0,1-8.51,2.88c-1.54.41-3.14.77-4.8,1.07-.83.15-1.67.27-2.52.39a23.45,23.45,0,0,1-2.65.22,10.59,10.59,0,0,1-5.38-1.51,10.33,10.33,0,0,1-1.18-.82l-1-.85L67,48.34C64.22,46.15,61.25,44,58.2,42s-6.16-3.93-9.3-5.71-6.28-3.4-9.37-4.88-6.12-2.82-9.06-3.92A77.59,77.59,0,0,0,22,24.76c-5.33-1.33-9.7-2.59-12.85-3.25a41.85,41.85,0,0,1-5.06-1.33h0a.37.37,0,0,1,.14-.73,41.66,41.66,0,0,0,5.1,1.19c3.16.6,7.58,1.68,13,2.94a79.81,79.81,0,0,1,8.63,2.62c3,1.08,6.09,2.37,9.22,3.86s6.32,3.12,9.49,4.88,6.33,3.7,9.42,5.72,6.06,4.23,8.94,6.49l2.09,1.72,1,.85a8.8,8.8,0,0,0,1,.71,9.07,9.07,0,0,0,4.6,1.32,22.38,22.38,0,0,0,2.46-.2c.83-.1,1.65-.22,2.45-.35,1.62-.26,3.19-.59,4.7-1a67.38,67.38,0,0,0,8.39-2.68,60.46,60.46,0,0,0,6.77-3.25,35.15,35.15,0,0,0,4.65-3c1.24-1,2.06-1.67,2.67-2.23a8,8,0,0,0,.86-1.13h0c.09-.18.49-1.35.67-1.26S110.7,37.41,110.36,38.21Z"/></g><path class="cls-11" d="M110.36,36.93l-.15.32a6.61,6.61,0,0,1-1,1.49c-.19.21-.42.42-.64.63-.46.44-1,.92-1.65,1.43a39.17,39.17,0,0,1-4.86,3.29,55.35,55.35,0,0,1-6.83,3.3,68.64,68.64,0,0,1-8.51,2.88c-1.54.41-3.14.77-4.8,1.07-.83.15-1.67.27-2.52.39a23.45,23.45,0,0,1-2.65.22,10.59,10.59,0,0,1-5.38-1.51,10.32,10.32,0,0,1-1.18-.82l-1-.85L67,47.06c-2.83-2.19-5.79-4.34-8.84-6.35S52,36.78,48.91,35s-6.28-3.4-9.37-4.88-6.12-2.82-9.06-3.92A75.83,75.83,0,0,0,22,23.65c-5.33-1.33-9.82-2.32-13-3l-4.94-1h0a.37.37,0,0,1,.14-.73l5,.88c3.16.6,7.69,1.4,13.08,2.66a77.12,77.12,0,0,1,8.63,2.45c3,1.08,6.09,2.37,9.22,3.86s6.32,3.12,9.49,4.88,6.33,3.7,9.42,5.72S65.15,43.6,68,45.86l2.09,1.72,1,.85a8.8,8.8,0,0,0,1,.71,9.07,9.07,0,0,0,4.6,1.32,22.37,22.37,0,0,0,2.46-.2c.83-.1,1.65-.22,2.45-.35,1.62-.26,3.19-.59,4.7-1a67.35,67.35,0,0,0,8.39-2.68,61.54,61.54,0,0,0,6.78-3.09,38.2,38.2,0,0,0,4.82-3.08c2.88-2.6,3.57-3.4,4-4.41C110.49,35.35,110.68,36.22,110.36,36.93Z"/><path class="cls-12" d="M85.71,28.79l-3.37,1.56a2.1,2.1,0,0,0-.45,3.55l3.25,2.63a3.89,3.89,0,0,0,4.08.51l3.15-1.45A2.1,2.1,0,0,0,92.8,32l-3.38-2.83A4,4,0,0,0,85.71,28.79Z"/></g></g></svg>