<svg xmlns="http://www.w3.org/2000/svg" xmlns:xlink="http://www.w3.org/1999/xlink" viewBox="0 0 134.56 71.22"><defs><style>.cls-1{fill:#d7eafb;}.cls-2{fill:#f9fafe;}.cls-3{fill:#f0a734;}.cls-4{fill:#3391e7;}.cls-5{fill:#00aee7;}.cls-6{fill:url(#linear-gradient);}</style><linearGradient id="linear-gradient" x1="92.82" y1="71.22" x2="92.82" y2="4.64" gradientUnits="userSpaceOnUse"><stop offset="0" stop-color="#69a9f5"/><stop offset="0.32" stop-color="#64b1ed"/><stop offset="0.83" stop-color="#56c8d8"/><stop offset="1" stop-color="#51d1d0"/></linearGradient></defs><title>Asset 8</title><g id="Layer_2" data-name="Layer 2"><g id="Layer_1-2" data-name="Layer 1"><path class="cls-1" d="M65.33,11.94a25.24,25.24,0,0,0-6,3.2c-.17-12-10-18.12-22.06-13.72-11.82,4.3-21.46,17.1-22,29C6.6,34.95,0,44.83,0,53.86c0,10,8.12,15.19,18.15,11.54L65.33,48.23c10-3.65,18.15-14.73,18.15-24.75S75.35,8.29,65.33,11.94Z"/><polyline class="cls-1" points="53.78 2.84 58.03 6.34 54.63 5.08"/><polygon class="cls-1" points="3.57 63.38 7.74 66.87 13.01 66.58 3.57 63.38"/><polyline class="cls-1" points="79.67 13.74 82.34 15.97 82.34 17.44 76 13.28"/><path class="cls-2" d="M69.07,15a25.21,25.21,0,0,0-6,3.2C62.9,6.26,53.09.12,41,4.52c-11.82,4.3-21.46,17.1-22,29C10.34,38,3.74,47.93,3.74,57c0,10,8.12,15.19,18.15,11.54L69.07,51.32c10-3.65,18.15-14.73,18.15-24.75S79.09,11.39,69.07,15Z"/><polygon class="cls-3" points="50.92 64.92 55.09 68.42 60.35 68.12 50.92 64.92"/><path class="cls-4" d="M112.68,13.49a25.21,25.21,0,0,0-6,3.2c-.17-12-10-18.12-22.06-13.72-11.82,4.3-21.47,17.1-22,29-8.64,4.54-15.24,14.42-15.24,23.46,0,10,8.12,15.19,18.15,11.54l47.19-17.17C122.7,46.13,130.82,35,130.82,25S122.7,9.84,112.68,13.49Z"/><polyline class="cls-5" points="101.12 4.38 105.38 7.89 101.98 6.63"/><polyline class="cls-5" points="127.02 15.29 129.69 17.52 129.69 18.98 123.35 14.83"/><path class="cls-6" d="M116.41,16.58a25.21,25.21,0,0,0-6,3.2c-.17-12-10-18.12-22.06-13.72-11.82,4.3-21.47,17.1-22,29C57.68,39.58,51.08,49.47,51.08,58.5c0,10,8.12,15.19,18.15,11.54l47.19-17.17c10-3.65,18.15-14.73,18.15-24.75S126.44,12.93,116.41,16.58Z"/></g></g></svg>