<svg xmlns="http://www.w3.org/2000/svg" xmlns:xlink="http://www.w3.org/1999/xlink" viewBox="0 0 191.46 102.24"><defs><style>.cls-1{fill:#303a49;opacity:0.6;}.cls-2{fill:#877d7c;}.cls-3{fill:#decdcb;}.cls-4{fill:#c9bab9;}.cls-5{fill:#f7ebe3;}.cls-6{fill:#fff;}.cls-7{fill:url(#linear-gradient);}.cls-13,.cls-14,.cls-20,.cls-8,.cls-9{fill:none;}.cls-8,.cls-9{stroke:#69605f;}.cls-13,.cls-14,.cls-20,.cls-8{stroke-miterlimit:10;}.cls-8{stroke-width:1.23px;}.cls-9{stroke-linecap:round;stroke-linejoin:round;stroke-width:1.6px;}.cls-10{opacity:0.11;}.cls-11{fill:#b5a4a2;}.cls-12{fill:#c2b0ad;}.cls-13{stroke:#fff;stroke-width:0.59px;}.cls-14{stroke:#a39b95;stroke-width:1.41px;}.cls-15{fill:#544d4d;}.cls-16{fill:#69605f;}.cls-17{opacity:0.24;}.cls-18{fill:#c4b4b3;}.cls-19{opacity:0.4;}.cls-20{stroke:#7a706f;stroke-width:0.47px;}.cls-21{opacity:0.41;}</style><linearGradient id="linear-gradient" x1="95.83" y1="84.42" x2="95.83" y2="7.42" gradientUnits="userSpaceOnUse"><stop offset="0" stop-color="#7d80f5"/><stop offset="0.28" stop-color="#7688ef"/><stop offset="0.71" stop-color="#629fde"/><stop offset="1" stop-color="#51b2d0"/></linearGradient></defs><title>Asset 9</title><g id="Layer_2" data-name="Layer 2"><g id="Layer_1-2" data-name="Layer 1"><path class="cls-1" d="M190.6,64.66a4.55,4.55,0,0,0-2.67-4L68.25,5.58a9.47,9.47,0,0,0-7.89,0l-57,26.12A4.36,4.36,0,0,0,.93,34.36c0,.05-.07.09-.11.15s-.06.13-.09.19-.12.24-.17.37-.06.12-.08.18-.09.27-.13.41h0a7.84,7.84,0,0,0-.21,1c0,.11,0,.23,0,.34s0,.51-.06.78c0,.07,0,.13,0,.19s0,.17,0,.26,0,.27,0,.4c-.1,3.22,1.15,7,3.25,8l117.59,54.16a15.27,15.27,0,0,0,12.73,0L187.91,76c2.27-1,3.69-4.68,3.54-7.65A6,6,0,0,0,190.6,64.66Z"/><path class="cls-2" d="M60.36,8.44,2.12,30.1c-3.47,1.58-2.28,11,1.18,12.57L120.89,96.83a15.27,15.27,0,0,0,12.73,0L187.91,72c3.6-1.64,5.09-9.86,1.49-11.51L68.25,8.46A9.47,9.47,0,0,0,60.36,8.44Z"/><path class="cls-3" d="M60.36,7.59,2.12,29.25c-3.47,1.58-2.28,11,1.18,12.57L120.89,96a15.27,15.27,0,0,0,12.73,0l54.29-24.87c3.6-1.64,5.09-9.86,1.49-11.51L68.25,7.61A9.47,9.47,0,0,0,60.36,7.59Z"/><path class="cls-4" d="M127,94.57c-.3-2.41,2.93-2.8,4.82-3.92L2.12,29.25h0a2.6,2.6,0,0,0-.86.64,3.53,3.53,0,0,0-.44.62,4.85,4.85,0,0,0-.34.74q-.07.2-.13.41A9.11,9.11,0,0,0,0,34c0,.33,0,.67,0,1s.06.69.11,1a11.86,11.86,0,0,0,1,3.36,7.77,7.77,0,0,0,.44.8,5.8,5.8,0,0,0,.51.68,4.2,4.2,0,0,0,.57.55,3.09,3.09,0,0,0,.62.39L120.89,96a15.27,15.27,0,0,0,10.26.9C129.14,96.91,127.24,96.57,127,94.57Z"/><path class="cls-5" d="M60.36,1.56l-57,26.12a4.46,4.46,0,0,0,0,8.1L120.89,90a15.27,15.27,0,0,0,12.73,0l54.29-24.87a4.62,4.62,0,0,0,0-8.41L68.25,1.58A9.47,9.47,0,0,0,60.36,1.56Z"/><path class="cls-6" d="M141.76,84.24s2.34-1.19,5.9-2.89c1.78-.84,3.84-1.85,6.08-2.88l7-3.24,7-3.16c2.25-1,4.36-1.91,6.16-2.7l4.38-1.87,1.67-.69a.28.28,0,0,1,.23.51l-1.62.81-4.28,2.08c-1.78.84-3.85,1.85-6.08,2.88l-7,3.24-7,3.16c-2.24,1-4.36,1.91-6.16,2.7-3.62,1.56-6,2.56-6,2.56a.28.28,0,0,1-.23-.51Z"/><path class="cls-6" d="M148.7,84.07s1.7-.85,4.27-2.08l4.4-2.08,5.06-2.34,5.09-2.29,4.45-2L175.15,72l1.2-.51a.18.18,0,0,1,.15.33l-1.17.57-3.1,1.5-4.4,2.08-5.06,2.34-5.09,2.29-4.45,2c-2.61,1.13-4.37,1.86-4.37,1.86a.18.18,0,0,1-.15-.33Z"/><path class="cls-7" d="M72.54,7.55,12.9,34.86a.65.65,0,0,0,0,1.19L117.79,84.23a2,2,0,0,0,1.68,0L178.7,57.12a.75.75,0,0,0,0-1.37L73.8,7.56A1.52,1.52,0,0,0,72.54,7.55Z"/><path class="cls-8" d="M72.54,7.55,12.9,34.86a.65.65,0,0,0,0,1.19L117.79,84.23a2,2,0,0,0,1.68,0L178.7,57.12a.75.75,0,0,0,0-1.37L73.8,7.56A1.52,1.52,0,0,0,72.54,7.55Z"/><line class="cls-9" x1="45.07" y1="15.04" x2="32.82" y2="20.65"/><g class="cls-10"><path class="cls-6" d="M178.48,55.84,73.8,7.56a1.52,1.52,0,0,0-1.26,0L54.24,16l72.34,65,51.9-23.78A.75.75,0,0,0,178.48,55.84Z"/></g><path class="cls-11" d="M159.81,68.81l-11.9,5.45a.73.73,0,0,0,0,1.33l3.35,1.54a2,2,0,0,0,1.71,0l11.51-5.27a.78.78,0,0,0,0-1.42l-3.55-1.63A1.35,1.35,0,0,0,159.81,68.81Z"/><path class="cls-12" d="M164.49,70.45l-3.55-1.63a1.35,1.35,0,0,0-1.13,0l-7.86,3.6,9,1.08,3.55-1.63A.78.78,0,0,0,164.49,70.45Z"/><path class="cls-13" d="M159.81,68.81l-11.9,5.45a.73.73,0,0,0,0,1.33l3.35,1.54a2,2,0,0,0,1.71,0l11.51-5.27a.78.78,0,0,0,0-1.42l-3.55-1.63A1.35,1.35,0,0,0,159.81,68.81Z"/><path class="cls-14" d="M60.36,1.56l-57,26.12a4.46,4.46,0,0,0,0,8.1L120.89,90a15.27,15.27,0,0,0,12.73,0l54.29-24.87a4.62,4.62,0,0,0,0-8.41L68.25,1.58A9.47,9.47,0,0,0,60.36,1.56Z"/><path class="cls-15" d="M30,22.27a.94.94,0,0,0-.45-.42,2,2,0,0,0-.86-.18,1.63,1.63,0,0,0-1.18.41.63.63,0,0,0-.19.43.56.56,0,0,0,0,.17,1.35,1.35,0,0,0,1.34.67c.76,0,1.36-.37,1.36-.85A.57.57,0,0,0,30,22.27Z"/><path class="cls-15" d="M37.27,15.71a.62.62,0,0,0-.3-.28,1.28,1.28,0,0,0-.56-.12,1.07,1.07,0,0,0-.77.27.41.41,0,0,0-.12.28.37.37,0,0,0,0,.11.88.88,0,0,0,.88.44c.5,0,.89-.24.89-.56A.37.37,0,0,0,37.27,15.71Z"/><path class="cls-16" d="M156.2,82.49V84a.34.34,0,0,0,.48.31l7.42-3.44a.34.34,0,0,0,.2-.31v-1.5a.34.34,0,0,0-.47-.31L156.5,82A.51.51,0,0,0,156.2,82.49Z"/><path class="cls-6" d="M163.85,78.78a.31.31,0,0,1,0,.07v1.5a.34.34,0,0,1-.2.31l-7.42,3.44h0a.33.33,0,0,0,.46.24l7.42-3.44a.34.34,0,0,0,.2-.31v-1.5A.33.33,0,0,0,163.85,78.78Z"/><path class="cls-16" d="M139.64,90.63a2.77,2.77,0,0,1-1.4,2.52c-.78.29-1.4-.37-1.4-1.47a2.77,2.77,0,0,1,1.4-2.52C139,88.87,139.64,89.53,139.64,90.63Z"/><path class="cls-16" d="M143.7,89.05a1.55,1.55,0,0,1-.79,1.41c-.44.16-.79-.21-.79-.82a1.55,1.55,0,0,1,.79-1.41C143.35,88.06,143.7,88.43,143.7,89.05Z"/><path class="cls-16" d="M176.94,73.9a1.55,1.55,0,0,1-.79,1.41c-.44.16-.79-.21-.79-.82a1.55,1.55,0,0,1,.79-1.41C176.59,72.91,176.94,73.28,176.94,73.9Z"/><path class="cls-16" d="M180,72.54a1.55,1.55,0,0,1-.79,1.41c-.44.16-.79-.21-.79-.82a1.55,1.55,0,0,1,.79-1.41C179.6,71.56,180,71.93,180,72.54Z"/><path class="cls-16" d="M183,71.19a1.55,1.55,0,0,1-.79,1.41c-.44.16-.79-.21-.79-.82a1.55,1.55,0,0,1,.79-1.41C182.62,70.2,183,70.57,183,71.19Z"/><path class="cls-16" d="M186,69.83a1.55,1.55,0,0,1-.79,1.41c-.44.16-.79-.21-.79-.82A1.55,1.55,0,0,1,185.2,69C185.63,68.84,186,69.21,186,69.83Z"/><g class="cls-17"><path class="cls-15" d="M188.48,68.85,133.79,93.91a15.39,15.39,0,0,1-12.82,0L2.52,39.32a5.07,5.07,0,0,1-2.23-2.6c.46,2.31,1.52,4.42,3,5.1L120.89,96a15.27,15.27,0,0,0,12.73,0l54.29-24.87c1.82-.83,3.1-3.35,3.46-5.84A6.27,6.27,0,0,1,188.48,68.85Z"/></g><path class="cls-18" d="M24.13,48.45v1.41a1,1,0,0,0,.6.94L33.81,55a.76.76,0,0,0,1.07-.69V52.7a.76.76,0,0,0-.44-.69L25.2,47.76A.76.76,0,0,0,24.13,48.45Z"/><g class="cls-19"><path class="cls-5" d="M34.44,52,25.2,47.76a.76.76,0,0,0-1.07.69v.36l10.76,5V52.7A.76.76,0,0,0,34.44,52Z"/></g><path class="cls-20" d="M24.13,48.45v1.41a1,1,0,0,0,.6.94L33.81,55a.76.76,0,0,0,1.07-.69V52.7a.76.76,0,0,0-.44-.69L25.2,47.76A.76.76,0,0,0,24.13,48.45Z"/><path class="cls-18" d="M36.34,54.13v1.41a1,1,0,0,0,.6.94L46,60.66A.76.76,0,0,0,47.09,60V58.39a.76.76,0,0,0-.44-.69l-9.24-4.26A.76.76,0,0,0,36.34,54.13Z"/><g class="cls-21"><path class="cls-5" d="M46.65,57.7l-9.24-4.26a.76.76,0,0,0-1.07.69v.36l10.76,5V58.39A.76.76,0,0,0,46.65,57.7Z"/></g><path class="cls-20" d="M36.34,54.13v1.41a1,1,0,0,0,.6.94L46,60.66A.76.76,0,0,0,47.09,60V58.39a.76.76,0,0,0-.44-.69l-9.24-4.26A.76.76,0,0,0,36.34,54.13Z"/><path class="cls-18" d="M10.3,42v1.39a1,1,0,0,0,.58.9l3.26,1.5a.37.37,0,0,0,.52-.33V43.66a.37.37,0,0,0-.21-.33l-3.62-1.67A.37.37,0,0,0,10.3,42Z"/><g class="cls-19"><path class="cls-5" d="M14.66,43.66a.37.37,0,0,0-.21-.33l-3.62-1.67a.37.37,0,0,0-.52.33v.4l4.36,2Z"/></g><path class="cls-20" d="M10.3,42v1.39a1,1,0,0,0,.58.9l3.26,1.5a.37.37,0,0,0,.52-.33V43.66a.37.37,0,0,0-.21-.33l-3.62-1.67A.37.37,0,0,0,10.3,42Z"/></g></g></svg>