<svg xmlns="http://www.w3.org/2000/svg" xmlns:xlink="http://www.w3.org/1999/xlink" viewBox="0 0 249.91 145.31"><defs><style>.cls-1{fill:#303a49;opacity:0.6;}.cls-2{fill:#ff4f4f;}.cls-3{fill:#dc4646;}.cls-4{fill:#d2cfb2;}.cls-5{fill:#ebe8c8;}.cls-6{opacity:0.73;}.cls-7{fill:#8d8b7f;}.cls-8{opacity:0.54;}.cls-10,.cls-9{fill:#8a8880;}.cls-10{opacity:0.5;}.cls-11{fill:#d44444;}.cls-12{opacity:0.1;}.cls-13,.cls-30,.cls-32{fill:#fff;}.cls-14{fill:#f2d372;}.cls-15{opacity:0.13;}.cls-16{opacity:0.68;}.cls-17{fill:#bd4141;}.cls-18{opacity:0.49;}.cls-19{fill:#ffc2c2;}.cls-20{opacity:0.51;}.cls-21{fill:#802b2b;}.cls-22{opacity:0.64;}.cls-23{fill:#414347;}.cls-24{fill:url(#linear-gradient);}.cls-25{fill:url(#linear-gradient-2);}.cls-26{fill:url(#linear-gradient-3);}.cls-27{fill:url(#linear-gradient-4);}.cls-28{fill:url(#linear-gradient-5);}.cls-29{fill:url(#linear-gradient-6);}.cls-30{opacity:0.3;}.cls-31{fill:url(#linear-gradient-7);}.cls-32{opacity:0.35;}</style><linearGradient id="linear-gradient" x1="36.45" y1="64.46" x2="245.78" y2="64.46" gradientUnits="userSpaceOnUse"><stop offset="0" stop-color="#4c5c76"/><stop offset="0.28" stop-color="#49566e"/><stop offset="0.73" stop-color="#424557"/><stop offset="1" stop-color="#3c3946"/></linearGradient><linearGradient id="linear-gradient-2" x1="34.13" y1="50.53" x2="245.35" y2="50.53" xlink:href="#linear-gradient"/><linearGradient id="linear-gradient-3" x1="139.19" y1="98.61" x2="139.19" y2="0" xlink:href="#linear-gradient"/><linearGradient id="linear-gradient-4" x1="31.91" y1="78.02" x2="158.06" y2="78.02" xlink:href="#linear-gradient"/><linearGradient id="linear-gradient-5" x1="30.99" y1="77.81" x2="157.4" y2="77.81" xlink:href="#linear-gradient"/><linearGradient id="linear-gradient-6" x1="30.99" y1="62.88" x2="93.49" y2="62.88" xlink:href="#linear-gradient"/><linearGradient id="linear-gradient-7" x1="36.26" y1="86.1" x2="152.93" y2="86.1" xlink:href="#linear-gradient"/></defs><title>Asset 4</title><g id="Layer_2" data-name="Layer 2"><g id="Layer_1-2" data-name="Layer 1"><path class="cls-1" d="M249.69,96a.81.81,0,0,0-.47-.62l-4.49-2.07a35.31,35.31,0,0,1-.25-4.15,43.5,43.5,0,0,1,.26-4.56h0l.25-2.19v0l3.26-1.49c.73-.33,1-1.63.83-2.6a1.33,1.33,0,0,0-.77-1.35l-.06,0h0L191.53,50.79h0L106.45,11.59a1.36,1.36,0,0,0-1.13,0L3.23,58.16a1.32,1.32,0,0,0-.75.95,9.74,9.74,0,0,0-1.4,3.36h0l0,.19-.13.55-.09.41c0,.19-.08.39-.12.59l-.08.42c0,.2-.07.4-.1.61l-.07.43c0,.21-.06.41-.09.62l-.06.43c0,.21,0,.43-.07.64s0,.27,0,.41,0,.44-.06.65,0,.25,0,.37,0,.46,0,.69,0,.2,0,.3c0,.32,0,.63,0,.93,0,.55,0,1.09.07,1.62v0A15.67,15.67,0,0,0,.8,76.11q.09.27.2.53a7.72,7.72,0,0,0,.44.93A3.34,3.34,0,0,0,2.8,79l3.34,1.55a.42.42,0,0,0,.24.37l.06,0a.81.81,0,0,0,.41.42l15.1,7,5.38,2.55,10.17,4.77,11.36,5.31L73.56,112.4l24.77,11.34c7.9,3.63,15.31,6.93,21.65,9.81l6.83,3.07,17.41,8,1.21.56a.81.81,0,0,0,.14,0l.19.09,0,0a.38.38,0,0,0,.42-.09L249.21,98.82C249.81,98.55,250.14,96.6,249.69,96Z"/><path class="cls-2" d="M144.22,140l1.21.56a.84.84,0,0,0,.69,0L249.21,94.23c.66-.29,1-2.61.34-2.91L106.1,26.78a.84.84,0,0,0-.72,0L6.82,75.25a.84.84,0,0,0,0,1.51L144.22,140"/><path class="cls-3" d="M144.22,138.17l1.21.56a.84.84,0,0,0,.69,0L249.21,92.36a.84.84,0,0,0,0-1.52L106.1,24.91a.84.84,0,0,0-.72,0L6.82,73.38a.84.84,0,0,0,0,1.51l137.38,63.28"/><path class="cls-4" d="M144.34,137l.87.4a.84.84,0,0,0,.7,0l98.47-45.66-.12-.06V76.06a.84.84,0,0,0-.9-.84l-9.44.75a.84.84,0,0,1-.41-.07L107.91,18a.84.84,0,0,0-.7,0L29.63,53.43l0-.18L7.79,55.1a.84.84,0,0,0-.77.83V73.72H7v0h.05L144.34,137"/><path class="cls-5" d="M245.47,73.15l-.32.14C245.06,73.78,245.12,73.88,245.47,73.15Z"/><path class="cls-5" d="M245.3,92a31.3,31.3,0,0,1-.82-7.41,47.08,47.08,0,0,1,.82-8.37.84.84,0,0,0-.9-.84l-4.92.35a.82.82,0,0,0-.28.07c-20,8.83-87.38,38.59-93.83,41.44a.84.84,0,0,0-.5.77v18.6a.84.84,0,0,0,1.19.76l99.37-45.32Z"/><g class="cls-6"><path class="cls-7" d="M160.62,127.36l11.25-5.25,11.55-5.33,13.26-6.07,13.28-6,11.6-5.23,11.34-5.06a.16.16,0,0,1,.13.29l-11.25,5.25-11.55,5.33L197,111.33l-13.28,6-11.6,5.23-11.34,5.06a.16.16,0,0,1-.13-.29Z"/></g><g class="cls-6"><path class="cls-7" d="M181.3,113.53l4.93-2.37,5.08-2.38,5.84-2.69,5.86-2.64,5.12-2.27,5-2.18a.16.16,0,0,1,.13.29l-4.93,2.36L203.28,104l-5.84,2.69-5.86,2.65-5.12,2.28-5,2.17a.16.16,0,0,1-.13-.29Z"/></g><g class="cls-8"><path class="cls-9" d="M145.44,122.52s.06,1,.11,2.43c0,.73.05,1.58.06,2.49s0,1.88,0,2.86,0,1.95,0,2.86,0,1.76-.06,2.49c0,1.46-.1,2.43-.1,2.43a.16.16,0,0,1-.32,0s-.06-1-.1-2.43c0-.73,0-1.58-.06-2.49s0-1.88,0-2.86l0-2.86c0-.91,0-1.76.06-2.49,0-1.46.11-2.43.11-2.43a.16.16,0,0,1,.32,0Z"/></g><path class="cls-10" d="M146.63,122.94a2.22,2.22,0,0,1-1.85,0L8.21,60A.84.84,0,0,0,7,60.79H7a.84.84,0,0,0,.49.76l137.27,63.23a2.22,2.22,0,0,0,1.85,0L244.77,80l.55-4.78Z"/><path class="cls-11" d="M105.31,8.47,5,54.24a2.22,2.22,0,0,0,0,4l139.83,64.41a2.22,2.22,0,0,0,1.85,0L248.3,76.32c1.08-.49,1.26-3.12.18-3.62l-142-64.23A1.38,1.38,0,0,0,105.31,8.47Z"/><path class="cls-2" d="M105.32,7,3.23,53.56a1.36,1.36,0,0,0,0,2.47l141.91,65.36a1.36,1.36,0,0,0,1.13,0L248.35,74.83a1.36,1.36,0,0,0,0-2.47L106.45,7A1.36,1.36,0,0,0,105.32,7Z"/><g class="cls-12"><path class="cls-13" d="M146.62,121.23,248.3,74.86a1.38,1.38,0,0,0,0-2.52L191.53,46.19a.84.84,0,0,0-.62,0L73,86.58a.84.84,0,0,0-.08,1.55l71.84,33.09A2.22,2.22,0,0,0,146.62,121.23Z"/></g><path class="cls-11" d="M3.87,74.87c-1.59-.75-2.8-4.17-2.8-8.27,0-4.56,1.39-11.88,3.25-12.16a.37.37,0,0,1,.21,0l143,67a.39.39,0,0,1,.11.63c-2.33,2.27-2.89,6.67-2.89,11.07a15.51,15.51,0,0,0,1.51,6.92.39.39,0,0,1-.52.53Z"/><path class="cls-2" d="M2.8,74.39C1.2,73.64,0,70.22,0,66.12,0,61.47,1.45,54,3.36,54L147,121.3c-2.69,2.12-3.32,6.79-3.32,11.45a14.07,14.07,0,0,0,2.13,8Z"/><path class="cls-14" d="M135.08,115.73l-7.42-3.48c-2.13,2.76-2.67,7.4-2.67,12a18.17,18.17,0,0,0,1.53,7.52l7.31,3.39a18.3,18.3,0,0,1-1.46-7.38C132.37,123.15,132.92,118.49,135.08,115.73Z"/><path class="cls-14" d="M122.83,110l-2.7-1.27c-2.13,2.77-2.67,7.39-2.67,12a18.13,18.13,0,0,0,1.55,7.58l2.51,1.17a18.31,18.31,0,0,1-1.45-7.36C120.07,117.43,120.63,112.73,122.83,110Z"/><path class="cls-3" d="M72.66,86.45,3.36,54C1.45,54,0,61.47,0,66.12c0,4.1,1.2,7.52,2.8,8.27L71,106a21.11,21.11,0,0,1-1-6.57C70,94.51,70.51,89.56,72.66,86.45Z"/><g class="cls-15"><path class="cls-13" d="M144.76,124.54,1.07,57.87A35.58,35.58,0,0,0,0,66.12a19.34,19.34,0,0,0,.25,3.14l143.68,66.66a17.21,17.21,0,0,1-.29-3.18A24.26,24.26,0,0,1,144.76,124.54Z"/></g><g class="cls-16"><path class="cls-17" d="M142.74,116.38l-20.67-9.29-21.14-9.61-24.2-11.1L52.57,75.2l-21-9.82L11,55.71a.32.32,0,0,1,.27-.58L32,64.42,53.11,74l24.2,11.09,24.16,11.18,21,9.82L143,115.8a.32.32,0,0,1-.27.58Z"/></g><g class="cls-18"><path class="cls-19" d="M140.69,117.72,120,108.4,98.9,98.77,74.7,87.66,50.54,76.49l-21.05-9.8L9,57a.27.27,0,0,1,.22-.48l20.65,9.32L51,75.52l24.2,11.1L99.35,97.79l21.05,9.8,20.51,9.64a.27.27,0,0,1-.22.48Z"/></g><g class="cls-20"><path class="cls-21" d="M141.16,138.4l-5.83-2.58c-3.7-1.66-9-4-15.35-6.87s-13.75-6.18-21.65-9.81L73.56,107.8,48.84,96.35,37.49,91,27.32,86.26l-15.19-7.2L6.37,76.31a.43.43,0,0,1,.36-.77l5.83,2.58L27.91,85l10.23,4.62,11.42,5.18,24.77,11.34L99,117.59c7.89,3.65,15.22,7.13,21.52,10.08s11.52,5.47,15.19,7.2l5.75,2.76a.43.43,0,0,1-.36.77Z"/></g><path class="cls-14" d="M108,78.92l-6.77,3.13L77.86,70.42l6.77-3.13a5.34,5.34,0,0,1,1.66-.42,10.25,10.25,0,0,1,2.08,0,13.84,13.84,0,0,1,2.22.4,11,11,0,0,1,2.09.78l14,7a6.3,6.3,0,0,1,1.55,1,2.76,2.76,0,0,1,.75,1.08,1.2,1.2,0,0,1-.08,1A2,2,0,0,1,108,78.92ZM89.29,69.61l-3.38,1.57,14,7,3.38-1.57Z"/><path class="cls-14" d="M91.44,64.14l8.46-3.92,4.67,2.32-5.08,2.35,4.7,2.34,4.24-2,4.67,2.32-4.24,2,4.67,2.32,5.08-2.35,4.67,2.32-8.46,3.92Z"/><path class="cls-14" d="M133.43,67.15,130,68.71a5.34,5.34,0,0,1-1.68.43,10.45,10.45,0,0,1-2.08,0,13.19,13.19,0,0,1-2.21-.4A11.21,11.21,0,0,1,122,68l-2.33-1.16L123,65.23l2.33,1.16,3.38-1.57-4.67-2.32-3.38,1.57a5.23,5.23,0,0,1-1.7.42,11,11,0,0,1-2.09,0,13.19,13.19,0,0,1-2.21-.4,11.21,11.21,0,0,1-2.08-.78L108,61a6.58,6.58,0,0,1-1.56-1,2.67,2.67,0,0,1-.76-1.07,1.21,1.21,0,0,1,.08-1,2,2,0,0,1,1-.79L110,55.52a5.34,5.34,0,0,1,1.66-.42,10.25,10.25,0,0,1,2.08,0,13.84,13.84,0,0,1,2.22.4,11,11,0,0,1,2.09.78l2.33,1.16L117.05,59l-2.33-1.16-3.38,1.57,4.7,2.34,3.38-1.57a5.26,5.26,0,0,1,1.68-.41,10.8,10.8,0,0,1,2.09,0,13.69,13.69,0,0,1,2.23.41,11,11,0,0,1,2.07.77l4.66,2.32a6.28,6.28,0,0,1,1.54,1,2.75,2.75,0,0,1,.75,1.08,1.2,1.2,0,0,1-.08,1A2,2,0,0,1,133.43,67.15Z"/><path class="cls-14" d="M116.86,52.36l6.77-3.13,4.67,2.32-1.69.78,14,7,1.69-.78L147,60.86,140.24,64l-4.67-2.32,1.69-.78-14-7-1.69.78Z"/><path class="cls-14" d="M157.16,56.16l-3.38,1.57a5.34,5.34,0,0,1-1.68.43,10.45,10.45,0,0,1-2.08,0,13.19,13.19,0,0,1-2.21-.4,11.21,11.21,0,0,1-2.08-.78l-14-7a6.58,6.58,0,0,1-1.56-1,2.67,2.67,0,0,1-.76-1.07,1.21,1.21,0,0,1,.08-1,2,2,0,0,1,1-.79l3.38-1.57a5.34,5.34,0,0,1,1.66-.42,10.25,10.25,0,0,1,2.08,0,13.84,13.84,0,0,1,2.22.4,11,11,0,0,1,2.09.78l2.33,1.16L140.79,48l-2.33-1.16-3.38,1.57,14,7,3.38-1.57-4.67-2.32-1.69.78L141.46,50l5.08-2.35,9.35,4.65a6.27,6.27,0,0,1,1.54,1,2.75,2.75,0,0,1,.75,1.08,1.2,1.2,0,0,1-.08,1A2,2,0,0,1,157.16,56.16Z"/><path class="cls-14" d="M170.38,50l-14.29-4.19,11.25,5.6L163.95,53,140.57,41.38l3.71-1.72,14.33,4.2-11.28-5.61,3.38-1.57L174.1,48.31Z"/><g class="cls-20"><path class="cls-21" d="M152.92,136.69l13.8-6.36,14.18-6.46,16.27-7.35,16.3-7.3,14.24-6.32,13.92-6.11a.21.21,0,0,1,.17.39L228,103.53,213.83,110l-16.27,7.36-16.3,7.3L167,131l-13.92,6.11a.21.21,0,0,1-.17-.39Z"/></g><g class="cls-22"><path class="cls-19" d="M153,116.47l13.79-6.4L181,103.59l16.27-7.36,16.3-7.29,14.25-6.3,13.93-6.08a.27.27,0,0,1,.22.49l-13.79,6.39L214,89.92l-16.27,7.36-16.3,7.29-14.25,6.3L153.23,117a.27.27,0,0,1-.22-.49Z"/></g><path class="cls-23" d="M155,114.55l1,.48a.72.72,0,0,0,.6,0l88.68-39.89c.56-.25.86-2.25.3-2.5L122.25,17.12a.72.72,0,0,0-.62,0L36.86,58.81a.72.72,0,0,0,0,1.3L155,114.55"/><path class="cls-24" d="M155,112.93l1,.48a.72.72,0,0,0,.6,0l88.68-39.89a.72.72,0,0,0,0-1.31L122.25,15.51a.72.72,0,0,0-.62,0L36.86,57.2a.72.72,0,0,0,0,1.3L155,112.93"/><path class="cls-4" d="M155.15,111.92l.75.35a.72.72,0,0,0,.6,0L241.2,73l-.11,0V59.51a.72.72,0,0,0-.77-.72l-8.12.65a.72.72,0,0,1-.35-.06l-108-49.76a.72.72,0,0,0-.6,0L56.48,40l0-.16L37.69,41.48a.72.72,0,0,0-.66.72V57.5h0l118.07,54.39"/><path class="cls-5" d="M242.14,57l-.27.12C241.79,57.55,241.84,57.63,242.14,57Z"/><path class="cls-5" d="M242,73.24a26.92,26.92,0,0,1-.7-6.37,40.5,40.5,0,0,1,.7-7.2.72.72,0,0,0-.77-.72l-4.24.3a.71.71,0,0,0-.24.06C219.53,66.9,161.58,92.51,156,95a.72.72,0,0,0-.43.66v16a.72.72,0,0,0,1,.66l85.47-39Z"/><g class="cls-6"><path class="cls-7" d="M169.16,103.64l9.68-4.51,9.94-4.59,11.41-5.23,11.42-5.19,10-4.5,9.75-4.35a.14.14,0,0,1,.11.25L221.77,80l-9.94,4.59-11.41,5.23L189,95l-10,4.5-9.75,4.35a.14.14,0,0,1-.11-.25Z"/></g><g class="cls-6"><path class="cls-7" d="M186.94,91.74l4.24-2,4.37-2,5-2.31,5-2.28,4.41-2,4.32-1.87a.14.14,0,0,1,.11.25l-4.24,2-4.37,2-5,2.31-5,2.28-4.41,2L187.06,92a.14.14,0,0,1-.11-.25Z"/></g><g class="cls-8"><path class="cls-9" d="M156.09,99.48s.05.84.09,2.09c0,.63,0,1.36,0,2.14s0,1.62,0,2.46,0,1.67,0,2.46,0,1.52,0,2.14c0,1.25-.09,2.09-.09,2.09a.14.14,0,0,1-.27,0s-.05-.84-.09-2.09c0-.63,0-1.36,0-2.14s0-1.62,0-2.46l0-2.46c0-.78,0-1.52,0-2.14,0-1.26.09-2.09.09-2.09a.14.14,0,0,1,.27,0Z"/></g><path class="cls-10" d="M157.11,99.84a1.91,1.91,0,0,1-1.59,0L38,45.72a.72.72,0,0,0-1,.65h0a.72.72,0,0,0,.42.65l118.07,54.39a1.91,1.91,0,0,0,1.59,0l84.43-38.49.47-4.11Z"/><path class="cls-25" d="M121.57,1.37,35.25,40.74a1.91,1.91,0,0,0,0,3.47l120.28,55.4a1.91,1.91,0,0,0,1.59,0l87.46-39.89c.93-.42,1.08-2.68.16-3.11L122.57,1.37A1.19,1.19,0,0,0,121.57,1.37Z"/><path class="cls-26" d="M121.58.11,33.77,40.16a1.17,1.17,0,0,0,0,2.12L155.83,98.51a1.17,1.17,0,0,0,1,0l87.82-40.05a1.17,1.17,0,0,0,0-2.12L122.56.11A1.17,1.17,0,0,0,121.58.11Z"/><g class="cls-12"><path class="cls-13" d="M157.11,98.37l87.46-39.89a1.19,1.19,0,0,0,0-2.16L195.74,33.82a.72.72,0,0,0-.54,0L93.79,68.56a.72.72,0,0,0-.07,1.34l61.8,28.46A1.91,1.91,0,0,0,157.11,98.37Z"/></g><path class="cls-27" d="M34.32,58.49c-1.37-.65-2.41-3.58-2.41-7.11,0-3.92,1.2-10.22,2.8-10.46a.32.32,0,0,1,.18,0l123,57.67a.33.33,0,0,1,.09.54c-2,1.95-2.49,5.74-2.49,9.52a13.34,13.34,0,0,0,1.3,6,.34.34,0,0,1-.45.45Z"/><path class="cls-28" d="M33.4,58.08C32,57.43,31,54.49,31,51c0-4,1.25-10.47,2.89-10.47L157.4,98.43c-2.31,1.83-2.86,5.84-2.86,9.85a12.1,12.1,0,0,0,1.83,6.86Z"/><path class="cls-14" d="M147.18,93.63l-6.38-3C139,93,138.5,97,138.5,101a15.63,15.63,0,0,0,1.31,6.47l6.29,2.92a15.74,15.74,0,0,1-1.26-6.35C144.85,100,145.32,96,147.18,93.63Z"/><path class="cls-14" d="M136.64,88.69l-2.32-1.09C132.49,90,132,94,132,97.93a15.6,15.6,0,0,0,1.33,6.52l2.16,1a15.75,15.75,0,0,1-1.25-6.33C134.27,95.1,134.75,91.06,136.64,88.69Z"/><path class="cls-29" d="M93.49,68.45l-59.61-28C32.24,40.49,31,47,31,51c0,3.53,1,6.47,2.41,7.11L92,85.28a18.16,18.16,0,0,1-.86-5.65C91.16,75.38,91.64,71.12,93.49,68.45Z"/><g class="cls-15"><path class="cls-13" d="M155.51,101.21,31.91,43.87A30.61,30.61,0,0,0,31,51a16.64,16.64,0,0,0,.22,2.7L154.79,111a14.81,14.81,0,0,1-.25-2.73A20.87,20.87,0,0,1,155.51,101.21Z"/></g><g class="cls-18"><path class="cls-30" d="M152,93.65l-17.77-8-18.18-8.28L95.25,67.8,74.46,58.18,56.35,49.75,38.71,41.46A.23.23,0,0,1,38.9,41l17.76,8,18.18,8.28L95.66,66.9l20.79,9.61,18.11,8.43,17.64,8.29a.23.23,0,0,1-.19.42Z"/></g><path class="cls-31" d="M152.41,113.13l-5-2.22c-3.18-1.43-7.75-3.44-13.2-5.91s-11.82-5.32-18.62-8.44L94.26,86.82,73,77l-9.77-4.57-8.75-4.11L41.42,62.1l-4.95-2.37a.37.37,0,0,1,.31-.67l5,2.22L55,67.19l8.8,4,9.82,4.46,21.31,9.75,21.26,9.85c6.79,3.14,13.09,6.14,18.51,8.67s9.91,4.7,13.07,6.19l4.95,2.37a.37.37,0,0,1-.31.67Z"/><path class="cls-32" d="M162.53,111.66l11.87-5.47,12.2-5.56,14-6.33,14-6.28,12.25-5.44,12-5.25a.18.18,0,0,1,.15.33l-11.87,5.47L214.92,88.7l-14,6.33-14,6.28-12.25,5.44-12,5.25a.18.18,0,0,1-.15-.33Z"/><path class="cls-14" d="M78.58,40.54a26,26,0,0,1,4.13-1.61,29.32,29.32,0,0,1,4-.89,18.86,18.86,0,0,1,3.38-.22,6.23,6.23,0,0,1,2.25.4c.14.07.18.16.15.28a.55.55,0,0,1-.31.3l-4.14,2a3.93,3.93,0,0,1-.8.3,6.32,6.32,0,0,1-.82.13l-.53,0a7.83,7.83,0,0,0-.91.12,10.6,10.6,0,0,0-2.76.93q-.6.29-1.1.59a5.28,5.28,0,0,0-.8.57A1,1,0,0,0,80,44q0,.24.3.41a1.7,1.7,0,0,0,.87.14,7.45,7.45,0,0,0,1.43-.29q.9-.25,2.25-.73l3.34-1.21q2-.72,3.67-1.17A19.71,19.71,0,0,1,95,40.6a11,11,0,0,1,2.66,0,7.62,7.62,0,0,1,2.28.71,1.9,1.9,0,0,1,.86,3.15,8.77,8.77,0,0,1-2.11,2,24.55,24.55,0,0,1-3.56,2.08,29.68,29.68,0,0,1-8.45,2.67,18.8,18.8,0,0,1-3.52.23A6.6,6.6,0,0,1,80.67,51c-.14-.07-.19-.16-.15-.28a.55.55,0,0,1,.31-.3l4.14-2a4.12,4.12,0,0,1,.77-.3,5.42,5.42,0,0,1,.74-.13l.67,0a10.43,10.43,0,0,0,1.1-.12,11.48,11.48,0,0,0,1.45-.34,11.28,11.28,0,0,0,1.75-.7A14.52,14.52,0,0,0,94,45.29q.86-.68.18-1a1.72,1.72,0,0,0-1-.08,11.46,11.46,0,0,0-1.65.39q-1,.31-2.47.84l-3.47,1.25a23.63,23.63,0,0,1-6.42,1.49,9.08,9.08,0,0,1-4.62-.82,2.33,2.33,0,0,1-1.25-1.23,2,2,0,0,1,.22-1.65,6.63,6.63,0,0,1,1.75-1.92A18,18,0,0,1,78.58,40.54Z"/><path class="cls-14" d="M120,32.62a2.14,2.14,0,0,1,.78-.2,1.33,1.33,0,0,1,.68.09l2.41,1.2q.25.12.18.34a.75.75,0,0,1-.42.38l-15,7.32a2.13,2.13,0,0,1-.78.2,1.32,1.32,0,0,1-.68-.09l-14.68-7.3q-.25-.12-.18-.34a.75.75,0,0,1,.42-.38l14.71-7.2a2.13,2.13,0,0,1,.78-.2,1.33,1.33,0,0,1,.68.09l2.41,1.2c.17.08.23.2.18.34a.75.75,0,0,1-.42.38l-9.72,4.76,2.45,1.22,9-4.42a2.14,2.14,0,0,1,.78-.2,1.33,1.33,0,0,1,.68.09l2.41,1.2q.25.12.18.34a.75.75,0,0,1-.42.38l-9,4.42L110,37.5Z"/><path class="cls-14" d="M117.16,27.73a3.91,3.91,0,0,1-1.62-1.57,2.22,2.22,0,0,1,0-1.91,6,6,0,0,1,1.71-2.14,17.26,17.26,0,0,1,3.63-2.26,26.89,26.89,0,0,1,4.59-1.77,25.24,25.24,0,0,1,4.36-.84,17.68,17.68,0,0,1,3.88,0,11.77,11.77,0,0,1,3.17.81q1,.45,2.11,1t1.94,1a3.91,3.91,0,0,1,1.62,1.57,2.26,2.26,0,0,1,0,1.92,5.79,5.79,0,0,1-1.73,2.15A17.81,17.81,0,0,1,137.21,28a27.28,27.28,0,0,1-4.6,1.78,24.32,24.32,0,0,1-4.35.83,18,18,0,0,1-3.89,0,11.75,11.75,0,0,1-3.17-.81q-1-.43-2.06-1T117.16,27.73ZM135,22.91l-.84-.48q-.47-.26-1-.52t-1-.49l-.94-.4a6,6,0,0,0-1.38-.36,7.28,7.28,0,0,0-1.59,0,9.5,9.5,0,0,0-1.77.32,10.85,10.85,0,0,0-1.91.73,7,7,0,0,0-1.5.94,2.13,2.13,0,0,0-.66.87.93.93,0,0,0,.07.78,2,2,0,0,0,.71.68,8,8,0,0,0,.8.47l1,.51,1,.5c.34.16.67.3,1,.41a6.91,6.91,0,0,0,3,.4,9.68,9.68,0,0,0,3.67-1.06q2-1,2.15-1.79T135,22.91Z"/></g></g></svg>