<svg xmlns="http://www.w3.org/2000/svg" xmlns:xlink="http://www.w3.org/1999/xlink" viewBox="0 0 161.71 88.03"><defs><style>.cls-1{fill:#303a49;opacity:0.6;}.cls-2{fill:#b5a4a2;}.cls-3{fill:#69605f;}.cls-4{fill:#fff;}.cls-5{fill:url(#linear-gradient);}.cls-17,.cls-6,.cls-8,.cls-9{fill:none;}.cls-6,.cls-8{stroke:#69605f;}.cls-6{stroke-linecap:round;stroke-linejoin:round;stroke-width:1.27px;}.cls-7{opacity:0.11;}.cls-17,.cls-8,.cls-9{stroke-miterlimit:10;}.cls-8{stroke-width:0.97px;}.cls-9{stroke:#3d3b39;stroke-width:1.12px;}.cls-10{fill:#ccb9b6;}.cls-11{opacity:0.81;}.cls-12{fill:#544d4d;}.cls-13{fill:#443f3e;}.cls-14{fill:#c4b4b3;}.cls-15{opacity:0.4;}.cls-16{fill:#f7ebe3;}.cls-17{stroke:#7a706f;stroke-width:0.37px;}.cls-18{opacity:0.41;}</style><linearGradient id="linear-gradient" x1="78.02" y1="68.71" x2="78.02" y2="6.23" gradientUnits="userSpaceOnUse"><stop offset="0" stop-color="#7d80f5"/><stop offset="0.28" stop-color="#7688ef"/><stop offset="0.71" stop-color="#629fde"/><stop offset="1" stop-color="#51b2d0"/></linearGradient></defs><title>Asset 10</title><g id="Layer_2" data-name="Layer 2"><g id="Layer_1-2" data-name="Layer 1"><path class="cls-1" d="M161,56.29a3.84,3.84,0,0,0-2.26-3.35L57.62,6.38a8,8,0,0,0-6.67,0L2.77,28.43a3.68,3.68,0,0,0-2,2.26l-.09.12s0,.11-.07.16-.1.2-.14.31,0,.1-.07.15-.08.23-.11.35a6.6,6.6,0,0,0-.18.87c0,.09,0,.19,0,.29s0,.43,0,.66c0,.06,0,.11,0,.16s0,.14,0,.22,0,.23,0,.34c-.09,2.72,1,6,2.74,6.77l99.33,45.75a12.9,12.9,0,0,0,10.75,0l45.86-21c1.92-.87,3.12-4,3-6.46A5.08,5.08,0,0,0,161,56.29Z"/><path d="M51,7.1,1.76,25.39c-2.93,1.34-1.93,9.27,1,10.62l99.33,45.75a12.9,12.9,0,0,0,10.75,0l45.86-21c3-1.39,4.3-8.33,1.26-9.72L57.62,7.11A8,8,0,0,0,51,7.1Z"/><path class="cls-2" d="M51,6.38,1.76,24.67c-2.93,1.34-1.93,9.27,1,10.62L102.09,81a12.9,12.9,0,0,0,10.75,0l45.86-21c3-1.39,4.3-8.33,1.26-9.72L57.62,6.39A8,8,0,0,0,51,6.38Z"/><path class="cls-3" d="M107.24,79.85c-.25-2,2.47-2.37,4.07-3.31L1.76,24.67h0a2.2,2.2,0,0,0-.72.54,3,3,0,0,0-.37.52,4.1,4.1,0,0,0-.29.63q-.06.17-.11.35a7.7,7.7,0,0,0-.27,2c0,.28,0,.57,0,.86s.05.58.09.87A10,10,0,0,0,1,33.25a6.57,6.57,0,0,0,.37.67,4.91,4.91,0,0,0,.43.58,3.55,3.55,0,0,0,.48.46,2.61,2.61,0,0,0,.53.33L102.09,81a12.9,12.9,0,0,0,8.67.76C109.06,81.83,107.45,81.54,107.24,79.85Z"/><path d="M51,1.28,2.77,23.35a3.77,3.77,0,0,0,0,6.85l99.33,45.75a12.9,12.9,0,0,0,10.75,0L158.7,55a3.91,3.91,0,0,0,0-7.1L57.62,1.29A8,8,0,0,0,51,1.28Z"/><path class="cls-4" d="M119,70.9s2-1,5-2.44c1.5-.71,3.25-1.57,5.14-2.43l5.91-2.73L141,60.62c1.9-.85,3.68-1.61,5.21-2.28l3.7-1.58,1.41-.58a.24.24,0,0,1,.2.43l-1.37.68L146.55,59c-1.5.71-3.25,1.56-5.14,2.44l-5.91,2.74-5.94,2.67c-1.89.86-3.68,1.61-5.21,2.28-3.05,1.32-5.11,2.16-5.11,2.16a.24.24,0,0,1-.2-.43Z"/><path class="cls-4" d="M125.59,71s1.44-.71,3.61-1.76l3.72-1.76,4.28-2,4.3-1.93,3.76-1.66,2.67-1.14,1-.43a.15.15,0,0,1,.13.28l-1,.48-2.62,1.27-3.72,1.76-4.28,2L133.17,68l-3.76,1.66c-2.21,1-3.69,1.57-3.69,1.57a.15.15,0,0,1-.13-.28Z"/><path class="cls-5" d="M61.24,6.34,10.87,29.41a.55.55,0,0,0,0,1l82.8,38.14a1.71,1.71,0,0,0,1.42,0l50-22.91a.63.63,0,0,0,0-1.15L62.31,6.35A1.28,1.28,0,0,0,61.24,6.34Z"/><line class="cls-6" x1="38.04" y1="12.67" x2="27.7" y2="17.41"/><g class="cls-7"><path class="cls-4" d="M145.12,44.49,62.31,6.35a1.28,1.28,0,0,0-1.07,0L45.79,13.48l55.49,52.24,43.84-20.09A.63.63,0,0,0,145.12,44.49Z"/></g><path class="cls-8" d="M61.24,6.34,10.87,29.41a.55.55,0,0,0,0,1l82.8,38.14a1.71,1.71,0,0,0,1.42,0l50-22.91a.63.63,0,0,0,0-1.15L62.31,6.35A1.28,1.28,0,0,0,61.24,6.34Z"/><path class="cls-9" d="M51,1.28,2.77,23.35a3.77,3.77,0,0,0,0,6.85l99.33,45.75a12.9,12.9,0,0,0,10.75,0L158.7,55a3.91,3.91,0,0,0,0-7.1L57.62,1.29A8,8,0,0,0,51,1.28Z"/><path class="cls-10" d="M133.71,59.52a1.77,1.77,0,0,1,.15.69c0,1.67-2.47,3.07-5.39,3.07-2.38,0-4.46-.94-5.15-2.19L122.5,61c.56,1.74,3,3,6,3,3.42,0,6.1-1.66,6.1-3.79a2.55,2.55,0,0,0-.25-1.08Z"/><path class="cls-4" d="M133.71,59.52l.62-.39a4.2,4.2,0,0,0-2-1.88l-.74.47A3.79,3.79,0,0,1,133.71,59.52Z"/><path class="cls-4" d="M123.09,60.21a2.36,2.36,0,0,1,1.07-1.81l-.95-.13a2.81,2.81,0,0,0-.84,1.93,2.51,2.51,0,0,0,.12.77l.83.11A1.83,1.83,0,0,1,123.09,60.21Z"/><path class="cls-10" d="M128.48,57.14a8.25,8.25,0,0,1,3.09.58l.74-.47a8.71,8.71,0,0,0-3.83-.82,7.31,7.31,0,0,0-5.26,1.85l.95.13A7.28,7.28,0,0,1,128.48,57.14Z"/><g class="cls-11"><path class="cls-2" d="M128.48,56.42a8.72,8.72,0,0,1,3.83.82,4.2,4.2,0,0,1,2,1.88,2.55,2.55,0,0,1,.25,1.08c0,2.12-2.68,3.79-6.1,3.79-3,0-5.42-1.27-6-3a2.52,2.52,0,0,1-.12-.77,2.81,2.81,0,0,1,.84-1.93,7.31,7.31,0,0,1,5.26-1.85m0-.38a7.69,7.69,0,0,0-5.54,2,3.2,3.2,0,0,0-.94,2.19,2.9,2.9,0,0,0,.14.89c.62,1.93,3.23,3.28,6.34,3.28,3.63,0,6.48-1.83,6.48-4.17a2.94,2.94,0,0,0-.28-1.24,4.56,4.56,0,0,0-2.2-2.07,9.07,9.07,0,0,0-4-.86Z"/></g><path class="cls-12" d="M25.34,18.78a.79.79,0,0,0-.38-.36,1.65,1.65,0,0,0-.72-.15,1.38,1.38,0,0,0-1,.35.53.53,0,0,0-.16.37.48.48,0,0,0,0,.15,1.14,1.14,0,0,0,1.13.57c.65,0,1.15-.31,1.15-.71A.48.48,0,0,0,25.34,18.78Z"/><path class="cls-12" d="M31.46,13.23a.52.52,0,0,0-.25-.23,1.08,1.08,0,0,0-.47-.1.91.91,0,0,0-.65.23.35.35,0,0,0-.1.24.31.31,0,0,0,0,.1.75.75,0,0,0,.74.37c.42,0,.76-.21.76-.47A.32.32,0,0,0,31.46,13.23Z"/><path class="cls-4" d="M138.38,66.51a.26.26,0,0,1,0,.06v1.27a.29.29,0,0,1-.17.26L132,71h0a.28.28,0,0,0,.39.2l6.26-2.9a.29.29,0,0,0,.17-.26V66.77A.28.28,0,0,0,138.38,66.51Z"/><path class="cls-13" d="M159.19,58.13,113,79.29a13,13,0,0,1-10.83,0L2.1,33.18A4.28,4.28,0,0,1,.22,31c.39,2,1.29,3.73,2.54,4.31L102.09,81a12.9,12.9,0,0,0,10.75,0l45.86-21c1.54-.7,2.62-2.83,2.92-4.94A5.29,5.29,0,0,1,159.19,58.13Z"/><path class="cls-14" d="M20.35,40.89v1.19a.87.87,0,0,0,.51.79l7.67,3.53a.64.64,0,0,0,.91-.58V44.48a.64.64,0,0,0-.37-.58l-7.81-3.6A.64.64,0,0,0,20.35,40.89Z"/><g class="cls-15"><path class="cls-16" d="M29.07,43.9l-7.81-3.6a.64.64,0,0,0-.91.58v.3l9.09,4.19v-.89A.64.64,0,0,0,29.07,43.9Z"/></g><path class="cls-17" d="M20.35,40.89v1.19a.87.87,0,0,0,.51.79l7.67,3.53a.64.64,0,0,0,.91-.58V44.48a.64.64,0,0,0-.37-.58l-7.81-3.6A.64.64,0,0,0,20.35,40.89Z"/><path class="cls-14" d="M30.67,45.69v1.19a.87.87,0,0,0,.51.79l7.67,3.53a.64.64,0,0,0,.91-.58V49.29a.64.64,0,0,0-.37-.58l-7.81-3.6A.64.64,0,0,0,30.67,45.69Z"/><g class="cls-18"><path class="cls-16" d="M39.38,48.71l-7.81-3.6a.64.64,0,0,0-.91.58V46l9.09,4.19v-.89A.64.64,0,0,0,39.38,48.71Z"/></g><path class="cls-17" d="M30.67,45.69v1.19a.87.87,0,0,0,.51.79l7.67,3.53a.64.64,0,0,0,.91-.58V49.29a.64.64,0,0,0-.37-.58l-7.81-3.6A.64.64,0,0,0,30.67,45.69Z"/><path class="cls-14" d="M8.68,35.43v1.17a.84.84,0,0,0,.49.76l2.75,1.27a.31.31,0,0,0,.44-.28V36.84a.31.31,0,0,0-.18-.28L9.12,35.15A.31.31,0,0,0,8.68,35.43Z"/><g class="cls-15"><path class="cls-16" d="M12.36,36.84a.31.31,0,0,0-.18-.28L9.12,35.15a.31.31,0,0,0-.44.28v.34l3.68,1.69Z"/></g><path class="cls-17" d="M8.68,35.43v1.17a.84.84,0,0,0,.49.76l2.75,1.27a.31.31,0,0,0,.44-.28V36.84a.31.31,0,0,0-.18-.28L9.12,35.15A.31.31,0,0,0,8.68,35.43Z"/><path class="cls-3" d="M131.92,69.65v1.3a.29.29,0,0,0,.41.26l6.26-2.9a.29.29,0,0,0,.17-.26V66.77a.29.29,0,0,0-.4-.26l-6.18,2.74A.43.43,0,0,0,131.92,69.65Z"/><path class="cls-3" d="M117.93,76.52a2.34,2.34,0,0,1-1.19,2.13c-.66.24-1.19-.31-1.19-1.24a2.34,2.34,0,0,1,1.19-2.13C117.4,75,117.93,75.59,117.93,76.52Z"/><path class="cls-3" d="M121.36,75.19a1.31,1.31,0,0,1-.67,1.19c-.37.14-.67-.17-.67-.7a1.31,1.31,0,0,1,.67-1.19C121.06,74.35,121.36,74.67,121.36,75.19Z"/><path class="cls-3" d="M149.44,62.39a1.31,1.31,0,0,1-.67,1.19c-.37.14-.67-.17-.67-.7a1.31,1.31,0,0,1,.67-1.19C149.14,61.56,149.44,61.87,149.44,62.39Z"/><path class="cls-3" d="M152,61.24a1.31,1.31,0,0,1-.67,1.19c-.37.14-.67-.17-.67-.7a1.31,1.31,0,0,1,.67-1.19C151.69,60.41,152,60.72,152,61.24Z"/><path class="cls-3" d="M154.53,60.1a1.31,1.31,0,0,1-.67,1.19c-.37.14-.67-.17-.67-.7a1.31,1.31,0,0,1,.67-1.19C154.23,59.26,154.53,59.58,154.53,60.1Z"/><path class="cls-3" d="M157.08,59a1.31,1.31,0,0,1-.67,1.19c-.37.14-.67-.17-.67-.7a1.31,1.31,0,0,1,.67-1.19C156.78,58.12,157.08,58.43,157.08,59Z"/></g></g></svg>